<svg id="Layer_1" xmlns="http://www.w3.org/2000/svg" viewBox="0 0 1920.3 500"><style>.st0{fill:transparent} .st1{fill:#fff}.st73{fill:#036}</style><path class="st0" d="M0 0h1920.3v500H0z"/><path d="M.5-3.8h1920.3v472.3s-489.7 30.6-961.1 30.6C537.6 499 .5 470.9.5 470.9V-3.8z" fill="url(#SVGID_1_)"/><g opacity=".18"><path class="st73" d="M292.3 476.1c-2.7 0-3.2 2-4.8 2.5-2.7-2.6-2.8-2.6-4.9-.1-2.2-1.9-.5-5.6-3.4-7.3-.4-.2.7-.3.8-.6 1.5-2.9 1-9.8-2.1-12-1.3-.9-2.3-1.1-3.5 0-1.7 1.6-.6 3.9-1.5 5.7s1.9 1 1.8 2.4c-.2 1.4-2.4 1.3-2 3l-1 .2c-.8-.3-1.5-.7-2.2-1.1-3.4-2.3-3.3-2-7.1.6-2.3 1.6-5.4 1.6-8.5 1.2.9-2.3 3.2-3.9 1.5-6.5 2.3-.6 4.5-.7 5.3-3.2-2.1-2.5-2.1-2.5-12.7-1.5.8-1.3 1.6-2.5 2.2-3.4 2.8-1.1 6.9 1.6 7.8-3.2-1-1.5-2.7-1.6-4-2.4 1.4-1.2 1.9-2.8.4-4.1s-2.6.3-3.8 1.1c-1.6 1.2-2 3.4-4.1 4.6-1.2-1.3-1.6-4.4-4.5-2.8-.4 1.1-.4 2.4-.1 3.5-.1.4-.2.7-.2 1.1-.9-.2-2 .4-2.6-.3-2.3-4.3 4.4-6.4 2.1-10.9-6.3-.4-5.9 6-9.1 8.8-.6-1.2-1.4-2.3-1.5-3.8-.1-3 3.9-3.6 3.6-6.6-2-2.8-3.6-.6-5.3.5-.5-1.5-.8-3-2.9-2.8-2 .2-2.4 1.4-2.7 3h-.7c-2.5-2.5-4.2-.7-5.7 1.2-.8 1-1 2.4-2.5 2.8-2.2.6-3.8-1.7-6.2-1.1-.7.2-1.4-2.1-1.8-3.4 1.1-.7 2-1.2 2.8-1.7 1.3-.8 2.8-1.4 2.1-3.4-.7-1.9-2.3-1.5-3.8-1.3-.4.1-.6.2-.7-.3-.7-1.1.1-2.7-1-3.7-2.8-1-3.5 3-6.1 2.6-1-2.3 2.5-4.7-.7-6.9 2.7-1.2 4.3-2.7 3-5.6-4.6-1.6-7.3 2.8-11.1 3.8-.2-4.5-.3-4.7 3.9-5.9 2.3-.7 3-1.6 2.5-3.6-1.5-1-3.2-.1-4.4-1 .3-1.2 1.3-2.6-.5-3.4s-2.9.1-3.8 1.5c-1.2 1.9-1 4.4-2.6 6.3-1.7-1.7-3.5-3.3-5.3-.3.2 1.8 1.6 2.2 2.8 3-1.4.3-2.2 2.3-4 .9-1.4-1.2-1.1-2.6-.8-4.1.2-.6.7-1.2.7-1.8 0-1.7.9-3.9-1.8-4.4-2.4-.5-3.1 1.5-3.7 3.2-.3 1-.4 1.9-.4 2.9.1 1.7-.5 3.3-1.6 4.6-3.2-3-.8-6.4-.8-9.4-.8-1.8-3.7-1.4-3.6-3.9 4-4.3 4.1-5.2.5-9.1-5.5-.3-4.2 4-4.8 7.2-4.1.3-6.6 2.5-6.8 6.5-.1 2.9-1.2 5.5-1.2 9-1.3-2.4-2.2-4.1-3.1-5.8-1.1-1.5-1-3.6.3-5 3.8-4.4 2.8-8.8-.3-13-2.1-2.8-2.6-5.6-2.3-9.2.4-4.3 0-9-5.1-11.1-3.2-1.2-4.1-3.9-4.2-6.7-.3-7.7-12.3-7-9.5 1.7.7 1.7.8 3.6.3 5.4-2.1 5.8-.4 10.7 3.5 15.2 1.8 2.1 2.3 4.2.6 6.6-2.7-1.1-2.6-3.2-2.8-5.1-.3-2.7-.7-5.8-3-7.1-3.7-1.9-4.5-5-5.2-8.4-.6-3-2.4-5.3-5.7-5.5-2.6-.2-4-1.3-5.5-3.5-7.1-10.7-19.8.7-10.2 9.8 2.8 2.6 6.3 4.4 6.3 9.1 0 1.5 1.9 2.8 3.6 3.1 2.5.6 3.6 1.8 3.3 4.5-.3 3.2.7 6 4 7.2 2.3.9 2.1 2.7 1.9 4.5-.4 3.8.7 7 4.1 8.9 2.5 1.4 2.4 3.5 2.3 5.9-3.4-2.7-4.7-1.8-7.4 5.1-3.4-1-6.1-.6-5.3 5.1-.7-1.8-.7-3.7-.1-5.5.5-2.3-.4-4-2.7-4.7-2.6-.8-3.6 1-4.4 2.9-.8 1.7-.7 3.7-1.8 6.1.3-7.5.1-8.2-2-8.7-3.1-.7-8.1 1.6-9.2 4.3l.5.8v-.5l4.4 6.4c-1.5.9-3.9.2-4.4 2.6-.4 2.2 1.9 1.6 2.8 2.7-1.8.7-3.6.1-5.9 2 1.3-4.9 3.8-8.5 3.1-12.6v-.3c-.1-.1-.1-.2-.2-.3-2.8-1.8-4.5 0-5.6 2.1-1.3 2.4-2.3 4.5-5.5 5-2.4.4-2.9 2.5-1.9 4.7.5 1 1.5 1.9.8 3.5-3.4 1.8-6.6-.3-9.8-1.1-11.4-3.1-22.2-8.1-34-9.7-11.2-1.5-22.4-2.9-33.7-4.1-2.2-.2-4.3-.5-6.2 1.1v37c.9.4 1.9.7 2.8.9 6.5.4 12.9.6 19.4.9 8.9.4 17.9 1.9 26.9 1.2.3-.1.7-.1 1 0 7.8 2.1 15.8 1.1 23.7 1.7 9.4.7 18.9 2 28.3 1.3.3-.1.7-.1 1 0 8.3 2 16.9 1.2 25.3 1.7 10.2.6 20.5 2 30.8 1.3h1c9.8 1.8 19.9 1.3 29.8 1.8 10.3.5 20.5 1.9 30.9 1.2.5 0 1 0 1.5.1 6.8 1.3 13.9 1.4 20.7.2.8-.1 1.3-.2 1.7.4 1 1.5 2.7 1.4 4.1 1.1 2.8-.5 6.4 2.1 8.2-2.2 3.3.5 5.5-1.2 6.9-3.9 1.2.8 2.2 1.2 2.8 1.9 3.7 4.9 8.7 5.9 14.3 5.3 1.2-.2 1.1-1.1 1-2 2.2 2.8 5.2 2 8.1 2.1 1-1.8 1.9-3.6 2.8-5.3-.1-.5-.3-1.7-.7-1.9zM98.1 449.8l1.5 1.3c-1.6.3-1.6.3-1.5-1.3zm7 1.4c-.7-2.3.4-5.4-3.8-5.8l6.2-2.4c-.4 2.8-1.2 5.6-2.4 8.2zm8.6-6.6l-.8-3.3c3.2-1.6 3.9.1 4.4 2.1-.7 1.3-2.2 1.7-3.6 1.2zm4.2 9c-.3-2.6 1.8-4.3 3.1-7 1.2 2.5.5 4.5.8 6.9-1.5 0-2.4 1.5-3.9.1zm9.6-6.5c-.3.3-.7.5-1.2.5-.8-.5-.8-1.3-.2-2.4 1 .4 1.6 1 1.4 1.9zm-1.3-8.5c1.4-1.5-.7-3.8 1.7-5.1 2-1.1 3.9-1.1 6.5 0-2.4 2.7-5.5 3.5-8.2 5.1zm15.8-16.7c-4.3-4.9-4.3-4.9-3-10.9 5.9 4.6 6.1 5.2 3 10.9zm28.5 14.7c-.9-2.4-1.4-4-2.8-5.2l4.3-2.3c-.8 2.8-1.5 4.6-1.5 7.5zm8.5-4.9c-1.8-1.5-1.3-3-1.1-4.5 1.7-1 2.6-.4 3.3 1.3.9 2.3-1.6 2-2.2 3.2zm4 8.1c-1.4-2.3.5-4 2.6-6.6-.1 2.7.7 4.3 1.1 6-1.3.5-2.8 2.2-3.7.6zM1165.6 493.9c-1.7-1-2.5.8-1.9 2.6-1.4.3-3.1-.2-3.7 1.8 1.4.5 2.7.9 3.8-.6 1.2 1.1 2.7 1 4.2.9 3.9-.2 4.8-2 2.7-5.9-1.6.9-2.7 2.6-5.1 1.2zM1189.8 495.3c.6-1.3 1.1-2.9-.9-3.4-1.7-.5-2.2 1.2-2.8 2.2-.5 1.2-.9 2.4-1.1 3.7 3.1-.1 6 .3 8.9-.4-.9-2.7-2.8-1.1-4.1-2.1zM532 492.8c3.3.3 6.2.6 9.1.7.6 0 .6-1 .5-1.6-5.6-2.2-5.6-2.2-9.6.9zM541.7 491.9l-.1-.1.1.1zM1176.5 492.7c-2.1 1.2-2.5 3-2.8 5 1.8.7 3.2-.1 4.7-.1.4-2.2.6-4-1.9-4.9zM1209.3 494.8c-1.3.2-1.9 1.2-1.3 2.6 1.8.5 3.6.5 5.4.1-.7-2-2.1-3-4.1-2.7zM547.9 490.4c.5-1.1 1.7-.4 2.1-1.1-.2-3.4-2.3-5.8-3.8-8.5-1.2-2.2-4.2-2.8-5.6-1.7-1.2.8-1.5 2.4-.8 3.6 1.1 1.4-.8 4.6 2.7 4.5.6-.2 1 .1 1 .6 0 1.4-1.3.4-1.8.9 0 1.1 0 2.1.1 3.2 2.8 3 6.2 1.5 9.4 1.7-.2-2.3-1.6-2.9-3.3-3.2z"/><path class="st73" d="M542.5 487.2c-.4.4-1 .8-.8 1.6.4-.5 1.4-.6.8-1.6zM1915.8 440.9c-.3.8.3 1.9-.6 2.6-1.1-.9-.2-1.9-.3-2.8.5-2.6 1.1-5.3-2.3-6.5-.4-.1-.6-.2-.9.4-1.8.3-.6 2.2-1.7 3.2-1.5-.3-3.1-2.1-4.8 0-1.5 1.9 1.9 3.7-.1 5.5-2-.6-3.5-3.4-6.3-1.8-.2-2.5.1-4.9-3-5.6-4.7 3-.8 8-2.6 11.6-3.9-2-4.2-2-3.1-5.8.8-2.5-.1-3.2-1.9-4-1.7.9-2.3 2.2-3.1 3.8-1.4-1.8-3-1.7-4.6-.1-.4 4.3 3.7 5.3 6 7.9-2.2.8-4.2 1.8-4.6 4.7-4-1.5-8-1.1-11.9-1.4-4.2-.3-6-5.2-3.3-8.5.8-.9 1.6-1.7 2.5-2.5 2.3-2.2 2.6-4.8 1.6-7.7-.6-1.9-2-3.3-3.1-4.9 1-1 2-1.9 3-2.8 1.8-1.8.3-3.4-.3-5-.5-1.3-1.9-2-3.2-1.6-1.9.5-2.9 1.6-2.5 3.6.3 2-.5 3.5-2.2 4-5.2 1.3-5.5 5.5-6 9.6-.6 3.6 2.1 6.9 1.1 10.6-1.9-1.5-1.8-1.5-1.9-3.5s1-4.3-1-6c-2.8 0-3.3-1.8-2.8-4 .3-1.1.8-2.2 1.6-3.1 3.3-3.4 2.6-7.1.3-10.3-2.7-3.8-3.2-7.7-3.2-12.2s-.8-8.9-6-10.9c-2.1-.8-3.4-3-3-5.2.3-2.1-.6-3.9-1.2-5.7-.9-2.5-4.2-4.3-5.9-3.5-2.4 1.1-3 3.3-2.8 5.8.1 1.2.4 2.3 1 3.3 1.3 2.3 1.4 5.2.1 7.5-2.2 4.6-.7 8.9 2.7 12.1 2.6 2.5 3.8 4.7 2.4 8.1-.5 1.3-.9 2.6-1.3 4.1-5-4.5-5.4-5.1-5.1-8 .4-5.6-.9-7.4-6.3-8.4-.4-2.4-.9-4.8-1.3-7.2-.6-3.7-2.1-5.5-5.8-5.3-2.2.3-4.3-.9-5-3-2.8-5.6-6.3-6.5-12-3.3-.8 3.6.3 6.8 2 9.9 1.5 2.8 4.5 2.1 6.8 2.8.2 9.5.2 9.5 8.7 11.1.5.9-.3 1.5-.6 2.2-.9 2.1-.9 4.5.1 6.5.9 1.8 2.5 2.3 4.5 2 .3-.1.9.5 1.1.9 1.8 3.2-1.9 6.5.2 9.8.5.7-.8 1.3-1.6 1.6-.2-.5-.3-1-.3-1.5 0-1.9.1-4.1-2.5-3.9-2 .2-2.6 1.9-2.6 4.1 0 2.5.6 5.1-.2 7.7-3.3-1.1-4.5-3.2-3.2-5.9 1-2.2-.2-3-1.1-4.1-2.2.6-2.9 2.3-3.8 3.7-1.2-.4-1.6-1.8-3.4-1.4-1.7.5-3.4-.5-3.9-2.2-.2-.6-.2-1.1 0-1.7 1.2-4.7 1.2-4.7-3.4-7.4-1 .6-2.6 1.7-2.3 2.4 1.6 4.5-1.5 7.1-3.3 10.4-1.7 3.1-.3 6.6 1.2 9.7.9 1.9 2.2 3.6 3.3 5.5.8 1.5.7 2.7-1.3 3.4-.8-3.8-2.9-7.1-5.8-9.5-2.2-1.9-3.1-3.9-1.8-7 1.5-3.3.4-7.2-2.8-9.2-4.1-2.8-6-6.5-7.2-11.2-.9-3.6-3.1-7.3-7.6-7.6-3.7-.2-5.4-2.2-6.1-5.3-.5-2.3-2-3.7-3.8-5-1.4-1-3.2-1.2-4.7-.4-1.8.8-1.4 2.4-1.6 3.8-.2 2.2.7 4.3 2.4 5.7 1.7 1.5 2.6 3.8 2.4 6.1-.4 5.3 1.4 9.2 6.8 11.1 1.3.4 3.2 1 3.3 2.6.1 2.6 1.7 5.1 1 7.8-6.3-1.9-6.3-1.9-7.5-5.4-2.2-6.3-2.4-6.4-8.6-6.6-1.9-1.7-2-4.4-3.4-6.5-2.1-3.1-4-3.9-7.4-2.3-2.4 1.2-3.7 0-4.9-1.5-1.9-2.2-3.8-3.8-7.1-2.6-2.5.9-5 1.5-5.4 4.7-1.8-.9-.9-3-2.4-3.4-2.6-.9.7-2-.2-3.1-.4-.5-.8-.9-1.3-1.2-.6-.4-1.8-.8-1.3-1.6 1.5-2.9-1-4.1-2.1-6-.8-1.4-2.7-2.1-2.4-4.1-2-.5-4.8 2.2-5.8-1.8 1.5-.7 3.2-.5 4.5.6.7-1.1 1.9-2.1 1-3.5-2.8-4.1-3.6-8.9-6-13.2s-6-5.2-9.6-7c-1.4-.7-3.2.4-4 1.9-1.3 2.2-1.7 5.6-.4 6.9 2.5 2.5.7 4.4.4 6.3 1.7 2.8 3.9 1.2 5.7.9.2 1.4.4 2.3.6 3.4-.7.9-2.7.1-3 2.1.9 1.2.2 3 .5 3.6 2.2 1.5 3.4.1 4.9.1.2.8.4 1.5.7 2.7-1.6-.4-2.9-1.6-4.5-.7-1.1.9 1.2 2.9-.9 3.7-1.3 1-.5 2.8-1.5 4-1.6-1.9-2.1-3.6.4-5.1.3-1.4-.6-2.7-2-3h-.5c-3.4-.4-6.7-.8-9.8-2.4-1.2-.7-3.6.1-4.5 1.6-.6 1-.7 1.9-2 2.3-.8.2-3.5 6.9-3.1 7.5 1.7 2.3 1.7 5.5 3.8 7.6 1.3 1.3 2.7 2.2 4.3 1.5 3.2-1.5 6.1-.6 9.3.2 1.3.3 2 .2 2.6 1.9 1 2.6 3.5 2.5 5.1.1-1.2-1.2-1.6-3-.9-4.5 3 1.2 3 1.2 1.5 4.5-.2 3.6 4 2.4 5.3 4.7 1.1 1.4 3.2 1.7 4.6.6.1.8.3 1.2.2 1.4-3 4.7-3 4.8 2 6.3 1.6.5 1.4 1.5 1.2 2.7-1.7.5-2.7-1.8-5.3-.7.8 4.3 3 8.9.7 13.4-2.4-1-4.1 1.4-6.2 1.2-1-1.5.7-3.8-1.4-4.9-2.3-.4-3.4 2-5.3 2.2-1.5-1.8.3-4.2-1.2-5.4-1.9-1.1-3.3 1.5-5-.1-.7-.8 0-2.7-1.6-3.1-1 .3-2 .6-2.8.9-.9.3-1.8.7-2.7 1-2.4.8-4.2 5.3-2.5 6.6 2.2 1.8 2.7 4.9 4.9 5.9 2.5-.3 3.9-1.8 6.2-3.3-1.4 3.6.5 4.6 2.7 5.4 2.8-1.4 2.8-1.4 5.8-1.5-1.6 1.9-1.2 3.5.2 5.2 2.1 2.7 3 6.2 2.3 9.5-3.7-2.5-3.7-2.5-6.5-2.4-.4-2.3.1-5.2-3.2-5.5-6 2.8-.5 8.4-3 11.9-3.1-.4-3.2-2.1-3.1-4.3.1-1.9 1.1-4.4-1.5-5.5-2.5.1-2 3-3.9 3.6-2.2-2-3.9-.9-5.2 1.5-1.3-3-3-5.5-3.8-8.7-.8-3.1-2.1-6.6-5.3-8.6-1.3-.8-2.4-1.2-3.5 0s-.7 2.8-.5 4.3c.4 2.8.5 2.9 2.6 4.4-1.1.9-.3 2.5-1.4 3.4-.7.1-1.3.1-2 0-3.4-1.1-5.9-.9-8 2.9-1 1.9-4.1 3.1-7.8 3.2 1.8-2.8 2.4-5.2-1.1-6.6 1.7-.6 3.3-.3 4.4-1.7.8-1 1.6-1.8.9-3-.6-1-1.4-1.2-2.8-1.1-3.2.3-5.4 2.9-8.6 3.1-1-2.4-.1-3.8 2.2-4.5.8-.2 1.6-.5 2.3-.8.9-.5 2.3-.6 2.1-2.3-.1-1-.9-1.9-1.9-2-1.5-.1-2.5-.3-2.2-2.2.1-1-.9-1.7-2-1.9-1.4-.3-2.2.6-2.8 1.7-1.1 1.9-1.3 4.3-2.7 6.1-1.5-.9-2.6-3.3-4.7-1.5s.4 3 1.2 4.3c-3.1 1.1-3.7.8-4.1-1.7-.3-2.1 1.5-3.7 1.1-5.8-.2-1 0-1.9-1.2-2.4-1.4-.6-2.2.1-3 1-1 1.3-1.7 2.9-1.8 4.5s-.6 3.2-1.5 4.6c-2.9-1.5-3.1-3.7-1.5-6.2 1.2-2 1.5-3.6-1.2-4.8l-3.4 3c-3.6-2.9-3.8-2.8-5.1 1 1.2 2.1 2 4.4 3.8 6-.9 1.8-2.2 1-3.2 1.2-1.3 1.8-2 3.5 1 4.6l-5 1.6c-.1-3.1 1.3-5.3 2.9-7.3-.2-1.7.8-3.7-.9-5.1-1.3 0-2.7-.1-3.5 1.3-.2.4-8.1 6.2-8.5 6.3l-.8.2c0-1.5-1.9-1.8-2-3.1 1.2-1.8 3.6-2.7 3.8-5.2-1.4-2-2.9-2.4-4.6-.5-2.2-3.2-2.2-3.2-4.8-4.5.5-4 0-6.9-2.5-8.9-2.7-2.3-2.6-4.9-2-7.7 1.3-6.4 1.1-7-4.4-10.6-3.3 1.5-5.1 5-4.4 8.5.6 3-.2 4.9-2 7.2-.3-1.9-1.2-3.3-2.8-3.2s-2.1 1.8-2.4 3.3c-.4 2 .4 4-.5 6.1l-3.7-1.7c-.1-2 .2-4.1.8-6 .9-3.4-.5-7.2-3-7.6-3.9-.6-4.8-2.6-4.9-6.1-.1-3.3-5.9-6.8-9-5.8-.8.3-1.4.9-1.8 1.6-3 5.4-1 11.3 4.8 13.9.4 1.6-.1 3.2-1.4 4.2-1.3-1.8-2-4.2-4.7-4.9-2 1.4-3.9 2.8-2.3 5.6.8 1.3.5 3-.8 3.8-.1 0-.1.1-.2.1-4.6 2.8-4.2 6.8-2.4 10.8.7 1.6.2 2.4-.7 3.8-2.6-3-5.5-5.5-3.6-10.2 1.3-3.3-.7-6.6-3.2-8.3-3.6-2.3-6.1-6.1-6.8-10.4-.4-1.6-1.1-3.1-2.1-4.4-1.3-2-3-3.6-5.5-3.7-3.6-.2-5.7-2-6.4-5.6-.5-2.1-2-3.9-4-4.8-2.8-1.5-4.9-.5-6.3 2.4-.5 1.1 0 2.6-1.4 3.5-3.4 2.1-2.6 5.4-1.8 8.5.4 1.6 1.3 3.1.8 5.5-2.9-5-6.6-5.4-10.9-2.8-1.2-1.1-2.2-2.1-3.1-2.9-1.7-1.5-3.3-3.5-6-2-1.1.6-1.2-.8-1.9-1-2.6-.8-5.5-1.7-8-.2s-1.3 4.3-1.1 6.5c.3 3.3 3.2 6.1 5.7 6.5 3.2.4 3.5.9 3 3.9-.6 3.6 0 4.4 3 6.1 1.7.9 3.7-.1 5.1 1.3 0 .5-.1 1-.2 1.5-1.7 5.9-1.3 6.7 4.5 8.8 1.5.6 2.3 1.8 1.6 3.1s-.5 2.6-.8 2.9c-4 3.2-3.9-2.3-6.5-2-3.2 1.7-2 5.2-2.9 8-1.9-.6-3.8-1.5-4.4 1.2.1 1.3 2.3 1.5 1.6 3.8-2.3-.2-3.5-1.3-3-3.6s-.5-3.8-2.3-5.2c-5 2.4-.9 7.2-2.7 10.3-2.7-.4-3.3-2.3-2.6-4.3.7-2.1-.1-3.1-2.3-4.4-.2 4.2-3.7 3.5-6 3.5-2 0-3.8.6-6.5 1.1 2.8 1 4.1 3.2 6.5 3.4-.1-.5-.3-1.1-.4-1.7 1.5-.3 2.1.6 2.4 1.7.8 1 2.4 1.2 2.8 2.6-1 1-2.3 1.5-3.7 1.5 1.4 4.5 1.1 9.2 1.8 13.8l-5.4 5.1c-.6-.7-1.3-1.4-1.3-2.3 1-2.3 4.8-3 3.7-6-1.5-1.2-2.4.1-3.7 0-.2-1.3-.8-2.5-2.5-2.5-3.4 1.8-.8 5.2-2 7.7-1.3.6-3.3-2.1-4 .6-.6 2.3 1.2 2.6 3 2.9.3.1-.1.8-.6.9-.1 0-.1 0-.1.1-1.9 1.1-3.2.4-3.8-1.6-.2-.8.2-1.8-.2-2.4-.7-1.3-.7-3.7-3-3.1-1.9.5-2.1 2.4-1.8 4.1s.5 3.2 1.7 4.7c2.4 0 4.9.5 7.2-.8l13-.2h2c6.2.5 12.3-.3 18.4-.7 8.9-.6 17.8-.2 26.7-1 9.3-.8 18.6 0 27.9-1 7.9-.8 15.9-.1 23.9-.9 8.9-.9 17.9-.1 26.9-1.1 7.3-.8 14.6-.5 21.9-.8 10.1-.5 20.2-1.3 30.3-1.2 8.5.1 16.9-1.6 25.4-1.2.6 0 .7-.5.8-1.2-2.8-2.8-6.5-.4-10.3-1.5 2.6-2-.7-2.9-.6-5 3.4-.1 5.7-1.9 6.5-5.5l11.1 4.5c-.1 3-1.6 5.8.9 8.6 2.7-1.3 5.4-.5 8-1 0-.3 0-.6.1-.9-.2-.8-1-1.3-.6-2.6 1.8-.2 3.6-.6 5.3-1.3-1.1 1.3.2 3.2-1.6 4v.7c4.6.2 9.3.7 13.8-1.2 10.1 1.4 20.2-1 30.3-.7 8.1.2 16.2-1.6 24.4-1 .3 0 .7 0 1-.1 4.7-1.5 9.6-1.2 14.3-.8 4.9.4 9.5-1.6 14.4-1.2 10.1.7 20.2-.8 30.3-1.2 10.6-.4 21.2-1.1 31.7-1.8 7.3-.5 14.6-1.2 21.9-1h.5c8.2-1.7 16.5-1 24.8-1.6 8.4-.6 16.8-1.9 25.3-1.3 1.2 0 2.3-.3 3.3-.9v-27c-1.9-.4-3.3-1.6-5.1-1zm-234.7-34.7c.8-.6 1.6-.9 2.5 0-.9.9-1.7.7-2.5 0zm11-4.6c1.8.2 2.3 1.2 2.5 3.2-2.4-.3-3.2-1.1-2.5-3.2zm-4.1-.9l1.2 1.5c-.3.1-.5.4-.7.4-1.1-.2-.9-1-.5-1.9zm-1 12.8c-1.6-3.9-1.1-4.5 3.5-4.5-.6 2-3.4 2.2-3.5 4.5zm5.5-.8c-.8-.3-1.2-1.1-.9-1.8.1-.2.2-.4.4-.6.9-1.2 2-.6 3.4.4-.6 1-1.7 1.8-2.9 2zm18.1-22.5c.2 1.2-.6 2.3-1.8 2.5-.8-.1-1.4-.7-1.3-1.5 0-.2.1-.5.2-.7.7-1.4 1.9-.8 2.9-.3zm-3-5.4c1-.3 1.4 1 .5 1.9-.4.3-.7.5-1.1.8-.7-1.1-1-2.2.6-2.7zm-2.6-4c1 .7.6 1.5.1 2.6-.5-.9-.7-1.7-.1-2.6zm-4.2 27.8c.5-.9.8-1.7 1.7-1.5.2 0 .3.5.3.8 0 1.2-.8.9-2 .7zm1.9-4.2l3.4-2.6c1.5 1.1 1.7 2.8 2.5 4.4-2-.4-3.7-1.5-5.9-1.8zm4.7 7.3c1.3-1.2.8-2.9 2.6-3 1 1 1 2.3 1.1 3.6-1.3.6-1.8-.9-3.7-.6zm6 7.3c-1-1.5-3.3-1.7-1.7-4.1 1.4.8 2 1.8 1.7 4.1zm-27.4 26.4c.6-.8 1.8-.9 2.5-.3l.1.1c-.9 1-1.7.6-2.6.2zm-215.6 33.2l-2.4-3.4 2.4-2.1v5.5zm6.6 5.8c-.6-.5-.4-1.1.1-1.6.8.1.8.8 1.1 1.4-.5.2-1 .4-1.2.2zm-.9-11.7c-.6-1.1-.6-2.5-.1-3.6.6-.5 1.5-.4 1.9.2.1.1.1.2.2.3 1.1 1.9.8 3.2-2 3.1zm6.5 6c-2-2.2.2-3.4.4-5.1 2.9 2.2 1.3 3.5-.4 5.1zm3.8-15c-1.8-4 .9-4.9 3.6-6.1 1.9 4.2-2.5 4.1-3.6 6.1zm10 3.1l-3.2-2.6c.3-1.1 1.1-1.9 2.2-2.2 2.1 1 1.2 2.6 1 4.8zm1-29.3c-.8-1-.8-1.6-.3-2.2.9.5.4 1.2.3 2.2zm5 10.6c-1.3-2.6-5.2-2.1-4.6-6.7 1.5 3 3.8 2.1 5.8 2.5-.3 1.4-.6 2.5-1.2 4.2zm5.3 17.1c-3.4-3.4-5.4-6.7-2.6-10.9 5.3 4.2 5.9 6.1 2.6 10.9zm9-26.2c-1.1-1-1.4-2.6-.7-3.9 2.2.8 2 2 .7 3.9zm5.2 31.6c-.2-1.3-.9-2.3.4-2.8.3 0 .6.1.8.4 1 1.3-.2 1.7-1.2 2.4zm.9-19.4c-2.3-1.5-.2-4.3-2.3-6.8 4 1.2 7 2.1 8.3 5.9-1.8 1.9-3.9 2.4-6 .9zm26.3-18.4c.8.9 1.3 2 1.3 3.2-2-.6-3.1-1.4-1.3-3.2zm3.9 5c2-.1 2.8 1.1 3.8 2-1 1.3-1.9 2.4-2.9 3.6-.3-1.7-.6-3.6-.9-5.6zm3.7 17.9c-.4 1.2-.8.4-1.3 0-.6-.6-.1-.8.3-1 .6-.8.6-2.3 2.6-1.9.1 1.2-.5 2.4-1.6 2.9zm62.1 12.4c-.7-1.7-1.7-3.4-2.8-4.9l4.6-1.5c.3 2.4-1.1 4.2-1.8 6.4zm8.6-4.3c-1.1-1.1-.6-2.4-.3-4 1.7-.2 3.5-.6 3.6 1.6 0 2-1.5 2.6-3.3 2.4zm3.4 9.5c1-2.3.7-5.1 3.8-6.3.1 1.7.2 3.3.3 5.4-1.6.1-2.4 1.7-4.1.9zm9.3-6.4c-.3.1-.4-1 .1-2 .5.9.8 1.7-.1 2zm3.2 13.7c-.3-1.5-.3-1.5 1.3-1.5-.4.5-.8 1-1.3 1.5zm13-11.6c-.4-.7-.8-1.3-.2-2 .9.5.3 1.3.2 2zm24.7 5.7c-.4-1.9-.2-3.9-.7-5.8l3.7 3.5c-.5 1.7-2.1 1.3-3 2.3zm25.4-17.1c-.8-.6-1-1.8-.4-2.6 0-.1.1-.1.1-.2 1 .1 1.9.6 2.5 1.4-.4.9-1.3 1.4-2.2 1.4zm12.1-14.6c.4 1.1.3 2.2-.1 3.3-1.2.9-1.7-.2-2.5-.9.4-1.1 1.4-2 2.6-2.4zm-2.4-6.1c1.1.2 1.8 1.3 1.6 2.3v.2c-1.4.7-2.1-.1-2.8-1.2l1.2-1.3zm-.9 24.9l1.3 1.3c-1.4 1.2-1.6.3-1.3-1.3zm2.9-4c-3.2-2.1-7.2-3.4-6.2-8.7 2.1 1.4 4.4-1.8 6.3.6 1.6 1.9-.9 4.1.5 6.1.2.4 0 1.3-.6 2zm5.6-38.7c-.9.8-2.1 1-3.1.6 1.1-1.4 2-.8 3.1-.6zm-1.5 6.5c-1-.8-.3-1.7-.7-2.7 1.2-.4 2.5.2 3 1.3-.6.8-1.1 1.7-2.3 1.4zm2.2 26c2.9 1.5 2.6 2.5.8 3.5-.8-.8-.3-1.9-.8-3.5zm4.1 18.8c-1.6-.6-1.6-2.3-3-3.4 3.6-.6 3.4 1.2 3 3.4zm-.7-46.6c0-.9-.3-1.8.3-2.7.9.2 1.1 1 1.5 1.7l-1.8 1zm9.7 49.9l-1.5.9c.8.3 1.2-.2 1.5-.9-.1.6 0 1.5-.3 1.8-.6.4-1.1-.1-1.3-.9-.2-3-.6-6-3.3-8.7 2.7.1 4.1 1.6 6.5 2.2-2.9 1.5-2.7 3.5-1.6 5.6zm10.1.9l-3.8-1.1c.6-1.3 2-2.1 2.2-3.7 1.8 1.4 1.8 2.9 1.6 4.8zm4.6-5.4c-1-1.7-1.6-2.9-2.2-4 .9-.5 1.3-2 2.8-.9 1.9 1.6.5 2.8-.6 4.9zm7.8 3.6c-2.4-1.5-.9-3.8-1.8-6.3 3.8 3.4 3.8 3.4 1.8 6.3zm-.7-16.3c-.3.1-.7.3-1.1.3-.5-.8-1-1.7-1.5-2.5.9-1.7 1.8-3.4 3.6-4.5 3.3 3.3-1.7 4.5-1 6.7zm9.1 6.4c-1.2-.4-.4-1.1-.4-1.8.6.3.8 1.2.4 1.8zm.1-6.5c-1.5.1-1.4-1.8-3.4-1.5l2-2.9c2.1 1.1 1.7 2.7 1.4 4.4zm10.8-4.9c-3.9-1.8-6.6-4.4-5.4-9.5 7.4 3.4 7.8 4.1 5.4 9.5zm37.6 1.6c1.2.9 1 2.3-.4 3.5-1.3-.6-2.9-.7-3.6-2.4 1-1.6 2.5-2.3 4-1.1zm-8.8-2.2c-1.9.3-3.7-.9-4.2-2.7-1-2.4 1-4.3 2.3-6 1-1.4 2.3-.1 3.2 1-1.5 1.4-5.5 1.5-3.2 5 1.6 1.2 2.6-1.1 4.2 0 .7 2.2-.6 2.4-2.3 2.7zm4 17.7c-.7-1.3-.6-2.2.6-2.8-.1-1.1-.1-2.3-.2-3.8 1.8.1 3.4 1.2 4.1 2.8.5.1 1 .3.8.8-.5 1.2-1.1 0-1.7 0l-1.9.4-1.7 2.6zm2.3 4.8c1.4-2.1 2.8-2.6 4.4-1.5-1.9 1.5-1.9 1.5-4.4 1.5zm13-17.3c-2.9-.6-3.7-2.8-4.9-5.2 2.2-.3 3.5.9 4.8 1.3.6 1.3.6 2.7.1 3.9zm12.4-21.3c-.6.5-.9 1.6-1.7 1.3-.5-.2-.4-1.2.6-1.3.1-1.6-.2-3.1.4-4.9l4 4.7c-.9.7-2.2 0-3.3.2zm75.4 19.8c-.7-.6-1.7-1.1-1.4-2.4.9-.6 1.1.4 1.4.7.7.5.5 1.1 0 1.7z"/><path class="st73" d="M1701.9 418.8h.6c-.2-.7-.2-1.5-.4-2.3 0 .7-.1 1.5-.2 2.3zM1715.7 396.8c-.1-.6-.6-1.1-1.2-1.2-.5.1-1 .2-1.4.3.7.5 1.9.1 2.6.9zM1698.1 403.8c.6-.3 1-.8 1.6-1-.5-.2-1-.6-1.1-1.1-.3.6-.5 1.3-.5 2.1zM1611.6 452.9c-.1.5-.3 1-.6 1.5l.2.2c2.4-2.3-.7-4.6-.1-6.8-.6.1-1.1.4-1.4.9 2.4.5 1.8 2.5 1.9 4.2zM1856.1 439.8c-.1-1-.1-2.1.3-3.1l-1.8 1c.8.5 1.3 1.3 1.5 2.1zM1856.3 441.2c0 1 .1 2 .4 2.9 0-1-.1-2-.4-2.9zM1459.2 452.6c-1.3 1.5-3 2.5-3.4 4.7 4.6-1.1 4.6-1.1 3.4-4.7zM1459.4 465.8h-.6c.2 1.3-1 3 .9 3.9l-.3-3.9zM1915.1 443c.4-.6-.2-1.6.8-2.1-.3-.2-.6-.3-.9-.2.2.7.2 1.5.1 2.3zM1682.3 480.7c-.2.3-.4.6-.7.8h3.1c-.2-.2-.3-.4-.4-.7l-2-.1zM1610.2 458.9c-.7-1.4-.4-3.1.7-4.1h-.2c-.7 1.2-1.4 2.5-.5 4.1z"/><path class="st73" d="M1610.8 454.7l.2-.4c-.2-.2-.3-.4-.4-.7-.2.7-.1 1 .2 1.1zM1610.9 454.8c.3.1.5.1.8 0-.2-.1-.4-.2-.5-.3l-.3.3zM1684.3 480.5v-.1c-.1-.5.6-1.4-.4-1.5-.7 0-1.1.6-1.3 1.3.5-.2 1.2-.1 1.7.3zM1682.4 480.6l.2-.4c-.3.1-.6.3-.8.5l.6.1v-.2zM1684.3 480.9h.4l-.4-.4v.4zM1459.7 469.8zM1460.3 468.9c.5-.5.6-1.4.1-2 .1.6.1 1.3-.1 2zM1459.7 469.7v.1-.1zM1459.5 465.8c.3.3.5.6.7.9l.2.2c-.1-.3-.2-.7-.3-1l-.2-.2-.4.1zM1459.7 469.7c.2-.2.4-.5.6-.9l-.3.3c-.1.1-.2.4-.3.6zM1813.8 465.9l-1.1-.2c.2.3.6.5.9.3.1 0 .1 0 .2-.1zM1458.7 465.8c.1 0 .1 0 .1-.1l-.1.1z"/><path class="st73" d="M1459.7 465.6c-.3-.2-.7-.2-1 .1h.5c.1 0 .1.1.2.1h.1c.1-.1.2-.1.2-.2zM1459.7 465.6l.2.1h.8c-.2-.2-.7-.3-1-.1zM1816.6 464.8l-.9.7c.4-.1.8-.3.9-.7zM1556.7 455.7l-.9-.9c.1.4.5.7.9.9zM1839.7 434.8l-1.1-.1c.2.3.6.4.9.2.1 0 .2 0 .2-.1zM96.2 438.7c.4-1.1 1.4-2 1.8-3 .8-1.8-.3-3.7-1.4-5.5v.2c2.4 2.9.2 5.6-.4 8.3zM828.6 490.7c2-1.6 1.6-3.6-.5-4.6-2.4-1.1-2.5-2.7-2.3-4.9.1-.8 0-1.7-.2-2.5-.4-1.1-1-2.1-2.5-2-1.2-.1-2.2.9-2.3 2.1 0 2-.5 4 .4 5.9.7 1.2.7 2.6.2 3.8-1.2-.1-2.3-.6-3-1.5-1.5-2.1.3-4.9-1.8-7.9-2.9 1.3-5.4 4.4-9.4 3.6.3-1.2.6-2.4 1.1-3.6.8-1.8.7-3.4-1.1-4.3-1.6-.8-2.8.2-3.4 1.8-.4 1.1-1.5 1.8-2.7 1.7-1.2-3.1 1.4-7-1.8-9.6-2.4.3-3.1 2-4 3.7-1.2-1.3-2.9-.5-4.5-1.1-.3-2.5.7-5.8-3-6.7-2 .5-1.9 2.3-2.6 3.5-4.6-1-4.6-1-3.9 3.7.1.8-.6 1.7-1 2.7-1.8-1.8-3.3-4.1-6.3-2.4 0-.8-.1-1.3-.1-1.8 0-1.7-.2-3.7-2.3-3.7-2.3-.1-2.9 1.8-2.8 3.8.1 2.3 0 4.7 0 7 0 .5-.2.6-.8.4-1-.6-2.4-1.1-3.1-2.5.8-2.3 2.1-4.9-.1-6.4-2.5-1.8-2.8 2.1-4.7 2.6-1.3-.8-2.5-1.7-3.8 0-1 1.4-.3 2.5.6 3.5 1.5 1.6 3 3.1 4.8 5-2.8.4-4.3 1.8-4.1 4.5-.7-.4-1.5-.7-2.3-.9-2.5-.2-5-.2-7.5-.3-2-.1-3.9-.1-5.4-1.8-2.4-2.9-2.2-4.9.9-8.2 4.1-4.4 4.4-7.1 1.3-12.3-.3-.5-1-.9-.8-2.1.5-.5 1.2-1.1 1.9-1.8 2.2-2 .6-4-.2-5.9-.5-1.3-1.9-2-3.2-1.6h-.1c-1.8.6-2.9 2.4-2.6 4.3 0 .8 0 1.5-.2 2.3-7.2 3.7-7.3 3.9-8.1 12.8-5-2-6-4.1-2.8-7.8 3-3.4 2.8-7.1.7-10-3.2-4.4-3.7-8.9-3.7-14 0-3.4-.3-7.4-4.6-9.1-3.3-1.3-5-3.7-4.4-7.4.4-2.8-.9-4.9-2.8-6.6-2.4-2.2-4.8-1.7-6.5 1.2-1.3 2.3-.8 4.4.2 6.6s1.6 4.7.6 7.2c-2.4 5.4-1.1 9.9 3.3 13.5 2.1 1.7 2.8 3.9 1.7 6.1-.7 1.4 0 3.5-1.7 4.3-4.4-1.2-5.5-4.3-4.9-8.3.2-1 0-2-.3-2.9-.6-1.3-.9-3.4-2.5-3.4-4 .1-4.1-2.2-4.2-5.1-.1-1.6-.5-3.3-1.1-4.8-.8-2.1-2.5-4.5-4.5-3.9-4.2 1.2-5.1-1.2-6.5-4-1.6-3.5-7.7-4.6-10.7-2.3-.7.5-1.1 1.2-1.1 2-.8 5.1 2.5 9.8 7.5 11 2 .5 2.7 1 2 3.4-1.3 4.3-.3 5.2 4 6.9 1.5.6 3.3-.6 4.5 1.4.5 1.5-1 2.8-1.1 4.5-.1 4.3.3 5 4.8 5.8 1.1.2 1.8.8 2.5 2.1-2.4 2.9-1.4 6.3-.7 9.7-2.3.5-2.2-1.4-2.4-2.5-.4-1.6-1-2.4-2.6-2.3-1.9.1-2.5 1.4-2.5 3.1v9.2c-1.5-1.5-3.1-2-3.9-3.5 1-1.9 1.2-4.1.6-6.1-3.2-2.1-3.5 1.4-5 2.3-2.5-1.3-6.2.6-7.6-3-.3-1.8 1.8-2.4 1.9-3.9-3.1-6.1-4.6-6.4-7.8-1.7 1.2 2.7 2.2 5.3-1.7 6.9-1.1.6-1.7 1.7-1.6 2.9 0 3.1-.2 6.3 1.7 9.1 1 1.5 1.8 3.1 2.7 4.6s1.5 3.2-.8 4.5c-.8-3.9-2.4-7.1-5.5-9.3-2.8-2-3.8-4.6-2-7.7 1.5-2.7.5-4.8-1.1-6.8-1.2-1.4-2.4-2.7-3.8-3.9-2.2-1.9-3.8-4.5-4.5-7.4-1.2-4.4-2.7-9.3-9.1-9.6-2.8-.1-4.3-2.8-5.4-5.3-2.4-5.4-3-5.8-9-5.1-2.4 2.9-1.3 5.8.8 8 2.3 2.2 3.4 5.4 3 8.5-.4 4.5 2 7.4 5.8 9.5 4.9 2.5 5.8 4.9 4.5 10.2-4.5.4-6.5-2.1-7.1-6.2-.3-1.7-1.2-3.1-2.6-4.2-.6-.5-1.4-1.4-2.1-1.1-4.2 2.2-4.6-1.2-5.7-3.7-.6-1.4-1.4-2.6-2.3-3.8-2.6-3.1-5.8-2-8.6-.6-3-1.6-4-5.5-7.9-5.1-3.4.1-6.3 2.2-7.7 5.2-.4-3.7-2.9-3.4-5.5-2.8.8-2.2 3.4-.7 3.6-3 .4-2.1-3.4-2.1-2.7-4.5.6-2.1-.6-3.5-1.8-4.7-1.5-1.6-2.4-3.6-3.6-5.3-2.9 1-2.9 1-4.6-2 2.5.8 4.8 1.7 5.8-1.6-2.3-1.6-2.6-4.4-3.4-6.8-.8-2.6-2.2-4.6-3.2-7-1.5-3.5-4.9-4.6-7.8-6.3-2.4-1.4-4.3 0-6.1 1.5-.1 1.3-.2 2.6-.2 3.9 0 3.9.3 4.1 5.5 4.3-3.4 1.1-5.2 2.3-4.6 5 .9 3.2 6.6-1.1 6.2 4.1-.5 1.3-2.3.1-2.9 1.8-.9 2.3.6 4.6 1.1 7 .6 3-3.4 3.9-2.7 6.7-.5-1.7-1-3.1.1-4.8s.6-3.3-1.5-3.6c-3.4-.5-6.6-1.5-9.9-2.1-1.4-.3-3.5-.9-5 2.2-2.2 4.5-3.8 5.6-4.9 9.9 2.8 2.4 2.6 7.3 6.9 8.7.6-.3 1.2-.5 1.8-.8 5.2-1.6 7-1 11.5 3.2 1.2.8 2.5 1.3 3.9 1.3.7.1.5-1.1.8-1.6-.1-.6-.2-1.3-.4-1.9-.3-.9-1.1-1.6-.1-2.5 1.4-1.2 1.8.7 3 .6l-2 3.8c3.1 2.8 6.4 5.2 11.7 5.8-2.2 1.5-4.1 2.4-3.4 4.6.7 2.1 2.6 2.4 4.7 2.2.6-.1 1.3 1 1 1.5-1.9 2.4-3.9-1.8-5.7 1.1 1.2 2.4 1.3 5.3 1.8 8.2.2 1.1-.9 4.1-2.1 4.1-2 .1-3.4 1.3-4.7 2.5-1.6-2 .1-4.5-2-5.8-1.6.8-3.7.4-4.4 2.5-2.7-1.5-.3-4.8-3.1-6.6-.6.1-1.6 1.1-2.8.8-1.1-.7-1-2.5-2.4-2.9-3.3 1-7.2.8-9.1 4.6.8 1.1.5 2.5.8 3.7.3 1.7 2.9 1 3 2.8.1 2.1 1.3 2.8 3.3 2.8s2.6-1.3 3.3-3c2.1 5.5 2.1 5.4 7.5 3.5 1.4-.5 2.5.2 3.4 1.3-1.8.4-3.7 1-1.5 3 1.2.9 1.9 2.3 2.2 3.7.7 4.4 3.4 5.1 7.1 4.5 1.3-.2 2.6.4 3.7-.4.4-.7-.1-1.7 1-2.2 2.5 4.5 6.4 2 9.8 2.5.8-1.7-.2-3.3.8-4.7 1.4-.5 3 .2 4.3-.6.5-1.8 1.3-3.3-.8-5.2-1-.8.8-4-.6-5.7-1.7-.7-2.7 1.2-4.3.7v-7.1c.4 0 .8 0 1 .1 1 .8 1.8 2.1 3.3.7 1.3-1.2.1-2-.3-3-.8-2.7-1.4-5.4-2.1-8.1-1.6-.6-2.2 1.2-3.5 1.4-.4-1.2-.5-2.6-.2-3.8 1.6-.2 2.4 1.6 3.8 1.5 2.1-.3 2.5-1.4 1.6-3.1-1-1.7-.5-2.8.8-3.9 2 1.4 3.8 2.9 6.6 2 2.4-.7 3.5.8 3.8 3.2.6 4.4 2.5 5.6 6.8 4.3 1-.3 1.8-.9 3.1.2 1 2-.4 4.9 1.2 7.3 2.1 3 5.1 1.2 7.6 1.9.6 4.8.6 4.8-1.6 7-1.7-.1-2.4-3.2-5.1-1.3.2 2.2-.1 4.8.8 7.5-1.4 1-3.7.5-4.5 2.6 1 1.1 2.5 1.7 4 1.8-2.5 2.2-4 2.4-5-.5-.7-2.5-1.5-4.8-5.3-3.5-.3 4 2 7 3.3 10.6 4.1 0 7.9-.5 11.8-.2 15.1 1 30.3 1.5 45.4 1.2 3.5-.1 6.9 0 10.5 0 .1-1.8.2-3.2.3-5.1 1.8 1.5 3.1 2.8 4.5 3.8 1.8 1.4 4 2.2 6.3 2.2 20.3 0 40.6 0 60.9.8 15.1.6 30.3.1 45.5.1 1.5-.1 3 0 4.5.2 4.7.9 9.2.8 12.7-3.4 1.2 4.8 1.2 4.8 7.3 3.6.5-1.8 0-3.7-1.2-5.1-.9-.8-.9-2.1-.2-3 .3-.3.5-.4.7-.5zm-270.4-53.3c-.6-.3-1.2-.6-1.4-1.3.6-.4 1.3-.5 1.7.1.2.2-.2.7-.3 1.2zm5-6.7c.7.9 2.3 1.3 1.1 2.9-.9-.7-2.1-1.2-1.1-2.9zm-.9 13.7c-2-4-1.5-4.6 3.3-5.3-.2 2.5-3.4 2.4-3.3 5.3zm5.4-12.6c1.6.8 2.4 1.8 1.7 4-.9-1.3-3.5-1.2-1.7-4zm.6 11.3c-.3.1-.4 0-.6-.4-.3-1-.6-2 .3-2.7 1.1-.8 1.7.3 2.6 1.1-.4 1-1.3 1.7-2.3 2zm5.8 2.3c-.6-.6-.6-1.6 0-2.2.6.4.7 1.2.3 1.8-.1.2-.2.3-.3.4zm10.2-21.8c-1-1-1.5-2.4-1.5-3.8 3.5 1.1 3.5 1.1 1.5 3.8zm-2.5-7.2c.4-.5.8-.9 1.3-1.2.5.5.7 1.2.6 1.8-.3.7-.8 1.3-1.6 1.6-.6-.6-.7-1.5-.3-2.2zm-1.8-5.3c1 .7.8 1.4.3 2.2-1.1-.7-.4-1.5-.3-2.2zm-1.8 29c-1.1-.3-1.9-.8-1.4-2.1.1-.3 1.1-.6 1.3-.5.9.9.7 1.8.1 2.6zm-.3-11.9c0-.7 1-1.7 1.9-.3.3.4.5.8.9 1.5-1.7.6-2.8.2-2.8-1.2zm1.8 6.9c.1-1.5.9-1.9 1.5-2.4 1.4.7 2.3 2 2.5 3.5-2.1 1.3-2.6-1.3-4-1.1zm5.1 7.1c-1-1-1-1 .3-2.6.7.7 1.2 1.6 1.4 2.5-.6.5-1.1.8-1.7.1zm3.5 6.3c-1-.4-2-.9-1.6-2.4.9-.9 1.3-.1 1.7.5.5.6.4 1.4-.1 1.9zM561 476.2c1-.7 1.7-.8 2.5-.1-.7 1-1.5.6-2.5.1zm21.4 11.4c-.5-.1-.9-.4-.8-1 .1-.4.1-1.1.9-.7.6.2.9.7.8 1.3 0 .4-.4.6-.9.4zm9.6-20.8c1.4 1 .3 2.4.8 3.8l-3.1-1.4c1.2-.5.5-2.5 2.3-2.4zm1.5 21.3c-3.6-1.9-7-3.1-6.8-8 2.2-.8 4.3-.4 6.8-.3v8.3zm-.1-10.4c-2.2-.3-2-1.6-2.3-2.6l2.1-1.2c.9 1.5.4 2.6.2 3.8zm7.7 5.9c.3-.2.9.2 1.3.4-.2.7-.7 1.3-1.5 1.4-.5-.7-.4-1.4.2-1.8zm-2.1-17.7c1.5.6 2.2 1.4.1 2.6-.5-.7-.5-1.7-.1-2.6zm-3-16.5c1.3-.9 1.9.1 2.5 1-.8.5-1.9.5-2.6-.2-.1 0 0-.7.1-.8zm2.9 6.2c-2.2.2-2.6-.8-1.8-2.9 1.3 0 2.4.9 2.6 2.2-.3.5-.5.8-.8.7zm35.5 31.7c-1.9-.8-1.6-2.3-2.5-3.2l3.6-4.1c3 3.3-.8 5-1.1 7.3zm6.4-2l1.2-2.6c1.9.7 1.7 2.2 1.9 3.6-1.4.8-1.8-.9-3.1-1zm14.1-3.9c-5.5-1.8-6.3-3.1-5.7-8.6 6.9 2.6 7.3 3.1 5.7 8.6zm30.3 0c-2 1-3.5-.2-5.1-1.6s-1.5-2.6-.2-4.1c.6-1.3 1-2.7 2.1-3.8 1.3.1 1.5 1.4 2.9 2.1-1.5 1-3.1.7-4 1.7v2.3c1.4 1.1 3 .4 4.3.7.7 1 .9 2.3 0 2.7zm7.3 5.6c-2 .1-3-1.1-4.3-1.7.5-2 1.7-3 4-2.5.9 1.2.6 2.6.3 4.2zm7.2-12c.5-.4.8.1.9.6.1.4-.1.8-.5 1h-.2l-.9-.4c.3-.3.4-.8.7-1.1v-.1zm2.9 11.6c-2.8-.6-3.7-2.4-4.4-4.5 4.4-.3 5.2.5 4.4 4.6v-.1zm11.2-20.2v-5.9c1.9 1.6 3.4 2.9 5.2 4.5-1.7 1.3-3.5.3-5.2 1.5v-.1zm18.6 12.4c-1-2.5-3.1-4.4 0-7 0 2.5 1.6 4.4 0 7zm28.7 6.7c.2-1.5.8-2.2 2.4-1.4-.7.8-1 2-2.4 1.5v-.1zm14-3.5l2.2-.6c-.5 1.7-1.2 1.2-2.2.7v-.1zm34.6 13c2-.1 2.6.8 3.4 2.2-2.3.8-3.3.4-3.4-2.2zm.7-2.3c-.9-1.2-.8-2.4-.4-3.7 2.2-.8 3.1 1 5.1 2.4-2.1.2-2.9 2-4.7 1.3z"/><path class="st73" d="M614.2 488.7c-1.4-.5-2.7 0-2.8.3-.6 3.3-3.7 3.1-5.8 4.1-.8.4-1.9.3-1.7 2 4.7.3 9.4 1 14.5.1-3.9-.6-2.9-4.3-4.2-6.5zM571.2 489.8c-.9-.6-2-.5-2.8.2-1.3 1.1-1.2 2.6-.4 4 1.3.6 2.8.7 4.2.3.8-1.9.8-3.4-1-4.5zM599.7 460.2c.7.2 1.5-.2 2 .6.1-.3.1-.7.1-1-.7.6-1.4.3-2.1.4zM577.4 447.9c-.4.6-.1 1.3-.5 1.9h.6c-.3-.6-.4-1.3-.1-1.9zM623.4 489.1c-.1-.6-.5-1-.5-1.6l-1 1.2c.5.1.8.7 1.5.4zM559.7 493.4c1.5.6 3.3.6 4.7-.1-2-2.5-3.3-2-4.7.1zM688.2 496.4c1.5 1.7 2.7 1.5 4.2 1-1.2-.8-2.7-1.2-4.2-1zM679.8 475.8h1c-.3-.4-.6-.4-1 0zM515.9 488.3c-.6-2.7 0-4.4 2.8-4.9 1.1-.1 2.2-.5 3.2-1.1 1.1-.7 1-2 .5-3.1-1-.8-2.4 0-3.5-1.2-.6-1.3.7-4.2-2.5-4.1-3.3 1.5-2.8 5.4-4.9 8-1.9-1.5-4-3.7-5.8-.1l1.9 3c.3.3.8.5 1.2.6-.8-.1-1.6 0-2.3.3-3.4 0-3.3-2.4-2.6-4.5.9-2.1.9-4.4 0-6.5-6.9.3-3.6 7.4-6.5 10.2-1.4-.9-2.5-1.8-2.8-3.2.8-2.6 3.7-4.8.7-7.5-2 .3-3.1 1.7-4.3 3.3-.4-1.4-1-2.5-2.7-2.6-2.7 1.5-1.7 3.8-1 5.9h-.7c-2.6-2.6-4.1-2.6-5.5.2-.3.7-.5 1.5-.6 2.4-.2 1.8-1.8 3.4-2.7 3-2.5-1-6 1.2-7.8-2.3.7-.8 1.5-1.6 2.3-2.5.9-1.2 2-2.5 1-4-1.2-1.8-2.9-.3-4.6 0-.3-2-2.2-3.4-4.2-3.1-.1 0-.3 0-.4.1 1-4 .7-7.4-2.2-10.3-2.2-2.1-3-4.7-1.7-7.6.5-1.6.7-3.3.4-4.9-.2-2.6-2.6-5.1-4.6-5-2.9.1-3.8 2.4-4.2 4.7-.2 1.8-.3 3.6-.1 5.4.1 2-.3 3.6-2.4 4.5-.9-.7-.5-2.6-2.4-2.4s-1.9 1.8-2.5 3.1c-.6 1.3.5 2.6.1 3.8.1.8.1 1.6-.1 2.4-.2.5-.7.1-.8-.4-1.5.3-2.7-.7-3.9-1.2-.3-2 .5-3.7.7-5.5.4-2.5.9-5.3-1.5-7.5-1.5-1.4-3.6-.3-5.6-2.1-.2-5.7-1.8-11.1-10.3-10-2.1 1.8-2.2 4.9-2.3 7.7-.2 4.6 3.7 6.5 6.9 8.6-.8 1.2-1.3 2-2.5 2-.3-.5-.7-1-1.1-1.5-1-1.2-1.9-2.7-3.9-1.8s-3 2.2-1.8 4.6c.9 1.5.4 3.5-1.1 4.4-4.1 2.4-3.1 6.2-2.5 9.6.3 1.7 1 3.3.4 5.3-.6-.5-1.1-.9-1.6-1.3-2.9-2.7-4.7-5.8-2.8-9.8.6-1.2.5-2.6-.2-3.6-1.2-2.2-2.4-4.3-4.7-5.6-2.5-1.5-3.6-3.8-4.5-6.7-1.5-4.9-3-10.3-9.8-10.7-2.1-.1-3.8-1.6-4.1-3.7-.3-1.1-.8-2.2-1.4-3.1-1.4-2.4-3.7-4.1-6.3-3.9s-3.8 2.4-3.3 5.1c.1.6-.4 1.1-1 1.5-3.4 2.7-3.9 4.5-2.2 8.7.8 2 1.8 3.9.9 6.1-1.6-1.6-2.4-3.8-4.5-5-2.6-1.6-4.2.3-5.8 1.2-2.4-.9-3.5-2.6-5-3.9-1-.8-1.8-2.1-3.4-1.3s-2.7.1-4-.9c-1.8-1.4-4.2-.6-6.3-.7-3.1-.2-2.6 2.8-3.4 5.2-.8-2.7-.1-5.2-2.4-6.5l-3 .6c1.3-1.7 2.5-.8 3.4-1 1.4-1.3 3.6-2.6.4-4.4-.2-.1-.5-.7-.4-.8 2.9-3.9-1.6-7-1.1-10.7.1-1.1-.8-2.4-1.6-2-3 1.5-2.4-1.3-3.4-2.5 2.2-.7 3.7 2.3 5.9.4.2-3.9 0-7.7-.5-11.6s-.9-8.5-4.6-11.6c-1.4-1.1-3.3-1.5-4.1-3.1-3.4.9-4.7 3-5.9 6-1 2.4 1.1 2.7 1.2 4.1v.5l.5.1c.1-.3 0-.5-.2-.6l1.4.2c0 .3-.1.6-.1.9l-1.6-.6-2.8 3.1c0 3.4 6.4 1.2 4.5 5.9-3.7.7-3.7.7-3.6 5.6.6.8 1.5.6 2.3.6.8.1 1.7-.1 1.8 1.6-1.6 0-3.3-1.2-4.9-.1-.7.8 1.5 2.3-.1 2.4-2.7.2-2.6 2.6-3.8 3.9-1.8-3.3 1.6-4.6 2.6-6.6-.3-.6-.4-1-.7-1.1-2-1.4-3.8-3-6-3.9-1.8-.7-2.8-2.1-4.4-2.9-1-.6-7.2 1.8-8.1 3-1.6 2.1-3.1 4.2-4.6 6.3 1 1.1 1.6 2.5 1.6 3.9-.2 4.8 1.5 6.8 6.2 6.5 3.1-.3 6.1 1.4 7.6 4.2.9 1.8 2.3 3.4 4 4.5 2.8-1.5.2-4.9 2.8-6.2.9.6 1.5 1.5 1.6 2.6-2.6 2.7-2.1 2.4-.5 4.9 1.7 2.7 4.1 4.9 7 6.3-2.5.9-4.1 1.9-4.2 4.2 1 1 3.8 4.9 3.7 5.2-1.9.7-2.7-3.5-5.3-.9 1 4.3-.2 8.2-3.1 11.7-2.1-1.5-4.3 0-6.2-.4.1-1.8 1.6-3.3.2-5.1-1.8-.3-3.6-.1-5.3.4-1.4-2.1 1.2-4.3-.8-6.5-.8-.7-2.6.8-3.7-.6.4-1.1.7-2.3-.5-3.4-3.3.4-7-1-10 1.8.1.4.3.8.2 1-1.6 2.7 1.3 4.9.9 7.6-.3 1.8 2.9 3.1 5.1 2.4.7-.2.6-2.3 2.3-.6-1.2 1.7-.3 3.4 1.2 4.6 1.7 1.4 3.9-.9 5.7.1.6 1.8-1.5 1.8-1.5 3.5 1.5 2.4 2.4 5.4 1.1 8.5 6.2 2.2 22 2.8 27.9 1.1-3.5-2.8 2.2-5.9-.8-8.7-1.1-1.2-2 .4-3.5.1.6-2.6 1.1-5.2 1.7-7.9 2 .5 2.7 3.8 5.2 1.9v-11.2c-1.1 0-2.3-.3-3.3.6-.5-1.3-.1-2.9 1-3.8 1.5.4 1.9 1.8 2.7 2.8l2.8-1.2c-.2-2.6.4-5.1 1.7-7.3.7 4.9 3.9 6.8 8.1 6.9.8 2.9-1 5.8 1.1 8 1.9 2 4.8 1.6 7 2.3.7 2.9-1.7 5.1-.5 8 1.3 3.2 4.7 1.9 6.3 3.6.9 2.4-.9 4-1 5.9-1.8.2-3.6 1-4.2-1.7-.3-1.1-1.6-.8-2.5-.2-1.7 1-1.3 2.4-.7 3.9 7.4 1.1 14.9 1.5 22.4 1 .2-1.2.4-2.2.7-3.9 3.4 4.5 7.7 4.9 12 5 8.4.3 16.9.5 25.3.7 13.4.4 26.9 1.4 40.3 1.3 4.8 0 9.6.1 14.4.1 1.4 1.3 3.2.8 4.8.8 7.1.1 14.3 0 21.5.1 2.2 0 4.1-.2 5.1-2.3 3.8 3.2 3.8 3.2 9 3.2h12c-2-3.6 5.6-3.4 2.3-7.6-4.2-1.8-6.9 2.9-10.8 3.3zM306.3 431c-.8-1.6-1.2-2.7.4-3.5s2.9-1.4 4.1.6c-1.5 1.7-3.5 1.2-4.5 2.9zm5-9.2c-.9-1.2-.9-2.8-.1-4 .6 1.6.9 2.6.1 4zm.7 10.2c-.4-1.1 0-2.4 1-3 1.2.1 1.7 1.1 2.3 2-.9 1.6-2.2.2-3.3 1zm2.2-8.8c-.3-1.2.7-1.6 2.1-1.4.5 1.1.6 2.4.2 3.6-1.2-.2-2.1-1-2.3-2.2zm3.3 12.3c0 .2-.3.4-.5.6.3-.8-1-2.2.4-2.2s0 1 .1 1.6zm5.4-3.9c-.4 0-.9-.1-1.2-.5-.6-1.3.7-1.5 1.5-2.3.7 1.3.7 2.2-.3 2.8zm-25.5 30.8c-.7-.1-1.5-.5-1.2-1.3.3-.5 1.1-.4 1.4.4.1.2-.1.5-.2.9zm14.7 16.8c-.6-.8-.7-1.9-.2-2.7 2.1 1.4 2.1 1.4.2 2.7zm11.3 3.6c-5-4.3-5-4.3-4.4-10 2 1.5 4.9.3 6.7 2.7-1.3 2.2-2 4.7-2.3 7.3zm3.3-10.2c-2 0-2.1-1.1-1.9-2.2 0-.2.8-.7 1.1-.6 1.6.6.4 1.8.8 2.8zm.8-7.3c-1.7-1.6-1.7-1.6-.1-3.3.4 1.1.4 2.2.1 3.3zm1.1-39.6c-.5 2 1.7 3.1.7 5.1-2.2-.2-2.3-2.2-3.5-3.2.4-1.2 1.5-1.1 2.8-1.9zm-1.8 9.6c1-.8 1.8-2.3 3.3-1.3 1 .7.6 1.7-.1 2.9-1.5-.2-2.3-1.1-3.2-1.6zm2.1 6.8c-.3-1.1.4-1.8 1.4-2.2.6.8.5 1.9-.2 2.6-.2.1-1.1-.1-1.2-.4zm3.6 39.1c-.6.9-1.3 1.7-2.5 1.3-.8-1.5.8-2 1.1-3.4l1.4 2.1zm.7-76.2c.6 1 .7 1.7 0 2.6-.9-.8-.5-1.5 0-2.6zm2.6 4.5c-.2 2.4-1 3.2-2.9 3.3-.6-2.3 1.2-2.4 2.9-3.3zm-2.9 8.8c.4-4.1.4-4.1 3.5-2.3-.3 1.7-1.9 1.7-3.5 2.3zm2.6 47c-.3.3-.8.5-1.2.4-1.2-.6-.4-1.5-.3-2.4 1.1.3 2 .8 1.5 2zm1.5-19.6c.6.9 1.9.9 1.4 2-.1.3-1 .8-1.2.7-.7-.6-.6-1.4-.2-2.7zm-.7 7.8c-.7-.8-.9-1.9-.1-2.5 1.3-1 2.4-.4 3 1.1-.8.9-1.8 1.4-2.9 1.4zm42.3 23.2v2.5c-1.1-.1-.8-.8-.9-1.4-1.5-1.9-5.3-2-5-6.1 2 1.3 3.3 3.2 5.6 3.2.6 0 .3 1.1.3 1.8zm13.8-7.5c-1.5-2.3-.9-3.6-.2-5.3.9 1.7.6 3 .2 5.3zm7.2 13.5c-3.4-1.7-3-4.6-2.7-7.8 2.8 1.6 6.6 1.9 6.8 6.3l-4.1 1.5zm24.2-19.7c1.2.9 2.1 2.2 2.4 3.7-2.2-.2-2.8-1.3-2.4-3.7zm5 6.3c1-.8 1.9-.5 2.8-.1 0 1.9-1.1 3.5-2.8 4.3v-4.2zm1 17.8c.8-1.8 2.1-3.3 3.7-4.3.2 2.5-1.3 3.2-3.7 4.3zm56.8 3.6l-3.8.1c.4-.2.7-.5 1-.8.7-.3 1.4-.4 2.1-.3.4 0 .8 0 1.2-.1v-.2c-.3 0-.6-.1-.9-.2-.6-.3-1-.8-1.1-1.4.2-.5.4-1 .7-1.6 0 .9-.5 2 .8 2.5.2.2.4.4.5.6.7 0 1.4-.1 2-.3-.6.2-1.3.4-2 .5 0 .5-.2 1-.5 1.2zM300.9 483.6c.3-1.3.6-2.5.8-3.8.3-1.3-.4-2.6-1.7-3h-.1c-1.5-.4-2.5.5-3.1 1.7-1.1 1.7-1.5 3.8-1.1 5.8 1.3.5 2.7.5 4.1.1.1-.5.6-.8 1.1-.8z"/><path class="st73" d="M300.9 483.6c-.2.6-.7.7-1.3.8 1.5.3 3.1.8 4.9-.1-1.1-1.3-2.1-2.3-3.6-.7zM339.7 441.5v-.5c-.3.1-.6.2-.8.2.3.1.6.2.8.3zM444.5 465.7c-.7.4-1.1 1.2-.8 2 .9-.4.3-1.4.8-2zM338.4 458.9c.2 0 .4-.1.4-.3v-.1c-.6-.2-1.2-.5-1.8-.9.6.8 1.3.8 1.4 1.3zM378.6 476.7l-.9 1.1c.6-.2.6-.7.9-1.1zM942.2 481.4l-.1.1c1-.5 2.1-.8 3.3-1-.8-1.5-1.5-3-.9-4.7h-.8c1.1 2.2 1.2 4.2-1.5 5.6zM854.7 472.4c.5.4.4-.5.8-.7l-.8-1.1c-.1.3-.2.5-.3.7-.1.4 0 .8.3 1.1zM959.7 481.7l-1.4-.1c.2.4.3.9.4 1.3.6 0 .4-.9 1-1.2zM908.6 460v1.5c.8-.4.8-1 0-1.5zM840.1 473.2c.6 1.5-.2 2.8-.9 4.1 0 .2-.1.3-.1.4h.1c.6-1.4 2.2-2.8.9-4.5zM839.1 480.7c.6-1.2-.3-2 0-2.7h-.1c-.4.8-.4 1.8.1 2.7zM839.2 477.8l-.1.1c.2 0 .3-.1.4-.2l-.3.1zM839.1 477.7h-.4c.1.1.2.2.3.2l.1-.2zM941.7 481.8c-.2.2-.3.4-.3.6 0-.2.1-.4.3-.6zM1100.1 493.9c1.7-3.6 0-6.3-3-8.5-2.9-2-4.9-5-5.6-8.4-.9-3.6-3.4-6.5-7.8-6.3-1.7.2-3.4-1-3.7-2.7-.6-4.1-3.2-5.3-6.6-6.1-2.5 2.2-2.5 2.2-2.1 5.3-7.5 2.6-1 7.6-1.8 11.7-2.4-2.2-4.6-4.4-8-2.1-.8.3-1.6.2-2.3-.3-2-3.2-5.5-2.8-8.5-3.8-2.7-.9-5-.8-7.2.9l-1 .2c-.7-2.3-2.9-2-4.5-2.5 1.1-1.1 2.8.2 3.7-1.7-.7-1.7-.6-3.8-.9-5.8-.5-2.5-1.2-4.9-2.2-7.2-1.5.3-3 .5-3.8-1.3 1.4-1.7 2.5.4 3.8.4 2.1-5.3 0-15.1-3.7-19.4-2-2.3-3.9-3.4-6.6-2.1-1.9 2.9-1.9 5.9-2 9.1-.1 3.8-.7 3.8 3.1 3.8.1 1.2 1 2.7-1.3 2.7s-1.1 2.3-2 3.4c-.7.9.5 1.6 1.5 1.9.9-.4 1.7-.4 2.1.8-1 .6-1.5-.3-2.1-.5-2.5 1.2-2.3 4.6-5 5.9.1-1.1-.1-2.2.3-3 .5-.8 2.1-1 1.7-2.5s-1.7-1.8-3-2.1-2.3-1.3-3.2-2c-2.9-2.4-5.3-1.7-8.1 0-4.5 2.7-5.8 9.5-2.7 13.7.9 1.2 2.5 1.7 4 1.3 3.3-.6 5.5 1.4 6.8 3.5.9 1.6 2.4 2.9 3.3 2.9 2.4.1 3.5 1.7 4.6 3.1 1 1.1 2.1 2 3.5 2.6.2.2.4.4.5.6-.6 1-2.1 1.1-2.3 1.9-.5 3.2 3 3 3.7 5.1-1.9 1.1-3.2-1.7-5 .1-.2 3.1.3 6.7-1.7 9.8-2-.8-3.7-.7-5 1-1.4-1.7 1.2-3.3-.4-4.8-1.6-1.6-3.3 0-4.6-.2-1.5-1.6.8-2.7 0-4.3-1.1-2.5-3 .8-4.2-.7.8-1.7.3-3.3-1.5-3.2s-3.4-.2-5.2.4c-2.3.8-2.3 2.6-2.4 4.1-.4 6 6.5 5.4 8.6 9.2.4.8 1.4 1.1 2.2.7.1-.1.3-.2.4-.3.3-.2.6-.3.9-.3.5 0 1.1 0 1.4.3 2.7 2.7 5.8 1.9 8.8 1.1 1.4-.5 2.9-.5 4.3 0 2.3 1.1 4.5.5 6.6.5 1.3-1.6 0-3.6 1.4-4.8 1.4 0 2.5 2 4.2.3.1-3 .6-6.2-.9-9.3.9-.1 1.9.3 2.9-.8-.1-.7-.1-1.4 0-2.2.4-1 .8-1.9 1.3-2.9.6 1.4 1.6 2.6 2.8 3.4 1.4 1 3.3-.2 4.7.9-1.5 5.1-1.6 7.3 6.8 7.8-.5 2.5-1.5 5 0 7.5h12.6c.8-.8-1.2-.9-.3-2.1 6.3 3 13.6 3.2 20 .5 3.2 1.8 7 2.3 10.5 1.3 1.3-2.5-1.8-3.2-.8-5.5zm-88.5-29.8c.8-2.7 1.8-4 4.2-2.9-.7 1.7-2.1 2.2-4.2 2.9zm4.9-7.6c-1.5-.7-.3-1.7-.5-2.4.9.7.7 1.5.5 2.4zm1.2 6.7c-.1-.3 0-.6.2-.9 1.1-.5.9.8 1.8.8-1 .8-1.6.7-2 .1zm2.6-4.4c-.7-.8-2.1-.7-1.1-2.7 1 .5 1.9 1 1.1 2.7zm4.8 12c-.3.5-.9.7-1.4.4-.1-.1-.2-.1-.3-.2-1.4-1.3.6-1.8.5-3.4 1 1.2 2.4 1.7 1.2 3.2zm1.3-6.3c-.8-.2-1.6-.6-1.1-1.4.4-.6 1.2-.4 1.3.5 0 .3 0 .6-.2.9zm3.6 33c-.7-.1-1-.7-1.2-1.4 1.1-.4 1.7-.3 1.8.5.1.4 0 .9-.6.9zm1.3-5.8c-2-1-1.7-1.9 0-2.8.5.9.5 2 0 2.8zm4-45.6c.5.7.5 1.3-.3 1.6-.4.2-1.1.1-1-.5 0-.7.7-.9 1.3-1.1zm-5.2 13.3c.9.7 1.2 2 .5 3-1.6-1.4-1.6-1.4-.5-3zm.6 7c.1-.4.5-.7.9-.6h.1c.4.1.9.3.7.9-.1.5-.5.8-.9.9-.9.1-.9-.6-.8-1.2zm1.5 7.1c-.7-.7-.7-1.9 0-2.6.7.7.7 1.9 0 2.6zm1.6-23.4c.6-.6 1.6-.7 2.2-.1 1.5 1.3-.1 1.9-.8 2.6-.8-.6-1.3-1.4-1.4-2.5zm3.2 41.4c-.6-.4-.4-1.1-.1-1.6.8.1.9.7 1.2 1.3-.3.2-.9.5-1.1.3zm2.7-5.8c-1.7.7-2.2.1-1.9-1.7 1.4-.1 1.7.7 1.9 1.7zm-1.7-4.1c-.6-.6-.6-1.5 0-2.1.1-.1.2-.2.3-.2 1.1-.7 1.6.3 2.1 1.1-.6.7-1.2 1.5-2.4 1.2zm5.6-5.9c.4-.6.2.6 0 0zM987.2 488c-1.3 1.8-1.6 5-1 5.7 1.6 1.9.1 2.9-.4 4.1.3.3.6.5.9.9 1.5 2.2 3.5.9 5.3 1 .9.1 1.4-1 1.4-1.8-.1-2.5-.5-5-1.1-7.4-.9-2-2.4-3.8-5.1-2.5z"/><path class="st73" d="M976.7 498.6c-1.8-1.6-3.3.2-5 .4-1-3.9 2.5-5.7 4.3-8.3-2.9-4.4-6.9.1-9.9-1.4.3-.8.7-1.6 1-2.3 5.9-.5 6.6-.8 6.5-2.3-.4-2-2.5-1.5-3.2-2.4.3-1.3 1-2.4-.5-3.6-3 .1-4 3-5.8 4.8-1.5-.5-2-3.5-4.4-1.7-.4 1.2-.1 2.6.6 3.6-3.2 0-3.2 0-2.1-3.7.7-2 3.1-4.3-.6-5.9-3.3 1.6-3.7 5.2-5.5 7.7-3.5-3.4.6-5.5 1.5-8-1-1.9-2-1.9-3.6-.8-1.8 1.3-2.4-1.9-3.9-1.5-1.2.5-1.4 1.5-1.6 2.5 0 2 1.7 3.5 1.5 6h-4.3v.1h-.1l.2-.1-.2.1c.2.9.4 1.7.7 2.6-1 .5-2.2.5-3.2 0 .3-1.3 1.3-2.3 2.5-2.6v-.1h.1c.9-1.9 2.7-3.5 1.9-5.9-2.1-1-3.3.1-4.5 1.6-2.8 3.4-5.2 3.1-8.5-.9.9-.6 1.8-1.2 2.7-1.9s1.6-1.3 1.1-2.5c-.8-1.5-1.9-1.6-3.3-.7-.6-1.3-.6-3-2.3-3.6-1.5-.1-1.9 2.4-3.8 1.8-.9-1.6.4-3.7-1.2-5.2 1.5-1.1 3.7-1.8 2.4-4.5-3.8-1.6-5.9 2.8-9.3 2.8-.7-2-.2-3.5 1.8-3.9 1.7-.1 3-1.3 3.5-2.9-1.1-1.9-3.7-.3-4.2-3.2-.4-2.1-2.5-1.6-3.8.6-.8 1.4 0 3.3-1.2 4.5-.4 0-.9 0-1.3-.1-.5-.2-.9-.6-1.3-.7-2.2-.3-2.6.5-1.9 3.1.7.2 1.4.6 1.7 1.3-.5.4-1.1.4-1.7.3-1.6.4-2-.4-2-1.8 0-2.3.7-4.6-.6-6.9-4.4-.3-3.6 3.7-3.8 5.6-.3 2.5-2.9 3.4-2.7 6.1.2 2.4 2.4 4.5.6 7.3-1.6-3.3-4.5-3.1-7.6-3.3-3.3-.2-5.5 1.7-8.5 3.8-1.5-1.8-2.9-3.4-4.2-5-.8-1.1-2.1-1.7-3.4-1.6-4.8.1-9.6 0-13.7 0-2.1 1.9-1.8 4.1-2.3 6-1.7-.2-3.3-2.3-4.9-.1-.3 1.4 1.5 2.1 1.2 3.5-3.3-.2-3.6-.4-2.3-3.9 0-.3.1-.5.3-.7 0-1.8.1-4-2.6-3.8-2.2.2-2.2 2-2.4 3.7s.6 3.7-1.3 4.9c-2.8-1.3-2-3.5-1.1-5.4 1-2.1-.4-2.5-1.7-3.1-1.1.5-1.9 1.5-2.2 2.7-1.3-.3-1.8-2.6-3.7-1.2-1.9 1.5-.1 2.6 0 4 0 .1 0 .2.1.3-3.8-1.4-4.1-1.2-5 2.2-.8 3.2-1.6 3.7-5.6 3.5-.3 1.8-2.9 3.5 0 5.4.4-.7.7-1.2 1.1-1.8.5.6 1.7.9 1 1.9-1.3 2.1-.2 3.8.5 5.6.9 2 2.2 3.8 2.7 5.9 1 4 3.5 4.7 7.3 4.7 36-.2 72-.2 108 0 3.2 0 5.9-.3 7.6-3.3.2-.4.7-.5 1.1-.3 0 0 .1 0 .1.1.5 1-.5 2.3.6 3.2h12.3c1.7.4 3.4.5 5.1.1 2.7.8 5.5-.3 8.2.1.9.1.8-1.1.7-1.8-5.6-3.1-5.6-3.1-8.7.3zm-137.2-20.9c-.1 1.4.9 1.9 2.2 2.5-1.4 1-3.1.4-4.5 1.3.8-1.3-.1-3 1.5-3.8-.3-1.8.9-3.3 1.1-4.9h-.1l.1-.1v.1c1.4.7 2 2 2.8 3.2-.6 1.5-2.7.1-3.1 1.7zm8 10.1l-2.6-4.7c.7-.4 1.6-.6 2.4-.3.9 1.5.1 2.9.2 5zm8-5.5c-2.3 1.3-2.3-.8-2.8-2 .5-.9 1.4-.9 2.4-1.5.5 1.4 2.3 2.5.4 3.5zm2.7 8.1c-.6-3-.6-3 1.7-5 1.4 2.4.9 4-1.7 5zm6.3-5.8c-.6.2-.8-.3-.8-.8 0-.2.2-.5.4-.7l1 .9c-.2.3-.3.5-.6.6zm-.2-7.8c-1-2.2-.3-3.2 1.5-4.2 1.6-.9 2.7-1 3.8.8l-5.3 3.4zm42.9-7.2c-1.4-.7-1.6-1.9-1.5-3.7 3.5.8 3.5.8 1.5 3.7zm6.3 5.7c-1 .5-1.9 1.5-3.3.8.3-1.7.2-3.5 2.1-4.3 1.2.7 1.5 1.9 1.2 3.5zm33.5 17.3c-2-.7-.6-2.8-2.2-3.3 1.4-1.1 2.7-.5 4.5-.7-.5 1.6-1.3 2.9-2.3 4zm6.8-1.4c0-1.4.7-2 2-2.6 1.3.8.8 2.1 2.1 2.7-1.7.5-3 .8-4.1-.1zM985.6 497.8v-.1.1zM1037.9 455.9c-.1.7.6.4.8.7v-.9c-.2.2-.5.3-.8.2zM1028 455.2c-.1-.1-.2-.1-.3-.1v.3c.3 0 .4-.1.3-.2zM1437.2 486c-2.9-1.1-4.3 4.4-7.5 1.1-.2-1.6.4-3.4-.5-5-1.4-.4-2.3-.3-2.8 1.2-.4 1.2-1.4 2-2.7 2.1v-5c.2-1.3-.7-2.4-2-2.6h-.3c-2.1-.2-1.3 1.9-2.2 2.6-1.4-.9-2.8-.5-4.2.1-.8-2 1.4-4.9-2.1-5.8-2.8-.7-1.6 2.3-2.8 3-3.5-.9-3.8-.8-3.3 2 .2 1.2.2 2.2-.6 3-1-.7-1.5-1.9-2.9-1.8-1.2.1-1.7-.3-1.8-1.7.1-1.2-.8-2.2-2-2.3h-.6c-2 .3-2.2 1.7-2.2 3.3v5.8c-4.3-1.2-.8-4.8-2.4-6.6-2.8-.3-2.8-.3-4.2 2.2-1.2-.8-2.4-1.1-3.5-.1-.9 3.6 2.8 4.1 4.3 6.6-1.4.8-3.2 1.6-2.7 3.7-3.4.2-6.6-.8-9.8-.7s-3.7-1.6-3.9-3.8c-.2-2 .8-4 2.4-5.2 1.9-1.6 2-3.3 1.2-5.7-.6-1.7-1.8-3.1-2.4-4.6.8-.9 1.5-1.9 2.1-2.9.6-1.6-.9-4.6-2.3-4.9-2.2-.4-2.9 1.3-3.3 2.9-.2 1-.2 2.1-.2 3.1-5.4 1.1-6 5.3-6.2 9.7-3.6-.8-4.5-2.5-2.4-5.7 2.4-3.5 1.7-6.5-.5-9.5-2.1-2.7-3.2-5.6-2.6-9.1.6-2.8-.5-5.7-2.8-7.3-3.6-2.3-5.9-4.8-5.8-9.4.1-2.4-3.2-4.3-5.4-3.9-2.8.5-2.4 2.7-2.4 4.7 0 1 .3 1.9.7 2.8 1 1.9 1.2 4.1.6 6.1-1.2 4.1-.9 8.3 3.5 10.9 1.7 1 1.5 2.8 1.5 4.4-.1 1.6-.4 3.2-.7 4.7l-4.6-3.2v-2.3c0-3.4.1-6.8-4.6-7.4-1.5-.2-1.7-2-1.9-3.2-1.6-6.9-2-7.3-8.4-7.7-4.1-6.8-7.1-7.6-11.8-3.2 1.1 2.2.8 4.7 1.9 7 1.5 2.9 4.8 1.8 6.7 3.4-1.1 6.1-.6 6.7 7 8.5-1.8 6.2-1 7.5 4.7 9.1 1.3 1.9-.5 3.5-.5 5.3l-.8 1c-2.2-1.9-3.7-1.2-4.1 1.4-.3 1.7-.5 3.7.6 5.3.3.6.3 1.4 0 2-1.2-.8-2.4-1.5-3.6-2.3 1.1-1.4.8-2.8.9-4.1.1-1-.6-1.5-1.3-1.9-.9-.5-1.5.2-2.1.8-2.6 2.3-4.5 2.1-7.6-.9 1.3-1.8 1.9-3.7 0-5.6-1-1-2.5-1.1-3.6-.3-2.7 1.7-.2 3.8-.3 5.7-4.5 4.3-4.6 4.9-2.1 11 .5 3 3.5 4.7 3.8 7.8 5.8 0 11.4 1.2 16.5-2 1.4 2.6 3.5 2.4 5.8 1.8.3-.9-.5-1.5-.6-2.3 1-.6 2.4-.7 2.8 0 2.3 3.9 5.7 2.4 8.9 2.2 1.5-.1 2.9-.5 4.4-.5 11.8-.3 23.6-.4 35.4-.8 14.6-.5 29.2-1.4 43.9-1.3 1.1 0 2.3.4 3.4-.7-.8-1.6-.1-3.5-1.1-5zM1310.9 487.7c-1.8-1.3-3.1-3.1-2.1-5.1 2.1-4.3-.5-6.7-3.2-8.8s-4.4-4.1-5.2-7.4c-.6-2.9-2.1-6-5.4-6.5-3.8-.6-6.4-1.7-7.4-5.7-.7-2.6-3.1-3.1-5.4-3.4-1-.2-2 .5-2.4 1.5-.8 2.2-.5 4.4 1.4 5.9 2.1 1.7 2.4 3.8 2.4 6.2-.1 3.7 2.1 7.2 5.6 8.5 4.4 2 4.4 2.2 3.9 7.6-2.9.9-5.1-.3-5.5-3.1-.4-2.7-2-4-3.7-5.5-1.3-.4-2 1.6-3.3.5-1.5-1.2-1.8-3.1-2.8-4.6-1.5-2.1-3.4-4.3-6.1-3s-4.4.5-6-1.4c-1.7-2-3.4-1.8-5.7-.9-1.8.6-2.6 2.2-4 2.9-2.5-1.7-2.6-4.6-3.4-6.8-1.2-3-4-4.7-4.6-7.6-1.9-.6-4.5 1.5-4.9-1.9.3-.1.7-.3.9-.2 1 .4 2 1.3 3.1-.1 1.1-1.3.3-2.1-.3-3.1-1.1-1.6-2-3.3-2.7-5.2-.9-3.2-2.8-6-5.6-7.9-3.9-2.7-3.8-2.7-8.1.1-.9 3.1 1.3 5.8 1.1 8.9-.1 2.1.3 3.9 3.1 2.6 1-.5 1.2.4 1.5.7.4.4.5 1.6-.1 1.7-3.1.4-1.2 2.8-1.7 4.2.3 1.2 1.3 1.1 2.2 1.2 1.2-.5 2.4-.9 3.2 1.4l-3.2-.9c-1.7 1.4-.7 4.5-3.3 5.3-.7-1.8 1.6-3.8-.7-5.3-2.7.8-5.1-.7-7.7-1.2-1.2-.2-2-.5-3.1.2-5.7 3.4-7.2 10.9-1.8 15.7 1.6 1.4 3 1.7 4 1 3.5-2.3 6.2-.5 8.6 1.4 1.1.9 3 1.8 3.3 1.6 2.5-1.3 4.1.5 5.8 1.5 1.5.7 3.1 1.1 4.8 1.3-.4 1.5-2.7 2.2-1.4 4.4s2.9 1.1 4.5.6l-.2 2.6c-1.6.5-3.7-2.4-4.6.9 1.2 3.1 2.7 6.3 1.3 10-1.9-1.2-3.2 1.5-4.7.8-1.5-.8 0-2.9-1.8-3.4-1.8-.2-2.7 2-4.4 1.7-1.4-1.3.1-3.4-1.3-4.5-1.3-.6-2.1 1.3-3.4.4-1.1-.4-.5-2.2-2.3-2.6-.7 1.2-2.3 1.4-3.7 1.7-2.8.6-3.1 2.3-2.8 4.5.1 1.4 3.6 5.6 5 5.8.3 0 .8.2 1 0 1.8-2.1 3.5 0 5.3 0 3.5.1 7 0 10.5 0 1.4 0 2.5.2 3.4-1.8s4.2-1.7 5.3.2c.5 1.2 1.8 1.9 3.1 1.6 2.1-.4 4.3-.3 6.4.1-.5-2.3.6-4.9-3.2-4.1-1.1.2-1.9-.9-1.8-1.9.1-1.2-.5-2.6.3-3.7 3.2.4 4.8-1.1 3.3-3.4-1.3-2.1-1.2-4.5-2.8-6.5 3.9-.4.5-4 2.5-5.3 1.2.3 2.4.7 3.5 1.2 1.4.8 2.5-1 3.7 0 1.6 1.5.5 4.5 2.9 5.5 2.1.9 4.4-.2 7.2-.1-1.5 6.2 1.7 8 7 7.4.3 1.7 1.5 2.9 1.1 4.4-1.8 2.2-3.4.6-4.7-.3-2.9 2.1-2.1 4-.6 5.5 3.3 1.5 5.1-1.1 6.7-2 2.2.4.9 1.5 1.2 2.1 1.9 1 3.7-.6 5.6-.3 6.6 1.1 13.2.3 19.9.3.9 0 1.6-.4 2-1.2-.3-3.2-2.2-5.2-4.5-6.9zm-87.4-23.8c1-1.9 2.3-2.4 4.3-2.6-1 1.8-1.3 3.7-4.3 2.6zm6.3-8.2c.5.1.9.6.8 1.2 0 .1 0 .2-.1.2-.1.4-.6.6-1 .5-.1 0-.1-.1-.2-.1-.4-.3-.6-.7-.6-1.2 0-.4.3-.7.7-.7.2 0 .3.1.4.1zm-.5 7.7c-.3-.3-.5-.9 0-1.2 1.3-.8 1.5.6 2.4.8-.9 1.4-1.7 1.1-2.4.4zm12.1-22.2c.3 1.4-.4 1.9-1.3 2.5-1-2 .5-2 1.3-2.5zm-3.8 18.6c.6-.2.8.3 1 .8.1.5-.1 1-.7 1s-.9-.4-1.1-.9c-.2-.7.4-.8.8-.9zm-.4 9.2c-.7-1.4-.8-2.1-.3-2.9 1.2-.5 1.7.5 2.4 1-.2 1.1-1.2 1.3-2.1 1.9zm4.3-10.5l-3.2-1.2 2-1.6c.7.6 1.6 1.1 1.2 2.8zm.8-13.6c.5-.1.9 0 1.3.4.3 1.2-.5 1.8-1.5 2.2-.4-1-1-2 .2-2.6zm2.1 18.8c-1-.7-2.5-1.3-1.4-2.5s1.6.1 1.6 1.1c0 .5 0 .9-.2 1.4zm1.9 3.9c-.2.2-.8-.2-1.3-.3.3-.5.5-1.2 1.3-1.3.4.5.6 1.1 0 1.6zm2.3 18l1.5-1.6c.8 1.2.9 1.8-1.5 1.6zm2.8 5.8c-1 .1-1.1-.8-1.8-1.4 2.2-.5 2.2.3 1.8 1.4zm4.2-22.2c-1 .8-1.7.5-2.6.2.9-.9 1.6-.8 2.6-.2zm-1.8 3c.8-.5 1.5-.8 1.9.4.1.2-.1.8-.2.8-1.2.4-1.4-.5-1.7-1.2zm1.3 3.8c.7.6 1.1 1.5 1.2 2.4-1.4-.6-1.4-.6-1.2-2.4zm48.2 17.5c-2.9-1.3-5.9-2.3-5.3-6.8 5.5 1.2 5.8 1.5 5.3 6.8z"/><path class="st73" d="M1234.7 454.8c.2-1.1.4-2 1.3-2.4.2-.1.5-.1.7-.1h-.7c-1 0-1.6-.4-1.5-1.5-.8.4-1.4 1-1.8 1.8 1.6-.2 1.6 1 2 2.2zM1148 495.4c-.8-1.6-3.5-2.1-3.1-4 .7-2.9-.9-4.3-2.5-5.9-1.6-1.5-2.2-3.8-1.5-5.9.3-.6.5-1.2.7-1.9.4-2.8-1.6-5.8-3.8-6-2.4-.2-4 1.7-4.2 5-.1 1.9.6 3.9-.3 5.8-5.3-1.1-5.5-.9-5.6 4.6 0 .8.2 1.6-.4 2.3-3.3-.3-2.7-2.6-2.6-4.8.3-6.5.2-6.5-5.6-8.2-.6-.9-.9-2-1-3.2 0-4-3-4.3-5.6-5-1.9-.5-3.1.1-3.9 2.4-1.3 3.9.1 7 2.1 10-4.5.4-4.6.5-4 5.1.1 1-.2 2-.9 2.7-3.2 3.8-3.3 6.5-.4 10.8 15.7-1.2 31.5-.1 47.1-.7.4-.8.3-1.8-.2-2.5-1.3-1.4-3.1 1.7-4.3-.6zm-36.1-7c-.4.6-1.2.2-1.2-.6 0-.3.1-.6.3-.9.7.3 1.5.7.9 1.5zm.5-4.7c-.9-.9-1.7-1.6-1.7-2.9l.1-.1v.1h2.5c.8 1.4-.1 2-.9 2.9zm4.2 10.8c-1.3-.1-1.1-1.2-1.3-1.8-.4-1-.2-1.1 2.2-1.8.5 1.9-.7 2.6-.9 3.6z"/></g><path class="st1" d="M1920.7 500.1H.7v-31.4s487 30.6 960 30.6c474.3 0 960-30.6 960-30.6v31.4z"/></svg>