<?xml version="1.0" encoding="UTF-8" standalone="no"?>
<!-- Generator: Adobe Illustrator 22.0.1, SVG Export Plug-In . SVG Version: 6.00 Build 0)  -->
<svg id="Layer_1" style="enable-background:new 0 0 1920.3 500" xmlns="http://www.w3.org/2000/svg"  viewBox="0 0 1920.3 500" version="1.1" y="0px" x="0px" xmlns:xlink="http://www.w3.org/1999/xlink">
<style type="text/css">
	.st0{fill:transparent;}
	.st1{fill:url(#SVGID_1_);}
	.st2{opacity:5.000000e-02;}
	.st3{fill:#FEFEFE;}
	.st4{fill:#E8E7E7;}
	.st5{fill:#ECECEC;}
	.st6{fill:#D4D3D3;}
	.st7{fill:#EDEDED;}
	.st8{fill:#D8D7D7;}
	.st9{fill:#C2C1C1;}
	.st10{fill:#EAEAEA;}
	.st11{fill:#EBEAEA;}
	.st12{fill:#C8C7C7;}
	.st13{fill:#E8E7E8;}
	.st14{fill:#EFEFEF;}
	.st15{fill:#F0F0F0;}
	.st16{fill:#D5D4D4;}
	.st17{fill:#C3C2C3;}
	.st18{fill:#D4D3D4;}
	.st19{fill:#C4C3C3;}
	.st20{fill:#DBDBDB;}
	.st21{fill:#C4C2C3;}
	.st22{fill:#DAD9D9;}
	.st23{fill:#DDDDDD;}
	.st24{fill:#D6D5D5;}
	.st25{fill:#D9D8D8;}
	.st26{fill:#C6C5C5;}
	.st27{fill:#C5C4C4;}
	.st28{fill:#BBBABA;}
	.st29{fill:#DADADA;}
	.st30{fill:#DFDEDE;}
	.st31{fill:#E1E1E1;}
	.st32{fill:#B3B2B2;}
	.st33{fill:#C1BFC0;}
	.st34{fill:#EEEEEE;}
	.st35{fill:#B6B4B5;}
	.st36{fill:#D2D1D1;}
	.st37{fill:#C3C2C2;}
	.st38{fill:#D9D8D9;}
	.st39{fill:#B8B6B7;}
	.st40{fill:#DEDEDE;}
	.st41{fill:#DCDBDB;}
	.st42{fill:#D6D6D6;}
	.st43{fill:#B9B7B7;}
	.st44{fill:#CBCACA;}
	.st45{fill:#D9D9D9;}
	.st46{fill:#C9C8C9;}
	.st47{fill:#E2E2E2;}
	.st48{fill:#BCBABB;}
	.st49{fill:#D7D6D6;}
	.st50{fill:#BDBCBC;}
	.st51{fill:#B6B5B5;}
	.st52{fill:#C8C7C8;}
	.st53{fill:#CFCECE;}
	.st54{fill:#BEBDBD;}
	.st55{fill:#BEBCBD;}
	.st56{fill:#C1C0C0;}
	.st57{fill:#C0BEBF;}
	.st58{fill:#D4D4D4;}
	.st59{fill:#CAC9CA;}
	.st60{fill:#EBEBEB;}
	.st61{fill:#B4B3B3;}
	.st62{fill:#C9C8C8;}
	.st63{fill:#B8B7B7;}
	.st64{fill:#CCCBCB;}
	.st65{fill:#D1D0D0;}
	.st66{fill:#D3D2D2;}
	.st67{fill:#EDECED;}
	.st68{fill:#BAB9B9;}
	.st69{fill:#CECDCD;}
	.st70{fill:#CECDCE;}
	.st71{fill:#BCBBBB;}
	.st72{opacity:0.18;}
	.st73{fill:#003366;}
</style>
<title>Banner-shine</title>
<rect width="1920.3" class="st0" height="500"/>
	<path class="st1" d="m0.5-3.8h1920.3v472.3s-489.7 30.6-961.1 30.6c-422.1-0.1-959.2-28.2-959.2-28.2v-474.7z"/>
		<g class="st2">
			<path class="st3" d="m1391.5-3.5h250c4.9 4.1 6.6 10.3 9.5 15.6 20.2 37.2 40.5 74.3 60.8 111.4 23.6 43.1 47.3 86.2 71.2 129.1 23.2 41.6 46.5 83.1 70 124.6 21.4 37.7 42.9 75.3 64.5 112.8 1.2 2 2.4 4 2 6.5h-295c-2.1-1.1-3-3-3.9-5-12.7-28.8-25.7-57.4-38.7-86.1-9.6-21.1-19.2-42.1-28.9-63.1-11.4-24.8-22.8-49.6-34.3-74.3-7.7-16.6-15.5-33.2-23.2-49.8-16-34.1-32.1-68-48.1-102.1-7.2-15.2-14.4-30.4-21.7-45.5-11.1-23.1-22.3-46.2-33.1-69.4-0.8-1.4-1.9-2.9-1.1-4.7z"/>
			<path class="st3" d="m1260.5 496.5h-145c-1.5-1.4-2.6-3.1-3.2-5-20.5-48.7-41.5-97.1-62.8-145.4-16.2-36.6-32.5-73-49-109.5-12.7-28.1-25.5-56.1-38.4-84.1-15.7-34.5-31.8-68.9-47.8-103.3-7.3-15.7-14.8-31.3-22-47.1-0.8-1.7-2.3-3.4-0.8-5.6h93c2.2 1.2 3.4 3.2 4.5 5.2 14.6 27.7 29.5 55.2 44.5 82.8 17.6 32.5 35.3 65 53 97.5 15.9 29.3 31.9 58.5 48 87.6 15.8 28.6 31.7 57.1 47.6 85.6 18.4 32.9 36.7 65.7 55.4 98.4 6.6 11.6 13.1 23.2 19.7 34.8 1.4 2.6 3.7 4.8 3.3 8.1z"/>
			<path class="st4" d="m163.5 496.5h-58c-3.9-5.5-5.5-12.1-8-18.2-14-35.3-28.2-70.5-43.1-105.4-16.5-38.6-32.8-77.3-49.5-115.7-1.6-3.8-3.1-7.7-4.3-11.6v-78c3.2 0.2 3.7 3.2 4.8 5.1 9.5 17 19.1 34 28.6 50.9 11 19.9 22.3 39.7 33.4 59.6 2.1 3.8 3.6 7.8 5.3 10.3-12.1-23.9-23.1-49.7-35.1-75.2-11.2-24-22.2-48-33.5-72-1.4-3.2-2.6-6.4-3.6-9.7v-60c3.2-0.4 4.2 2.2 5.4 4.3 17.8 28.9 35.7 57.8 53.8 86.5 24.5 38.9 50 77 77.3 114 10.2 13.8 21 27.1 32.6 39.7 2.5 2.8 5.4 5.4 9.2 6.6 4.1 2.5 5.3 7.1 7.5 10.9 9.1 15.5 17.8 31.2 26.9 46.7 11.8 21 24 41.8 36.1 62.7 8.4 14.6 17 29 25.4 43.6 0.9 1.5 2.3 3 0.9 5h-86c-2.3-1-3.4-3-4.6-5.1-27.4-46.5-54.6-93-81.3-139.9-5.5-9.7-11.5-19.1-16.2-29.3-0.5-1-1.4-1.9-1.3-2.6 3.6 7.7 7.6 15.7 11.3 23.8 15 33.2 29.7 66.6 44.6 99.9 6.8 15.4 13.5 30.8 20.3 46.2 0.9 2.1 2.7 4.3 1.1 6.9z"/>
			<path class="st4" d="m891.5-3.5c1.3 3.3 2.5 6.8 4 10 4.1 8.8 8.5 17.5 12.6 26.3 7.2 15.3 14.4 30.7 21.5 46.1 6.2 13.4 12.3 27 18.7 40.3 6 12.5 11.5 25.1 17.3 37.7 5.3 11.6 10.6 23 15.9 34.6 6.7 14.8 13.5 29.6 20.2 44.5 6 13.3 12 26.7 18 40 5.7 12.6 11.3 25.2 16.9 37.8 6.5 14.6 12.9 29.1 19.4 43.7 4.8 11 9.7 22 14.5 33 4.8 11.1 9.5 22.4 14.3 33.5 4.5 10.6 9.3 21 13.8 31.6 5 12.1 10.8 24 15.2 36.3 0.6 1.5 1.8 2.8 1.8 4.6h-108c-1.1-1-2-2.2-2.6-3.6-12.8-29.1-26-58-39.2-86.9-9.5-20.7-19-41.4-28.5-62.2-0.8-1.7-2.2-3.5-0.8-5.6 2.5-0.9 3.6 1.1 4.9 2.5 5.4 5.7 10.5 11.6 17.4 15.6 1.5 1 3.2 1.8 5 2.4 4 0.9 6.4-0.5 7.4-4.5 2.2-8.5 0.8-17-0.9-25.3-5.8-29-14.8-57.1-24.6-84.9-7-20-13.9-39.9-21.7-59.6-10.5-26.7-21-53.4-31.7-80-12.2-30.1-25.3-59.9-37.3-90-1.3-3.3-3.2-6.2-4.5-9.5-1.1-2.7-2.9-5.3-1.9-8.5h42.9v0.1z"/>
			<path class="st5" d="m1686.5-3.5h29c8 12 15.3 24.6 23.2 36.7 21 32.6 41.8 65.4 65.5 96.2 8.7 11.4 17.7 22.5 28 32.5 2.3 2.4 5 4.4 8 5.8 4.3 1.9 6.4 1 7-3.7 1.1-7.5-0.2-14.9-1.9-22.2-9.2-39-23.3-76.4-37.8-113.7-3.3-8.5-6.6-17.1-10-25.6-0.8-2-1.9-4-0.1-6.1h28c4.5 5.9 6.6 13 9.6 19.6 15.6 34.4 30.4 69.1 45.2 103.9 12.5 29.4 25 58.8 36.6 88.5 0.8 2.5 2.1 4.9 3.8 7v158c-3.2 0.4-4.2-2.3-5.6-4.1-9.9-13-18.8-26.7-28-40.1-26.4-38.6-51.1-78.4-75.8-118.1-32.7-52.6-64-106-95.2-159.5-9.6-16.4-19.1-32.8-28.6-49.2-1.1-1.8-2.6-3.6-0.9-5.9z"/>
			<path class="st4" d="m1686.5-3.5c-0.3 4.2 3.1 6.8 4.8 10.1 3 5.8 6.5 11.4 9.8 17.1 3.6 6.3 7.3 12.5 10.9 18.8 3.3 5.7 6.7 11.3 10 17 4 7 8 14 12 20.9 4.9 8.4 10 16.6 14.9 25 7.4 12.4 14.8 24.8 22.2 37.3 8.2 13.7 16.2 27.4 24.5 41 3.8 6.3 7.8 12.6 11.8 18.8 6.6 10 12.7 20.3 18.9 30.6s12.8 20.3 19.1 30.4c9.9 15.7 19.9 31.3 30.1 46.8 9.9 15.1 20.1 30 30.4 44.8 3.7 5.2 7.5 10.4 11.3 15.5 0.8 1.3 1.9 2.3 3.3 2.9 0 40 0 80-0.1 120 0 1 1.2 2.6-0.9 3-4.7-9.3-10.2-18-15.4-27-4.6-8-9-16.1-13.6-24.1-4.7-8.3-9.6-16.5-14.3-24.8-3.3-5.7-6.4-11.5-9.7-17.2-5.1-9-10.3-18-15.5-27-4.8-8.5-9.5-16.9-14.3-25.4-5.2-9.2-10.4-18.3-15.6-27.5-3.6-6.3-7-12.7-10.6-19-5.9-10.5-11.8-20.9-17.7-31.4-3.9-7-7.7-14.2-11.6-21.3-6.1-10.9-12.4-21.7-18.3-32.8-3.7-6.8-7.5-13.6-11.3-20.3-7.1-12.7-14.1-25.4-21-38.1-4.4-8.1-8.6-16.3-13.2-24.4-6.7-11.7-12.7-23.8-19.7-35.4-2.3-3.8-4.1-7.9-6.3-11.8-5.5-9.9-10.7-20.1-16.1-30.1-7.2-13.2-14.6-26.2-21.8-39.4-4.2-7.6-8.1-15.4-12.1-23.2h45.1v0.2z"/>
			<path class="st4" d="m1391.5-3.5c5.4 11.1 10.9 22.2 16 33.4 3 6.6 6.3 13 9.5 19.6 7.5 15.8 15.1 31.5 22.6 47.3 6.1 13 12.3 25.9 18.4 38.8 5.9 12.4 11.7 24.7 17.5 37.1 5.2 11 10.3 22.1 15.6 33.1 7.4 15.3 14.4 30.7 21.5 46.1 4.5 9.7 9.2 19.3 13.6 29.1 6.1 13.5 12.3 26.9 18.6 40.4l11.4 24.6c6.1 13.1 11.8 26.4 17.8 39.6 1.9 4.2 3.8 8.4 5.7 12.6 5.9 13 12 26 17.9 39s11.9 26.4 17.8 39.6c2.9 6.6 5.6 13.3 8.9 19.8h-68c-1.6-1.7-1.6-4-2.2-6-10.6-36.5-23.4-72.2-36.9-107.8-17.5-46.1-36.1-91.8-55.2-137.2-15.3-36.4-30.9-72.7-46.8-108.8-18.5-41.9-37.3-83.6-56-125.5-1.5-3.4-3.4-6.5-4.5-10-0.5-1.5-1.6-3-0.3-4.7l37.1-0.1z"/>
			<path class="st6" d="m610.5 496.5h-79c-1.7-1-3-2.6-3.7-4.5-4.4-10.4-9.5-20.4-13.9-30.8-0.7-1.7-1.6-3.3-0.7-5.2 3.2-5.3 1-10.8 0.3-16-2.4-17.2-7.3-33.8-12.4-50.3-1.9-6.2-3.9-12.4-5.7-18.6-1.2-4.2-0.3-8.6 0.7-12.7 1-3.9 1-7.9-0.1-11.8-1.3-4.5-1.7-9.1-2.3-13.8-0.2-1.5-0.4-3 1-4.3 2.6-0.7 4.7 1 6.9 1.9 7.6 3 11.7 1 12.7-6.9 1.2-9.1 0.4-18.3-2.4-27-0.8-2.7-2.2-5.3-1.2-8.2 3-2.5 3.3 1 4 2.2 5.1 9.1 10.7 17.9 14.9 27.5 0.3 0.6 0.8-0.4 0.3 0.1-0.1 0-0.2-0.1-0.3-0.4-1.5-4.1-5-7.5-4.5-12.3 1.7-2.6 0.4-5.1-0.4-7.7-10.4-33.7-22.6-66.6-35.2-99.4-3-7.9-6.5-15.7-9.1-23.8-1.1-3.3-2-6.7 0.3-10.3 3.6 0.6 5.9 2.8 7.9 5.5 6.3 8.6 11.3 18 16.9 27.1 23.5 37.9 46.9 75.9 71.2 113.3 13.4 20.7 27.9 40.6 40.8 61.6 4.3 6.1 6.4 13.2 9.3 19.9 14.3 32.6 28.2 65.4 42.1 98.3 0.9 2.1 2.4 4.1 1.5 6.6h-39c-4.4-5.5-7.6-11.7-11.1-17.7-23.3-40-46.6-79.9-69.6-120.1-2.8-5-5.1-10.3-7.7-14.8 7.3 14.2 13.9 29.3 20.6 44.3 15.3 34.3 30.8 68.6 45.7 103.2 0.8 1.6 2.1 3.1 1.2 5.1z"/>
			<path class="st7" d="m1224.5-3.5h12c13.2 21.2 26.3 42.4 40 63.3 20 30.5 40.1 60.9 63.7 88.8 4.6 5.3 9.8 10 15.5 14.1 2 1.4 4.2 3.1 6.8 1.7 2.6-1.5 2.6-4.1 2.6-6.6-0.1-8.3-1.3-16.6-3.4-24.7-7.1-28.3-17.2-55.7-27.4-83-5.9-15.9-12-31.8-18.4-47.5-0.8-1.9-2.3-3.9-0.5-6.1h20c4.6 8.5 8 17.5 11.9 26.3 16.4 36.8 31.9 74 47.2 111.3 15.5 37.7 30.6 75.6 44.1 114.2 6.6 18.7 12.9 37.5 18.4 56.5 3.9 13.2 7.4 26.7 7.6 40.6 0 3.9 0.6 8.7-3.8 10.6-4.8 2.1-9-0.5-12.8-3.6-11.4-9.1-20.5-20.5-29.3-31.9-19.1-24.6-37-50.1-54-76.2-18.4-28.2-36.2-56.7-54.1-85.2-12-19.2-23.5-38.7-35.3-58.1-1.1-1.9-2.2-3.8-4.3-4.6-2.7-2-3.6-5.1-4.9-8-11.1-24-22.1-48-33.5-71.9-2.5-5.3-4.7-10.7-7.4-15.8-0.6-1.2-1.4-2.6-0.7-4.2z"/>
			<path class="st8" d="m1024.5-3.5h15c9.9 15.8 18.8 32.2 28.3 48.3 24.1 41.3 48.3 82.5 73.4 123.1 23.6 38.1 47 76.3 72.3 113.3 16.8 24.6 33.8 49.1 52.7 72.2 12.7 15.4 26.8 29.5 41 43.6 2.1 2 4.2 3.1 7.2 1.8 2.9-1.4 3.7-3.9 3.4-6.6-0.8-8.6-1.6-17.1-3.1-25.7-7.8-43.2-24.4-83.6-39-124.7-9.7-27.3-20.8-54.1-31.1-81.1-0.6-1.6-1.3-3.1-0.5-4.8 0.3-0.4 0.8-0.6 1.3-0.5 2.8 1.4 3.5 4.4 4.8 6.8 11.3 21 23.5 41.5 33.8 63 0.5 1.6 1.3 3.1 2.3 4.4 0.6 0.8 1 1.7 1.2 2.7 1.2 9.1 5.6 17 8.9 25.4 13.2 33.3 26.6 66.5 39.5 99.8 10.4 26.8 20.9 53.7 30.4 80.9 6.1 17.4 11.7 35 17 52.7 0.6 1.8 1.5 3.8 0.1 5.7h-55.9c-12.2-16.4-23.9-33.2-35.5-50.1-17.5-25.6-34-51.7-50.8-77.8-12.2-19-23.8-38.5-35.7-57.8-20.4-33.2-40.5-66.6-60.3-100.1-26-44.4-52-88.8-77.3-133.5-14-24.8-28-49.5-42.1-74.3-1.2-2.2-2.8-4.2-1.3-6.7z"/>
			<path class="st9" d="m1286.5 231.5l-1-2c-1.1-1.1-1.2-2.7-2-4-1.2-0.3-1.3-1.5-1.6-2.3-5.5-12.7-13.1-24.3-19.4-36.5-5.4-10.5-11.3-20.8-17-31.1-1-1.1-1.7-2.5-2.2-3.9-11-28.9-23.8-57-36-85.4-9.1-21-18.2-42.1-27.2-63.2-0.9-2-2.5-4.1-0.7-6.5h21c6.9 11.4 13.5 22.9 19.9 34.5 11.1 19.9 22.7 39.5 33.9 59.3 13.3 23.6 27.3 46.8 40.7 70.4 2 3.6 4 7.3 7.3 10 5.4 7.7 8.5 16.6 12.5 24.9 6.4 13.3 12.6 26.7 18.9 40.1 7.9 16.9 15.8 33.7 23.7 50.6 0.9 2 1.9 3.9 3.1 5.7 6.3 11.9 11.3 24.4 16.9 36.7 11.2 24.7 22.2 49.4 33.3 74.2 13.3 29.7 27.3 59.2 40.5 89 0.7 1.5 1.7 3 0.4 4.6h-16c-2.4-1.3-3.4-3.6-4.6-5.8-14.4-25.5-29-51-43.4-76.5-19.7-35-39.3-70-58.9-105.1-13.3-24-26.8-48-39.9-72.2-1-1.8-1.2-3.8-2.2-5.5z"/>
			<path class="st10" d="m1354.5-3.5c1 2.8 1.9 5.6 3.1 8.3 5.6 12.4 11.5 24.8 17 37.2 4.9 11 9.9 21.9 14.9 32.8 6.7 14.8 12.7 29.9 19.6 44.6 4.6 9.8 8.7 19.9 13.2 29.8 5.3 11.8 10.8 23.6 15.4 35.7 3 7.8 6.6 15.4 9.9 23.1 4 9.5 7.8 19.1 12 28.6 3.3 7.3 6.6 14.6 9.5 22.2 4 10.6 8.7 20.9 12.8 31.4 5.5 13.7 11.1 27.4 16.7 41 5.3 12.7 10.2 25.5 15 38.4 5 13.5 10.6 26.8 15.4 40.4 3.7 10.3 7.3 20.6 10.8 31 3.8 11.1 7.2 22.4 11 33.5 2 5.9 3.7 11.8 5.4 17.8 0.3 1.5 0.3 2.9 0.3 4.4h-56c-20.3-27.8-39.7-56.3-58.5-85.1-24.6-37.6-48.4-75.7-71.9-113.9-7.1-11.5-14-23.1-20.9-34.6-1.8-3.2-4.1-6.1-6.7-8.7-5.3-9.2-9.2-19.1-13.6-28.7-7.6-16.4-15.2-32.8-22.5-49.3-0.8-1.8-2.2-3.5-1.1-5.6 2.8-0.6 3.6 1.7 4.8 3.4 6.3 8.8 11.5 18.3 17.1 27.6 28.4 46.5 57.1 92.8 87.7 137.9 16.6 24.6 33.5 49 52.4 71.8 8.7 10.5 16.9 21.5 28.4 29.3 2.9 2 5.8 4.8 9.5 2.9 3.7-1.8 4-6 4-9.6-0.2-8.9-2.2-17.5-4.2-26.1-6.4-27.3-15.3-53.8-24.6-80.3-16.4-46.6-34.9-92.6-53.8-138.3-15.1-36.6-30.7-73.1-46.7-109.3-11.2-25.1-22-50.4-33.2-75.4-1.1-2.4-3.1-5-1.1-7.9h8.9v-0.3z"/>
			<path class="st4" d="m1260.5 496.5c-3.6-6.3-7.3-12.5-10.9-18.8-5.2-9.1-10.5-18.3-15.7-27.4-3.3-5.9-6.5-11.8-9.9-17.7-5.3-9.4-10.8-18.9-16.1-28.3-3.6-6.4-7.1-13-10.7-19.5-5.7-10.2-11.6-20.3-17.2-30.6-3.7-6.8-7.5-13.5-11.3-20.3-6.3-11.4-12.5-22.8-19-34.1-4.1-7-7.7-14.2-11.6-21.2-6.8-12.3-13.6-24.5-20.4-36.7-4.2-7.7-8.3-15.4-12.4-23-7.1-13-14.4-25.9-21.5-38.9-2.3-4.2-4.5-8.4-6.8-12.6-5.2-9.4-10.2-18.9-15.3-28.3-6.3-11.6-12.5-23.2-18.8-34.8-6.8-12.5-13.5-25-20.3-37.4-4.5-8.3-8.8-16.6-13.3-24.8-7.5-13.4-14.7-26.9-21.8-40.5-0.9-1.8-2-3.4-3-5.1h23c5.3 3.9 7 10.1 9.9 15.4 16.5 29.9 33.1 59.7 49.7 89.5 20.5 36.8 41.1 73.6 61.9 110.2 17.7 31.2 35.4 62.2 53.3 93.3 36 62.3 72.4 124.4 109.3 186.2 1 1.6 2.6 3.2 1.9 5.4h-33z"/>
			<path class="st11" d="m1345.5-3.5c0.4 5.6 3.5 10.2 5.7 15.1 6.3 14.1 12.5 28.2 18.7 42.4 3.8 8.7 7.7 17.4 11.4 26.2 4.1 9.7 8.6 19.2 12.7 28.8 3.7 8.8 7.4 17.6 11.3 26.2 5.5 12.1 10.2 24.5 15.2 36.8 1.2 3.4 2.7 6.7 4.3 10 3.7 6.7 5.6 14 8.7 20.9s5.8 14.3 8.8 21.4c3.8 8.7 6.8 17.7 10.3 26.6 3.1 7.9 6.3 15.8 9.4 23.8 3.7 9.6 7.3 19.3 11 28.9 7.5 19.9 14.5 39.9 21.1 60.2 3.7 11.5 7.3 23 10.2 34.8 1.5 5.8 3.3 11.7 3.9 17.7 0.6 6.4 3.2 12.5 2.4 19-0.5 3.8-1.2 7.5-4.2 10-3.8 1.3-6.9 0-9.5-2-4.9-3.9-10.4-7.2-14.3-12.1-7.7-9.5-16-18.4-23.5-28-9.6-12.3-18.8-24.9-27.9-37.6-5.8-8.1-11.6-16.3-17-24.7-7.3-11.2-14.6-22.3-21.9-33.4-6.4-9.8-12.8-19.5-19-29.4-8.7-13.8-17.2-27.6-25.8-41.4-2.9-4.6-6-9-8.9-13.6-5.9-9.7-11.6-19.4-17.5-29.1-4.3-7.1-8.8-14.2-13.3-21.3-0.5-0.9-1.3-1.6-2.3-1.9-2.3-0.8-3-3-3.9-4.9-8.5-18.4-16.8-36.8-25.3-55.1-1.5-3.2-3-6.3-4.5-9.4-0.8-1.8-2-3.6-0.4-5.5 2-0.1 3 1.3 3.9 2.7 7.3 12.3 14.6 24.6 22 36.8 4 6.6 8.1 13.1 12.2 19.7 8.7 14.1 17.3 28.3 26.2 42.3 7.7 12.2 15.9 24.1 23.6 36.3 8.1 12.8 16.4 25.4 25 37.8 9.1 13 18.6 25.8 27.9 38.8 5.7 7.9 11.7 15.5 18 22.8 6 7 12 14.1 19.5 19.7 3.5 2.6 7.2 4 11.7 2.6 3-5.4 2.2-11.3 1.6-17-0.7-6.3-2.4-12.5-3.7-18.7-1.1-5.8-2.6-11.4-4.4-17-3.2-9.3-5.6-18.7-8.6-28.1-2.3-7.2-4.7-14.3-7.2-21.4-3.1-9-6.4-17.9-9.7-26.7-3.7-9.8-7.5-19.6-11.3-29.4-3.3-8.7-6.7-17.4-10.1-26.1-3.5-8.8-7.1-17.6-10.7-26.4-3.3-8-6.6-16.1-9.9-24.1-2.3-5.6-4.7-11.2-7-16.8-2.7-6.4-5.3-12.7-8-19.1-3.5-8.3-7-16.6-10.6-24.9-3.9-9.1-7.5-18.2-11.7-27.1-3.1-6.6-5.5-13.4-8.9-19.8-2.4-4.5-3.6-9.5-5.8-14.1-0.2-0.7-0.2-1.3-0.1-2l10.2-0.2z"/>
			<path class="st12" d="m913.5 496.5h-68c-25.5-32.5-49.4-66.3-71.9-100.9-16-24.6-32-49.1-47.5-74-1.4-2.5-3.3-4.7-5.5-6.4-3.5-4.2-4.9-9.4-7.1-14.2-6.3-13.7-12.8-27.4-18.8-41.2-5.7-12.8-11.5-25.4-17.5-38.1-0.8-1.6-1.9-3.2-0.9-5.2 3.4-0.5 4 2.5 5.2 4.4 18.1 28 36 56.1 54.1 84 15.2 23.4 32.8 44.9 49.8 66.9 10 13.1 19.2 26.9 29.9 39.4 9.5 11.1 18.4 22.9 30.2 31.9 4 3 7.8 5.1 12.8 2.9 2.1-0.7 3.5-2.7 3.6-4.9 1.1-14.1-1.6-27.8-5.2-41.3-4.7-17.5-10.1-34.9-15.4-52.2-7-23.1-14.9-45.9-22.4-68.8-3.8-11.6-8.6-22.7-13-34-0.9-2.4-3.4-4.9-0.7-7.7 3.5 1 4.2 4.4 5.8 7 5.9 9.9 11.3 20.2 17.3 30.1 10.2 18.2 20.8 36.3 31.2 54.5 1 1.6 1.7 3.3 2.1 5 0.4 5.5 3.3 10.1 5.2 15 11.5 29.6 23.6 59 32.5 89.7 4.2 14.5 8.1 29.2 13.3 43.4 1.7 4.7 3.2 9.7 0.9 14.7z"/>
			<path class="st13" d="m670.5 496.5c-3.3-7.7-6.6-15.4-9.9-23.1-3.5-8.3-7.1-16.6-10.5-24.9-4.5-10.7-9-21.5-13.6-32.2-2.5-5.9-5.2-11.7-7.8-17.6-3.4-7.7-6.7-15.4-10-23-0.5-1.2-0.7-2.6-2-3.2-9.1-18-16.7-36.8-25-55.1-0.8-1.9-2.4-3.7-1.1-6 3.2-1.2 4 1.6 5.3 3.3 12.6 17.8 25.5 35.3 41.2 50.7 4 4 8.1 8 13 10.8 7.5 4.3 12.2 1.5 12.4-7.2 0.3-12.1-1.8-23.9-4.9-35.5-3.1-11.9-5.6-24-10.3-35.4-1.1-2.3-1.1-5 0.1-7.3 2.4-1.2 2.7 1.1 3.6 2.3 2.3 3.1 3.6 6.7 5.7 10 22.9 40.9 45.9 81.8 69.1 122.6 12.5 22 25.1 43.9 37.6 65.9 0.9 1.5 2.3 3 1.5 5l-94.4-0.1z"/>
			<path class="st6" d="m1293.5 496.5c-4.7-7.7-9.4-15.4-14-23.2-8.2-13.7-16.2-27.5-24.5-41.1-6.1-9.9-11.7-20.2-17.7-30.3-7.8-13.3-15.8-26.6-23.5-40-6.8-11.7-13.4-23.4-20.1-35.1-6.9-12-14-23.8-20.8-35.8-6-10.4-11.7-21-17.7-31.4s-12.1-20.8-18.1-31.1c-3.2-5.6-6.4-11.1-9.5-16.8-5-9.3-10.4-18.3-15.6-27.5-3.4-6-6.8-12-10.2-18.1-7.3-13.1-14.4-26.3-22-39.2-4.2-7.1-7.9-14.5-11.9-21.7-5.6-10.1-11.4-20-17-30.1-3.9-7-7.6-14.2-11.6-21.2-6.6-11.6-12.7-23.5-19.5-35-2.4-4.1-4.3-8.5-6.8-12.6-2-3.2-3.7-6.6-5.5-9.9h17c0.5 2.4 1.5 4.7 2.8 6.7 3.1 5 5.9 10.3 8.8 15.4 5.3 9.5 10.7 18.9 16 28.4 4.5 8 8.9 16.1 13.6 24 9.1 15.3 17.5 30.9 26.5 46.3 6.7 11.5 13.2 23.1 20 34.6 6.3 10.6 12 21.5 18.6 32 4.6 7.3 9 14.9 13.1 22.6 5.2 9.4 11 18.4 16.5 27.6s11 18.3 16.5 27.5c7.2 12 14.5 23.9 21.8 35.8 6.9 11.4 13.8 22.7 20.7 34.1 6.2 10.1 12.5 20.1 18.6 30.2 3.7 6.2 7.7 12.3 11.7 18.2 5.6 8.1 10.6 16.6 16 24.9 7.7 11.7 15.5 23.2 23.1 34.9 9.6 14.7 19.8 29 29.8 43.4 2.7 3.9 6.3 7.2 8.3 11.6 0.2 0.6 0.4 1.3 0.5 1.9h-33.9z"/>
			<path class="st10" d="m848.5-3.5c6.5 15.3 13 30.5 19.3 45.8s12.6 30.6 19 45.9c6.4 15.4 12.9 30.8 19.1 46.4 5.3 13.4 10.3 26.9 15.5 40.3 4.5 11.6 9.2 23.1 13.5 34.8 3.5 9.5 6.5 19.2 10 28.7 4.3 11.5 8.2 23.1 11.8 34.9 3.5 11.3 6.3 22.6 9.8 33.8 2.5 7.9 4.3 16.1 5.5 24.3 1 7 3.1 14.3 0.5 21.5-0.4 1.2-0.1 2.6-0.1 3.7-1 1.5-2.2 2.7-3.6 3.7-4.3 0.9-7.7-0.7-11.2-3-7.1-4.8-13.4-10.8-18.6-17.6-0.6-0.8-1.6-1.3-2.6-1.2-2.4 0.2-2.7-1.9-3.4-3.4-1.2-2.5-2.1-5-3.4-7.5-9.8-21.8-19.9-43.5-30.1-65.1-6-12.8-11.7-25.7-18-38.3-0.9-1.8-2.2-3.8-0.8-6.1 2.5-1.2 4.1 0.4 5.7 1.9 2.5 2.4 5.4 4.5 8.4 6.2 4.9 2.7 7.8 1.4 9.3-4.1 0.7-2.6 0.8-5.3 0.4-7.9-2.7-22.3-9.2-43.6-16.1-64.8-15.7-48.1-33.9-95.4-53.3-142.1-1.4-3.3-4-6.8-1.6-10.8h15z"/>
			<path class="st14" d="m1797.5-3.5c-0.6 3.4 1.4 6.1 2.5 8.9 6.2 16 12.8 31.9 18.6 48.1 4.2 11.7 8.8 23.3 12.8 35 3.9 11.4 7.6 23 10.8 34.6 1.8 6.6 3.4 13.3 4.9 19.9 0.7 3.3 1.6 6.7 1.4 10.2-0.2 2 0.1 4 0.6 5.8 0.9 2.9-0.8 5.7-1.4 8.6-0.4 1.9-2.2 2.3-3.7 2.8-5.2-1.2-9.2-4.1-13-7.7-7.8-7.4-15.1-15.4-21.6-24-6.2-8.3-12.7-16.3-18.5-24.9-7-10.3-14.6-20.2-21.4-30.7-10.2-15.7-20.7-31.2-30.7-47-7.6-11.9-14.8-24.1-22.3-36-0.7-1.1-1.1-2.3-1.1-3.6h82.1z"/>
			<path class="st9" d="m800.5 496.5h-23c-6.1-7.8-10.1-16.8-14.9-25.3-13.6-23.9-27-47.8-40.3-71.8-12.3-22.3-24.7-44.5-37.1-66.8-14.2-25.6-28.1-51.4-42.4-77-1.8-3.2-3.6-6.3-4.6-9.9-3.7-13-10.1-25-14.9-37.6-7-18.4-15.3-36.2-21.8-54.7-0.5-1.1-0.8-2.2-1-3.3-0.2-1.9 0-3.7 1.8-4.9 1.8-1.1 3.5-0.4 5.2 0.5 2.1 1.3 3.3 3.2 4.6 5.2 11.8 19.3 23.1 38.9 34.7 58.4 12 20.2 24 40.3 36.2 60.4 18.2 30.2 36.7 60.3 55.9 89.9 3.2 5 5.2 10.8 9.6 15 4.5 6.1 6.7 13.3 9.7 20.1 14.2 31.8 28.1 63.7 41.8 95.6 0.8 2.1 2.3 4 0.5 6.2z"/>
			<path class="st15" d="m1315.5-3.5c0.4 4.7 2.9 8.7 4.5 12.9 5.1 12.6 9.7 25.4 14.6 38.1 7.2 18.8 14 37.7 20.3 56.9 3.5 10.9 7 21.8 9.3 33 1.5 7 2.9 14.2 2.3 21.5 0.1 1.2-0.1 2.3-0.3 3.4-1.6 4.2-4.8 5.6-8.6 3.2-7.2-4.5-13.5-10.1-18.8-16.7-2.2-2.7-4.3-5.4-6.6-7.9-3.5-4-6.5-8.3-9.8-12.5-4.4-5.7-8.8-11.5-12.9-17.5-9.2-13.6-18.5-27.1-27.7-40.7-4.6-6.8-8.7-14-13.3-20.7-5.7-8.4-10.8-17.2-16.4-25.8-4.5-6.9-8.5-14-13.3-20.8-1.3-1.8-2.7-3.9-2.3-6.4h79z"/>
			<path class="st16" d="m0.5 245.5c3.5 3.9 4.7 9 6.6 13.6 2.8 6.7 5.9 13.2 8.6 19.9 3.5 8.7 7.4 17.2 10.9 25.8 3.3 8 7 15.9 10.4 23.9 3.2 7.4 6.2 14.8 9.4 22.2 4.9 11.2 9 22.8 14.5 33.8 2.8 5.7 5 11.8 7.4 17.7 4.1 10 8 20.1 12.1 30.1 6.6 15.9 13 31.9 19 48 1.6 4.3 3.4 8.5 5.3 12.7 0.5 1 0.7 2.2 0.7 3.3h-105v-99c4.1-1.3 5.5 2.2 7.4 4.4 7.4 8.7 14.7 17.6 23 25.6 3.3 3.3 6.9 6.3 10.9 8.7 6.3 3.8 10.1 1.5 10.4-5.9 0.7-14.9-3.5-29-7.1-43.1-10.9-42.6-26.2-83.8-41.5-125-0.8-2.3-1.9-4.6-3.1-6.8v-9.9h0.1z"/>
			<path class="st4" d="m1920.5 215.5c-1.8 0.1-2.5-1.1-3.3-2.5-2.1-3.6-3-7.6-4.6-11.4-4.9-11.6-9.3-23.4-14.2-35.1-5.3-12.7-11-25.3-16.3-38-6.3-15.3-13-30.5-19.3-45.8-4.6-11.2-9.5-22.4-14.5-33.4-6.8-15.1-13.5-30.3-20.2-45.5-1-2.4-1.8-4.9-2.7-7.3h45c4.3 5 6.5 11.1 9.3 17 8 17.2 16.3 34.2 24.4 51.3 4.6 9.8 8.9 19.7 14.1 29.2 1.3 2.4 1 5.2 2.3 7.5v114z"/>
			<path class="st17" d="m513.5 456.5c0.5 3.3 2.4 6.1 3.7 9.1 4.5 10.4 9.5 20.6 14.3 30.9h-18c-1.6-0.9-2.9-2.3-3.7-3.9-9.1-15.6-19-30.8-27.4-46.9-0.4-0.7-1-1.4-0.9-1.7 7.7 14.7 14.1 30.5 21.1 46.1 0.9 2 2.7 4 0.9 6.4h-52c-1.9-1.4-2.2-3.6-2.9-5.7-6-18.5-10.9-37.4-16.7-56-3.6-11.6-7.3-23.2-11.2-34.7-2.4-7.3-1.5-8.7 5.7-10.8 2.9-0.8 4.3-2.4 4.3-5.2 0-7.9 1.8-16-2-23.6-0.8-1.7-0.8-3.7 0-5.4 2.5-2 3.1 0.7 3.9 1.9 3 4.6 5.7 9.4 8.4 14.2 9.3 16.3 19.1 32.4 27.3 47.3-5.6-11.3-11.2-24.5-17.2-37.6-0.7-1.4-1.6-3-0.7-4.7 2.6-1.1 4.4 0.8 6.3 1.9 5.7 3.1 9.4 1.5 11.1-4.8 0.5-1.7 0.1-3.7 1.9-4.9 1.9-0.1 2.9 1.5 4.3 2.3 5.3 6.4 7.6 14.3 11 21.7 8.4 18.5 17.2 36.7 25.4 55.2 1.4 2.9 3.1 5.6 3.1 8.9z"/>
			<path class="st5" d="m178.5 328.5c-0.8-0.1-2 0.2-2.4-0.3-2.7-2.9-6.7-4.2-8.7-7.9-0.8-1.3-1.8-2.4-2.9-3.3-5-4.8-9.1-10.4-13.5-15.8-6.4-7.9-12.7-15.9-18.6-24.2-5.4-7.8-11.2-15.4-16.8-23.1-8.3-11.6-16.2-23.6-24.3-35.2-4.1-5.9-7.9-12.1-11.8-18.1-4.7-7.3-9.5-14.6-14.2-21.9-3.6-5.7-7.2-11.3-10.8-17-4.6-7.4-9.1-14.8-13.7-22.2-7.7-12.4-15.4-24.8-23.1-37.3-4.5-7.5-9.4-14.7-13.6-22.3-0.8-1.5-2.1-2.7-3.6-3.4v-69c2-0.3 2.5 1.4 3.1 2.6 11.9 22 24.1 43.7 35.9 65.7 1.9 3.5 4.1 6.9 5.8 10.5 14.5 26.5 29.2 53 43.9 79.5 12.2 21.8 23.9 43.7 36.1 65.5 17.1 30.5 34.2 60.9 51.5 91.3 1.1 1.7 2.6 3.5 1.7 5.9z"/>
			<path class="st6" d="m930.5 327.5c1.6 1.8 2.4 4 3.2 6.2 0.6 1.7 1.1 3.7 2.8 4.8 1.4 3.5 2.5 7.1 4.2 10.4 5.8 11.1 10.4 22.7 15.8 34 5.5 11.5 10.7 23.3 16 34.9 6.4 14 12.7 28.1 19.1 42.2 5.3 11.7 10.5 23.3 15.7 35 0.1 0.5 0.2 1 0.2 1.5h-31c-2.1-1.1-3-3-3.9-5-14.9-33.9-30.7-67.3-46.1-100.9-11.7-25.4-23.6-50.8-35.4-76.1s-24-50.6-35.6-76c-1.8-4-4.6-7.4-6-11.6-1.3-3.9-3.4-7.4-5.2-11.2-0.8-1.6-1.8-3.2-1.5-5.1 0.8-2 2-1.4 3-0.4 1.6 1.7 3.1 3.5 4.3 5.5 9.4 14.3 19 28.5 28.8 42.6 14.6 20.7 28.9 41.5 45.3 60.8 2.3 2.7 3.9 5.9 6.3 8.4z"/>
			<path class="st5" d="m833.5-3.5c-0.3 3.6 1.2 6.9 2.6 9.9 8.1 17.9 15 36.4 22.1 54.7 6.4 16.6 12.8 33.3 18.5 50.2 2.6 7.8 5.8 15.3 8.3 23.1 3.7 11.6 7.3 23.3 11 35 3.4 10.9 5.8 22.1 8.4 33.2 1.1 4.8 1.8 9.6 1.9 14.5 0.1 3.6-0.2 7.9-3.6 10.9-1.5 1.3-2.9 2-4.9 1.2-4.4-1.7-8.5-4.4-11.8-7.8-1.5-1.5-2.8-3.5-5.4-2.9-3.3-1.7-4-5.2-5.3-8.1-2.7-6-5.6-12-8.5-17.9-2.7-7.4-6.5-14.2-9.9-21.3-10.8-22.5-21.3-45.1-32.1-67.7-0.9-1.9-3-3.9-0.9-6.3 4.1 0.7 5.7 4.7 9.2 6.4 6.2 3 8.1 2.2 8.1-4.8 0-12.4-2.5-24.4-5.6-36.3-5.2-19.8-11.5-39.2-18.4-58.5-0.8-2.4-2.5-4.9-0.6-7.6l16.9 0.1z"/>
			<path class="st18" d="m275.5 496.5c-0.7-4-3.4-7.1-5.4-10.5-7-11.7-13.8-23.5-20.6-35.4-6.5-11.3-13.4-22.3-19.7-33.6-5-9.1-10.4-17.9-15.5-27-0.8-1.4-1.9-2.8-1.9-4.5 0.6-3-1.8-4.9-2.7-7.3-0.7-2-2.1-3.8-1.6-6.5 8.6-5 8.6-13.1 7.1-21.7-2.4-13.9-5.6-27.7-9.6-41.3-1.8-6.4-1.4-7.3 3.2-9 2.6 0.2 3.5 2.2 4.6 4.1 34.5 62 69.4 123.7 104.9 185.1 1.4 2.4 3.5 4.5 3.1 7.6h-45.9z"/>
			<path class="st19" d="m747.5 375.5c-1.3-0.5-2.3-1.4-2.9-2.6-11-19.8-23.9-38.4-35.8-57.7-7.4-12.1-15-24-22.1-36.2-7.5-12.8-15.4-25.3-23-37.9-8.2-13.7-16.1-27.5-24.2-41.3-5.4-9.2-11.3-18.1-16.5-27.4-4.3-7.6-8.3-15.3-13.3-22.5-1.4-2.2-3.6-3.8-6.2-4.4-2.8 1.6-2.3 3.8-1.5 6.1 5.3 14.1 10.9 28.1 16.9 42 3.9 9 6.9 18.4 10.9 27.4 3.3 7.7 6.7 15.3 9.6 23.2 0.1 0.5 0.2 0.9 0.2 1.4-2.5 0.4-3-1.7-3.8-3.1-1.4-2.5-2.5-5.1-4-7.5-10.9-19.9-21.7-40-32.7-59.9-1.1-1.8-2-3.8-2.5-6-0.1-2.8-1.5-5.4-3.8-7-1.2-1.2-2-2.8-2.2-4.6-0.2-5.4-3-9.9-5-14.6-6.3-15.6-12.3-31.3-18.9-46.8-3.1-7.3-5.9-14.9-8.3-22.5-0.5-1.1-0.6-2.3-0.5-3.4 0.5-2.4 1.7-4.4 4.1-5.3s3.7 0.8 5.1 2.3c10.2 10.9 18.4 23.2 25.9 36 14.2 24.3 27.8 48.9 42.3 73 14 23.2 27.1 47 41.6 70 1 1.6 1.9 3.2 3.5 4.2 5.6 6.7 9 14.7 13.2 22.2 12.9 22.9 25.3 46 38.3 68.9 2 3.6 3.3 7.6 5.6 10.9-6-10.9-10.6-22.5-16-33.8-0.6-1.4-1.1-2.8 0.2-4.2 2.8 1.2 4 3.9 5.5 6.2 7.2 11.2 14.3 22.5 21.5 33.7 10.2 15.9 20.5 31.7 30.8 47.6 6.9 10.6 14 21.1 21.2 31.5 8.4 12.1 16.8 24.4 25.7 36.1 5.2 6.8 10.8 13.3 15.9 20.2 1.5 2 3.7 3.9 3.4 6.9h-28c-5.1-5.8-8.2-12.9-12-19.5-17.3-30.3-34.4-60.7-51.4-91.2-2.2-4-4-8.3-6.4-12.2 0.2 0.5 0.2 1.3-0.4 1.8z"/>
			<path class="st20" d="m1049.5-3.5h6c6.1 8.1 11 17.1 16.2 25.8 25.4 42.1 51.8 83.5 78.5 124.7 15.9 24.6 33 48.4 50.1 72.2 7.8 10.9 17.1 20.9 25.8 31.1 4.2 4.9 10.7 5.8 16.9 6.2 2.6 0.2 4.6-3.6 3.6-7.5-1.3-4.9-1.3-9.9-2.4-14.8-4.7-21.1-10.5-42-17.4-62.5-7.8-23.7-16.1-47.3-25.4-70.5-9.2-22.9-17.8-46-27.4-68.7-1.3-3.1-3.4-6.2-2-10 2.5-0.8 3.3 1.2 4 2.7 8.5 17.3 17.8 34 27 50.9 0.7 1.3 1.2 2.7 1.4 4.2 1.8 9.9 6.6 18.9 10.4 28 10.6 25.6 20.4 51.4 29.7 77.4 9.2 25.7 18.4 51.5 25.6 77.8 3.8 13.6 6.2 27.6 7.4 41.7 0.5 6.7-1.3 9.4-6.3 11.7-3.5 1.6-6.1 1.2-9.1-1.4-10.2-9-19.6-19-28.2-29.6-20-24.6-37.7-50.9-55.6-76.9-14.2-20.6-27.7-41.9-41.1-63.2-17.4-27.8-34.5-55.8-51.7-83.8-11.9-19.4-23.3-39.3-35-58.9-0.8-1.8-2.9-3.9-1-6.6z"/>
			<path class="st6" d="m1286.5 231.5c4 5 6.5 11 9.7 16.5 6.8 12 13.2 24.3 20.2 36.3 4.3 7.4 8.1 15.1 12.3 22.6 5.8 10.4 11.7 20.6 17.5 30.9 3.4 6 6.8 12 10.1 18.1 5.6 10.1 11.3 20.1 16.9 30.1 3.8 6.8 7.6 13.5 11.3 20.3 5.1 9.2 10.4 18.3 15.6 27.5 4.5 8 8.9 16.1 13.5 24.1 5.1 9 10.4 17.9 15.5 27 2.2 3.9 4.3 7.8 6.4 11.7h-52c-2.8-10.6-6.5-20.9-9.5-31.4-2.3-8-5.2-15.8-7.8-23.7-3-9.1-6.2-18.3-9.8-27.3-3.7-9.4-7.3-18.9-10.8-28.4-2.8-7.9-6-15.6-9.1-23.3s-5.9-16-9.1-23.8c-5.8-14.2-11-28.8-17.1-42.9-4.7-10.8-8.5-22-12.8-32.9-2.8-7-6-13.8-8.6-20.9-1.3-3.3-3-6.7-2.4-10.5z"/>
			<path class="st21" d="m843.5 210.5c0.9 4.2 3.7 7.6 5.2 11.5 0.6 1.5 1.8 2.7 1.8 4.5-3.8 2.6-3.4 5.8-1.8 9.6 13.3 31.9 26.8 63.8 40 95.8 14.4 35.1 28.3 70.4 41.5 105.9 2.6 7 5.3 14 7.9 21 0.8 2 1.8 4 0.9 6.2-2.4 1.6-2.6-0.6-3.2-1.4 4.7 8.8 8.5 18.6 12.8 28.1 0.6 1.5 1.8 2.9 1 4.7h-36.1c-0.7-5.5-0.6-11-2.9-16.3-2.7-6.3-4.7-12.9-5.9-19.6-1-5-2.5-9.8-4.5-14.4-3.8-9.1-5.5-18.8-8.5-28.1-2.1-6.4-4.5-12.6-6.9-18.9-3.3-8.9-7.2-17.5-10-26.6-2.3-7.5-5.8-14.6-8.8-21.9-1.8-4.3-3.7-8.4-5.3-12.7-0.5-1.3-0.2-2.9-0.3-4.4 2.6-0.1 2.7 2.5 4 3.7 19.6 34.4 40 68.4 56 97-3.8-7.5-9.9-21.5-16.2-35.4-11.5-25.3-23.1-50.5-34.6-75.8-2.8-6.2-5.6-12.4-8.6-18.6-1.2-2.5-2.6-5.1-2.4-8 0.5-2.3-0.5-4.3-1.2-6.3-7.1-18.1-14-36.3-21.6-54.2-5.9-13.9-11.7-27.9-17.5-41.9-1.5-3.6-2.7-7 1.2-10.3 2.3-1.9 0.2-5.1 0.6-7.7s-0.3-6 4.1-6c3.4 3.1 4.7 7.5 6.5 11.5 3.3 7.2 6.8 14.3 10.3 21.4 1.4 2.5 2.2 5 2.5 7.6z"/>
			<path class="st4" d="m1343.5 253.5c4.4 4 7.1 9.4 10.1 14.4 8 13.2 15.9 26.5 24.2 39.5 6.7 10.5 13 21.4 19.7 31.9 5.5 8.6 10.4 17.5 16.1 26 4.7 7 9.3 14 13.8 21 14.8 23.5 30.3 46.5 45.9 69.5 8.1 12 16.3 23.9 25.3 35.2 1.4 1.5 2.1 3.4 2 5.5h-49c-1.7-4.1-3.3-8.2-5.1-12.2-5.6-12.4-11.4-24.8-17.1-37.2-5.6-12.2-11.3-24.4-16.8-36.7-7.2-15.9-14.3-31.8-21.4-47.7-4.7-10.5-9.4-21-14.2-31.5-5.7-12.2-11-24.6-16.5-36.9l-0.9-1.8c-4.9-11.3-10.2-22.3-15.2-33.6-0.8-1.6-2.6-3.3-0.9-5.4z"/>
			<path class="st22" d="m44.5 86.5c-1.5-2.3-3.1-4.6-4.4-6.9-7.2-13.2-14.1-26.4-21.4-39.5-5.8-10.6-11.9-21.2-17.4-32-0.1-0.3-0.5-0.4-0.8-0.6v-11h43c4.1 3 5.5 7.9 7.8 12 13 24.2 26.3 48.3 39.2 72.5 9.5 17.8 19.1 35.5 28.7 53.2 0.8 1.3 1.4 2.7 1.7 4.1 0 0.5-0.1 1-0.4 1.4-3.9 1.1-5.6-1.9-7.8-4.1-10.6-10.9-19.1-23.5-27.7-35.9-0.4-0.7-1.1-1.1-1.8-1.1-0.8 1.8-0.3 3.8-0.5 5.7-0.6 7.4-5.7 10.4-12.2 6.7-4.3-2.5-8.6-5.3-11.7-9.2-4.4-5.5-9.6-10.1-14.3-15.3z"/>
			<path class="st23" d="m1172.5 22.5c0.3 5 2.7 9.4 4.5 13.9 8 19 15.4 38.3 22.9 57.5 6.4 16.5 12.8 33 18.8 49.6 4.5 12.3 7.8 25 12.7 37.1 3 7.6 3.7 15.9 6.5 23.6 3.8 10.5 6.2 21.3 8.3 32.2 0.8 4.1 1.1 8.4 2 12.6 0.6 3.2 0.2 7.3-3.6 9.4-4.4-0.6-8.7-1.6-12.9-3-3-1-5.6-2.8-7.6-5.1-3.9-4.7-7.5-9.6-11.5-14.2-6.9-7.9-13.9-15.7-19.5-24.8-4.3-7.1-10-13.4-14.8-20.3-8-11.4-15.9-22.9-23.6-34.6-4-6-7.8-12.2-11.7-18.2-4.2-6.5-8.6-12.8-12.8-19.3-9.4-14.8-19-29.5-28.1-44.6-6.8-11.3-14.1-22.2-21-33.4-5.5-8.9-10.8-18.1-16.2-27.1-2.2-3.7-4.6-7.2-6.8-10.9-1.2-2-2.6-3.8-2.8-6.2h6c5 6.2 8.7 13.4 12.8 20.2 21.1 34.4 42.7 68.7 65.4 102.2 16.4 24.1 33.1 48 51.1 71 5.7 7.2 13.7 11.5 20.6 17.3 2.6 2 5.9 2.7 9.1 1.9 1.4-1.3 1.9-3.2 1.3-5-2.6-11.7-3.8-23.5-6.7-35.2-8.2-32.7-19.9-64.2-31.2-95.8-8.5-23.7-18.5-46.8-28-70.1-0.8-2.1-2.3-4.2-0.5-6.6h4c1.2 0.6 2.1 1.6 2.8 2.8 3 6.3 6.6 12.3 9.8 18.6 1 1.3 2.1 2.8 0.7 4.5z"/>
			<path class="st24" d="m0.5 255.5c4.6 2.1 4.5 7 6 10.8 8.6 22.6 16.7 45.4 24.2 68.4 5.4 16.3 10.6 32.6 14.9 49.1 2 7.6 3.7 15.2 5.5 22.8 2.1 8.6 2.9 17.6 2.4 26.5-0.3 4.9-3.7 7.4-8.4 6.2-2.4-0.6-4.6-1.8-6.5-3.4-7.1-6-14-12.1-19.8-19.5-2.6-3.4-5.8-6.3-8.6-9.6-2.3-2.6-4-5.7-6.7-7.9-0.9-0.7-1.7-1.6-3-1.5v-141.9z"/>
			<path class="st25" d="m823.5 97.5c0.1 0.6 0.2 1.3 0.5 1.9 4.8 9.9 9.7 19.8 14.4 29.7 6.8 14.2 13.6 28.4 20.1 42.8 2.5 5.4 5 10.7 7.7 16 0.7 1.5 1.6 2.9 1.3 4.7-2.8 0.8-3.9-1.4-5.2-2.9-14.8-17.3-28.5-35.5-41.6-54.1-11.1-15.7-21.3-32.1-32.7-47.7-1.7-2.3-3.5-4.4-6.2-5.7-3.3-3.2-4.7-7.6-6.6-11.6-10.2-21.6-20.7-43.1-31.2-64.5-1.4-2.9-4.4-5.7-2.5-9.6h33c1.6 1 2.8 2.4 3.5 4.1 14.7 29.6 28.5 59.7 43 89.4 1.2 2.4 2.6 4.7 2.5 7.5z"/>
			<path class="st26" d="m432.5 496.5h-38c-3.2-3.2-5.2-7.3-8-10.8-17-22-36.1-42.1-53.6-63.6-5.8-7.1-10.3-15.1-16-22.3-1.8-2.2-3.6-4.4-6.2-5.7-3.7-3.7-4.8-8.7-6.8-13.2-6.8-15-13.5-30.1-20.2-45.1-0.5-1.7-1.4-3.3-0.6-5.1 3.1-1.1 4 1.6 5.3 3.2 11.7 15.1 23.6 30 35.4 45 5.2 6.5 11.2 12.3 17.8 17.4 4.2 3.2 7.5 7.1 13.3 8 2.9 0.4 5 3.2 6.5 5.9 6.5 11.9 18.1 18.8 26.8 28.6 2.1 2.4 4.7 2.3 7-0.1 0.9-1 1.9-1.9 3.4-1.8 2 0.6 2.8 2.2 3.7 3.8 9.6 17 19.5 33.8 29.3 50.7 0.9 1.7 2.3 3.2 0.9 5.1z"/>
			<path class="st25" d="m1244.5 155.5c0.6 5 3.2 9.2 5 13.8 4.9 13 9.9 26 15.1 38.9 3.2 7.9 6.6 15.8 9 23.9 2.6 8.6 6.5 16.8 9.4 25.3 5.8 17 12.1 33.9 17.8 50.9 3.8 11.1 7.2 22.4 10.3 33.7 1.2 4.2 1.3 8.7 2.3 13 1.8 7.5 3.3 14.9 5 22.4 0.1 0.8 0.1 1.7 0.1 2.5 0.3 3.9-0.6 7.9 0.8 11.8 0.8 2.2-1.4 4.3-1.1 6.6-2.2 1.3-4.6 1.5-6.3 2.9-2.1-0.5-4.1-1.7-5.4-3.4-4.1-4.6-9.2-8.2-12.5-13.5-0.2-0.3-0.5-0.5-0.7-0.7-8.3-5.6-14-13.7-20.3-21.3-2.8-3.5-6.2-6.4-9-10-8.1-10.6-16.5-20.9-24.4-31.7-10.4-14.2-20.3-28.7-30.1-43.2-7.9-11.5-15.7-23.1-23-35-6.3-10.4-12.9-20.6-19.4-30.9-9.2-14.8-18.5-29.5-27.6-44.4-9.1-14.8-18.4-30-27.5-45-5.7-9.4-11-19.1-16.8-28.5-7.2-11.8-14.2-23.7-21.1-35.6-7-12.1-14.6-23.9-21-36.3-3.2-6.3-7.3-12.1-10.9-18.2-1.3-2.2-3-4.4-2.8-7.3h4c5.5 7 9.5 14.9 14 22.4 14.4 24.4 28.7 48.8 43.4 73 12.8 21.1 25.4 42.2 38.4 63.2 16.3 26.3 32.8 52.5 49.6 78.6 15.9 24.9 32.8 49 50.1 72.9 11.4 15.8 23.7 30.9 36.9 45.3 3.9 4.3 9.3 7 13.4 11.1 2.3 2.3 6.8 2.4 10 1.3 3-1 2.7-4.7 3-7.5 0.4-4.7-0.1-9.4-1.5-13.8-4.7-16-6.9-32.6-12-48.5-8.7-27.5-18-54.7-28.6-81.6-6.7-16.7-12.6-33.7-19.2-50.4-3.1-7.9-6.3-15.8-9.6-23.6-1.3-3-3.1-6-1.1-9.5 2.2-0.5 3 1.3 3.7 2.6 3.8 7.1 7.9 14 10.8 21.6 0.4 1 0.3 1.7-0.2 2.2z"/>
			<path class="st26" d="m429.5 354.5c-0.4 3.1 0.3 6.3 2 9 0.8 1.4 1.2 3.1 1 4.8-0.1 5.4 0.1 10.8-0.1 16.2-0.1 2-0.8 4-1.9 5.7-3.4 0.4-6.9 0.5-10 3.3-0.3 3.5 1.5 7 2.7 10.4 3.8 10.6 6.8 21.5 10.3 32.2 2.4 7.3 4.7 14.6 6.5 22 3.3 13 8.4 25.4 11.3 38.5h-4c-1.9-1-2.8-2.7-3.6-4.6-16.6-38.4-33.2-76.9-50.9-114.8l-0.3-0.9c-0.5-2.5-1.4-4.9-2.8-7-0.5-0.8-0.9-1.6-1.2-2.5-0.5-2.4-1.5-4.7-2.9-6.8-0.5-0.8-0.9-1.7-1.2-2.6-0.6-1.7-0.8-3.5-0.8-5.3 0.1-1.3-0.1-2.7-0.8-3.9-4.5-11-4.7-22.7-4.7-34.3 0-4.2 0.5-8.4 4.8-10.9 1.4-0.8 1.7-2.3 1.7-3.9 0-5 0.9-10-0.3-14.9-0.4-1.6-0.2-3.4 0.5-4.9 3.1-2.5 3.7 0.8 4.6 2.3 8.1 13.9 16 28 24.1 41.9 4.8 8.2 9.3 16.5 14.2 24.6 1 1.9 2.7 3.8 1.8 6.4z"/>
			<path class="st27" d="m679.5 251.5c-1.1-0.4-2-1.2-2.6-2.2l-18-30c-6.4-10.5-12.5-21.2-18.7-31.9-6-10.4-12.3-20.6-18.3-30.9-7-12.1-13.5-24.4-20.9-36.3-5.7-9.1-10.8-18.5-15.9-27.8-1-1.5-2.1-3-3.3-4.3-5-6.1-8.5-13.4-14.7-18.5-1.3-1.1-1.4-3.1-3-3.8-3.4 0.7-3.4 0.7-5.5 5.4 2.7 7.3 5.2 14.7 8.1 21.9 4.2 10.5 8.6 20.9 12.9 31.4 2.4 5.9 4.7 11.9 7.1 17.8 1.4 3.7 2.7 7.4 4.3 11 0.5 1.4 0.7 2.9 0.6 4.4-3.2-0.3-3.7-3.2-4.8-5.2-7.7-14.2-15.5-28.4-23-42.6-1.1-2.4-2.5-4.7-3.9-6.9-17.4-32.7-34.9-65.4-52.5-98.1-1.4-2.5-3.6-4.9-2.8-8.2h38c3.1 3.3 5 7.4 7.1 11.4 15.4 28.9 31.2 57.6 46.5 86.6 10.6 20 21.6 39.7 32.2 59.7 15.3 28 30.6 56 45.9 84 1.5 2.8 3.4 5.4 4.6 8.3 0.6 1.4 2.1 2.9 0.6 4.8z"/>
			<path class="st28" d="m244.5-3.5h29c1.4 1.2 2.4 2.7 3.1 4.4 10.5 22.7 21.6 45.2 32.4 67.8 0.8 1.6 1.9 3.2 0.4 5.1-5.3 0.2-5.3-5.2-8.1-7.5 5.8 20.2 13.7 40 19.6 60.4 4.3 14.9 7.7 29.9 10.6 45.1 0.6 2.4 0.5 5-0.5 7.4-3.1 1.4-3.6-1.6-4.5-3.1-2.3-4-4.5-8.1-6.9-12-14.6-26.4-29.4-52.8-44-79.2-3.3-6.7-7.8-12.7-10.2-19.8-0.6-5.7-2.4-11-4.3-16.3-5.5-15.1-10.3-30.4-16.4-45.3-0.9-2.2-2.1-4.6-0.2-7z"/>
			<path class="st29" d="m342.5-3.5h8c3.9 2.5 4.8 7 6.8 10.7 3.7 6.8 8.3 13.1 10.5 20.6 3.4 17.6 10.3 34 16.7 50.6 10.5 27.3 19.1 55.3 27.5 83.3 3.7 12.4 5.4 25.3 7.6 38.1 0.9 5.4-1.3 10.5-2.7 15.6-0.8 2.9-3.7 4.4-6.8 3.5-3.5-1-7.2-1.6-9.9-4.5-3.4-4.4-5.5-9.5-7.8-14.4-8.1-17.8-17-35.2-25-53-0.8-1.9-2.5-3.7-0.7-6 1.3-0.7 2.6-0.4 3.9-0.1 5.8 1.2 7.2 0.1 7.8-6 0.7-6.8 0.2-13.7-1.6-20.3-3-12.3-4.7-24.9-8.9-36.8-5.1-14.4-8.1-29.5-14-43.7-4.4-10.7-6.7-22.3-11.6-32.9-0.8-1.5-1.1-3.2 0.2-4.7z"/>
			<path class="st9" d="m938.5 465.5c-0.3-5-3-9.3-4.6-13.9-3.4-9.9-7.4-19.6-11.1-29.4-3.8-10-7.5-19.9-11.4-29.8-4.6-11.7-9.2-23.5-13.9-35.2-4-9.9-8-19.8-12-29.6-5.4-13.2-10.9-26.4-16.4-39.5-5.4-12.9-10.3-26-16.5-38.5-2.6-5.3-4.3-11-6.3-16.5-1.5-4.4-0.6-5.7 4.2-6.5 5.3 8.7 9.1 18.3 13.6 27.4 5.7 11.5 11 23.2 16.4 34.8 4.9 10.4 9.8 20.8 14.7 31.3 6.8 14.6 13.6 29.2 20.3 43.9 5.9 12.8 11.9 25.7 17.9 38.5 6.1 13.1 12.1 26.3 18.1 39.4 5.3 11.7 10.7 23.3 16 35 3 6.6 5.6 13.3 8.9 19.7h-21.1c-6.6-8.9-11.6-18.8-17.2-28.3-0.4-0.9-0.3-2 0.4-2.8z"/>
			<path class="st30" d="m1144.5-3.5h7c2.8 3.3 3.4 7.6 5 11.4 8.1 20.1 15.9 40.3 23.6 60.5 6.8 17.6 12.6 35.5 17.4 53.7 2.5 9.7 6 19.2 7.3 29.1 0.9 6.9 1.7 14.2-0.8 21.1-2 5.5-6.4 7.2-11.6 4.4-3.5-1.9-6.8-4.3-9.6-7.1-11.3-11.4-20.7-24.3-30-37.4-15.6-21.8-31.3-43.6-46.1-65.9-13.5-20.4-26.1-41.4-39.2-62.1-1.4-2.2-4.1-4.4-2-7.6h7c6 8.2 11.2 16.9 16.8 25.4 18.4 28.2 37.9 55.6 57.7 82.8 5.5 7.5 12.8 13.1 19.7 19.1 5.4 4.8 8.4 3.6 10-3.4 1.8-8.1 0.2-16.2-1.4-24.2-3.7-18.5-10.8-36-16.3-54-4.3-13.9-9.5-27.4-14.5-41-0.6-1.6-1.3-3.2 0-4.8z"/>
			<path class="st22" d="m1049.5-3.5c-0.4 4.1 2.8 6.6 4.5 9.7 5.9 10.4 12.1 20.7 18.4 30.9 7.3 11.7 14.1 23.7 21.3 35.5 6.3 10.4 12.9 20.6 19 31.2 6.8 12 14.6 23.4 21.9 35.1 7 11.1 13.6 22.5 21 33.4 5.6 8.3 11 16.7 16.7 25 6.1 8.9 12.1 18 18.2 26.9 10.7 15.6 21.1 31.4 32.8 46.2 10.5 13.3 20.2 27.4 33.2 38.7 3.2 2.8 6.9 5.1 9.5 8.3 2.8 0.3 4.5-1.6 6.8-2.2 2.2-0.6 3.3-3.1 3.7-5.5 0.1-0.7 0.1-1.3 0-2-0.5-6.9-0.9-13.7-2.5-20.5-1.1-4.8-2.6-9.5-2.5-14.5-0.1-1.8-0.5-3.6-1.2-5.3-3.1-10.7-6.3-21.3-9.8-31.9-4.7-14.3-9.4-28.6-14.4-42.8-4.8-13.6-10.4-26.9-15.1-40.5-3.1-8.9-7-17.3-10.2-26.1-3.5-9.9-8.3-19.2-11.7-29.2-1.4-4.2-3.4-8.2-5.1-12.3-0.5-1.4-0.7-2.9-0.6-4.4 2-0.3 2.5 1.4 3.2 2.6 4.4 8 9.3 15.9 12.9 24.4 5.2 14.6 10.9 29 16.6 43.3 8 19.9 15.2 40.1 23.1 60.1 10 25.3 17.1 51.5 25.7 77.2 3.9 11.8 7.6 23.8 9.1 36.3 1.3 8.5-1.4 17.2-7.3 23.5-2.3 2.5-5 2-7.7 0.5-5.5-3.2-10.3-7.4-14.3-12.4-21.3-26.2-42.3-52.8-61.2-80.8-33-48.8-64.2-98.8-94.8-149.1-21-34.5-41.3-69.4-62-104.1-0.9-1.5-2.8-3.2-1.3-5.4h4.1v0.2z"/>
			<path class="st31" d="m1144.5-3.5c-0.4 3 1.7 5.3 2.5 7.9 3 8.8 6.6 17.4 9.5 26.3 3.1 9.6 6.6 19.1 9.2 28.9 1.1 4 2.8 8 4.3 12 3 8.8 5.4 17.8 7.2 26.9 0.9 4.2 1.8 8.7 1.3 13.2-0.2 1.9-0.3 4 1.1 5.8-3 3.4-1.1 10.1-7.8 10.9-4.6-2.3-8.7-5.4-12.1-9.2-2-1.9-4.2-3.7-6.4-5.5-5.7-4.9-9.6-11.3-14-17.2-7.4-9.8-14.4-20-21.3-30.2-8.6-12.8-18-25.1-26.2-38.1-3.8-6-7.3-12.1-11.4-17.9-2.4-3.4-4.3-7-6.8-10.3-0.8-1-1.2-2.3-1.1-3.6h10c1.8 1.5 3.3 3.3 4.4 5.3 10.7 17.5 23.9 33.2 37.1 48.7 3.8 4.2 8 8 12.5 11.4 2.2 1.7 4.8 2.9 7.4 1.4 2.9-1.6 2.3-4.6 1.9-7.2-2.3-18.1-5.5-36.1-11.4-53.5-0.7-2-1.7-4.1 0-6.2l10.1 0.2z"/>
			<path class="st8" d="m380.5-3.5h4c7.1 9.4 15.5 17.8 24.8 25 3.2 2.7 7.3 4.2 11.5 4.3 2.2 0 3.6 1.5 5.1 2.8 6.1 5.6 10 12.9 14.3 19.8 22.3 36.7 45.4 73 69.2 108.8 10 15 20.5 29.6 30.5 44.5 1 1.5 2.2 2.9 3.5 4.2 4.3 4.8 6 11.1 8.6 16.7 5.2 11.1 10 22.4 15.2 33.5 1 2.2 2.6 4.4 1.7 7-3.5 1-4.7-1.9-6.1-3.9-5.9-8.3-11.8-16.6-17.4-25-18.8-28.1-37.3-56.5-55.4-85-12-18.9-23.3-38.1-35.2-57-3.6-5.8-7.7-10.8-14.2-13.4-6.1-2.5-11-6.8-15.4-11.6-1.2-1.4-2.8-2.6-4.5-3.2 1.2 5.7 3.6 10.4 5.3 15.3 0.7 1.9 1.6 3.7 1.6 5.7s0 4.3-3.1 3.7c-4.1-3.9-5.8-9.3-8-14.2-7.7-16.8-15.7-33.4-23.7-50-3.8-7.8-7.1-15.8-11.1-23.4-0.9-1.3-2-2.8-1.2-4.6z"/>
			<path class="st32" d="m355.5 496.5h-21c-5.3-5.6-8.3-12.8-12-19.5-13.4-23.8-26.8-47.6-40.1-71.4-16.8-30.2-33.7-60.5-50.5-90.8-0.7-1.3-1.5-2.6-0.8-4.2 2.5-1.7 3.5 0.6 4.8 1.9 6.2 6.3 10.6 14.1 16 21.1 13.7 18 27.5 35.9 44.2 51.4 4.7 4.4 10.4 7.1 15.9 10.3 4.8 6.7 7.3 14.6 10.5 22 10.8 24.7 21.7 49.4 32.2 74.2 0.9 1.5 2.2 3.1 0.8 5z"/>
			<path class="st33" d="m210.5-3.5h9c3.8 3.9 5.5 9.1 7.8 13.9 6.1 13.1 12.4 26.2 18.6 39.3 1.5 3.1 4.1 6.2 2.6 10.2-1.9 0.9-2.6 2.4-2.6 4.4v7c-0.1 8.7-4.7 11.8-12.5 8.6-0.4-0.1-0.8-0.1-1.1 0.1-2 1.6-1 3.8-0.7 5.9 1.2 6.7 3 13.3 5.3 19.7 4 12.2 6.9 24.6 10.5 36.9 3.1 10.5 5.8 21.1 8.2 31.8 0.6 1.9 0.5 4-0.3 5.9-2.6 1.7-3-0.9-3.8-2.1-3.9-6.3-7.2-13-10.8-19.5-0.8-1.8-1.8-3.5-3-5.1-6-10.1-11.8-20.3-16.2-31.2 0-17.7-5.2-34.5-10.1-51.3-4.8-16.4-11.2-32.4-17.2-48.4-0.5-1.2-0.9-2.5-1.4-3.8-0.9-2.7-1.9-5.5 0.4-8 2.5-2.8 4.9-0.1 7.3 0.4 1.9 0.4 3.8 1.4 6 0.8 2.6-2.3 2.8-5.4 2.9-8.6-0.1-2.5-0.6-4.9 1.1-6.9z"/>
			<path class="st26" d="m380.5-3.5c5.7 11.8 11.5 23.6 17.2 35.5s11.3 23.7 16.8 35.6c3.2 7 6.5 14 10 20.9 4.5 6.5 8.6 13.2 9.8 21.2-1 3.8 0.9 7.2 2 10.6 5.5 16.6 10.1 33.4 15.2 50.1 0.7 2.3 2 4.8-0.3 7-2.6 0.9-3-1.4-3.9-2.7-2.7-4.1-4.9-8.5-7.5-12.7-12.4-22.3-24.2-44.9-37-67-12.5-22.3-25.5-44.3-36.1-67.5-0.3-2.6-1.8-4.6-3-6.7-4.5-8-9-16-13-24.3h29.8z"/>
			<path class="st34" d="m446.5-3.5h41c5.9 7.1 9.2 15.7 13.5 23.6 3.1 5.8 7.4 11.1 8.7 17.7-0.1 3.3 1.3 6.1 2.2 9.1 4.1 14 7.9 28.1 7.9 42.9 0 3.5 0.5 7.4-3.5 9.1-4.2 1.9-7.9 0-11-2.6-7.9-6.6-15.2-13.9-21.7-21.9-1.1-1.4-2.4-2.8-3.6-4.1-5.5-8-8.7-17.2-12.8-25.9-6.5-13.8-13.1-27.6-19.4-41.6-0.8-1.8-2.8-3.7-1.3-6.3z"/>
			<path class="st7" d="m823.5 97.5c-2.4-2.2-2.7-5.5-4.1-8.2-6-12.3-12.1-24.5-17.9-36.8-8.9-18.7-17.7-37.5-27-56h42c0.1 4 1.9 7.6 3.3 11.3 2.7 7 4.9 14.2 7.2 21.3 2.1 6.5 4.3 13 6.2 19.6 2.6 8.8 4.7 17.6 6.6 26.5 1.8 8.3 2.7 16.9 2.8 25.4 0 2.4-0.3 4.6-2.1 6.4-1.1 0.8-2.6 0.8-3.8 0.1-3.7-2.2-8.3-3.2-10.6-7.4-0.5-1-1.5-1.8-2.6-2.2z"/>
			<path class="st35" d="m863.5 337.5c-1.7-0.8-1.3-3.2-3-4-6.4-11.4-12.7-22.9-19.5-34.1-3.6-6-7-12.2-10.3-18.5-1.1-2.1-3-3.9-3.3-6.5-7.1-17.7-15.2-35.1-22.3-52.8-13.7-33.8-28.5-67.1-42.3-100.8-9-22-19.5-43.4-29.1-65.1-7.9-17.6-15.9-35.2-20.4-54.1-0.4-1.8-1.3-3.5 0.1-5.2h4c2.9 1.6 3.8 4.6 5 7.3 10.6 22.6 21.7 45 32.3 67.6 12.3 26.4 25.2 52.5 37.3 79 0.2 0.8 0.2 1.5 0.1 2.3-0.9 2.9 0.2 5.5 1.2 8.2 8.5 21.5 18.2 42.6 26.5 64.2 13 33.8 26.3 67.4 41.2 100.3 1.8 3.8 5.1 7.6 2.5 12.2z"/>
			<path class="st26" d="m791.5 150.5c-2.8-3.5-4.3-7.7-6.2-11.7-5.1-10.7-10.1-21.5-15.2-32.2-7.2-15.2-14.6-30.3-21.6-45.6-3.2-7-6.8-13.9-10.1-20.9-4.9-10.3-10.1-20.4-14.8-30.8-2-4.3-4-8.7-6.1-12.9h24c0.2 3.4 2.2 6.1 3.5 9 3.8 8 8.1 15.8 11.8 23.9 5.3 11.5 11.2 22.8 16.6 34.2 2.9 6 5.2 12.3 9 17.9 1.1 1 2 2.2 2.7 3.6 5.6 13.1 12.8 25.5 18.3 38.7 0.6 1.2 0.8 2.5 0.6 3.9-1.7 4.8-5.9 7.8-8.3 12.1-1.4 2.6-3 4.5-2.4 7.6 0.3 1.3 0.6 3.2-1.8 3.2z"/>
			<path class="st6" d="m632.5 234.5c2 2 2.6 4.8 4.1 7.2 0.8 1.3 1 3.3 2.9 3.8 0.6 3.1 2.4 5.8 3.9 8.5 7.3 13.4 14.7 26.8 22.1 40.2 5.6 10.2 11.2 20.5 16.9 30.7 8.4 15.1 16.7 30.2 25.1 45.3 6.6 11.9 13.3 23.9 19.9 35.8 7.7 13.8 15.4 27.5 23.1 41.3 7.6 13.6 15.3 27.2 22.9 40.9 1.5 2.7 3.8 5 4.1 8.3h-13c-6.3-10.8-12.5-21.6-18.8-32.5-4.6-8.1-9.1-16.4-13.8-24.5-6.3-11.1-12.8-22.2-19.2-33.4-5-8.7-9.7-17.6-14.6-26.3-5-8.7-10.3-17.6-15.2-26.5-3.4-6.2-6.8-12.4-10.3-18.6-5.9-10.3-11.4-20.8-17.1-31.2-7.1-18.4-13.3-37.1-20.5-55.4-1.6-4.2-4.9-8.5-2.5-13.6z"/>
			<path class="st36" d="m573.5-3.5h5c6.1 8.5 11.5 17.5 16.8 26.5 12.1 20.5 24.6 40.8 37.4 60.8 21 32.8 41.9 65.7 65.5 96.8 9.1 11.9 18.1 23.9 28.1 35 3.8 4.2 7.9 8.1 11.8 12.1 2 2 4.6 3.2 7.5 3.3 1.5-0.7 2.4-2.1 2.4-3.7 0.4-6.5 2.1-12.9 0.8-19.6-2.9-16.3-8-31.9-12.6-47.7-4.5-15.5-10.4-30.6-15.3-45.9-7-21.5-17.3-41.8-24.2-63.4-0.7-2.1-2.7-4.7 0.6-6.6 1.2 0 2.3 0.7 2.8 1.8 3.1 5.4 6.5 10.6 8.6 16.5 1.3 8.4 5.3 15.7 8.5 23.4 8.3 19.7 15.2 39.8 22.7 59.7 8 21.4 15.7 42.9 21.4 64.9 3.2 12.3 7.1 24.6 6.5 37.7-0.3 5.2-2.9 9.4-4.4 14.1-0.7 2.1-3 2.5-5.1 1.2-5.3-3.4-10.2-7.3-14.7-11.7-15-14-26.1-31.1-38.3-47.3-13.4-17.8-26.1-36.2-38.2-54.9-12.7-19.7-25.7-39.3-37.8-59.4-12.8-21-25.7-42-38.6-63-3.7-6.1-6.5-12.8-11.8-17.9-2.1-4-5.5-7.6-5.4-12.7z"/>
			<path class="st37" d="m231.5 310.5c1.7 5.2 4.8 9.7 7.4 14.4 2.2 4 4.4 8.1 6.7 12.1 6.1 10.5 11.8 21.3 17.7 32 8.1 14.5 16.1 29 24.2 43.6l18.9 33.6c6.7 11.7 13.5 23.4 20 35.2 2.7 5 6.2 9.7 8.1 15.1h-13c-3.6-6.2-7.3-12.5-10.9-18.7-4.5-7.7-8.9-15.3-13.3-23-3.2-5.6-6.4-11.1-9.5-16.7-4.9-8.6-9.9-17.1-14.7-25.6-3.6-6.3-7-12.7-10.5-19-5.1-9-10.3-18-15.5-27-3.5-6.1-6.9-12.4-10.4-18.5-6-10.6-11.9-21.2-17.9-31.8-2.2-3.9-4.2-7.9-6.3-11.7-0.8-1.4-1-3.3-2.9-3.8-4.5-6.3-9.4-12.4-10.6-20.4 3.4-3.2 8.3-2 12.2-3.9 1.8-0.2 2.8 0.9 3.6 2.2 5.5 10 11.1 20.1 16.6 30.2 0.2 0.4 0.2 1.1 0.1 1.7z"/>
			<path class="st38" d="m593.5-3.5h10c10.5 16.4 22.6 31.7 35.4 46.4 4.7 5.4 10.5 9.7 16.1 14.2 1.3 1.2 3 1.6 4.7 1.1 3.5-3.6 2.8-8.3 2.2-12.9-2-14.9-5.4-29.5-10.2-43.7-0.6-1.7-1.6-3.4-0.1-5.2h10c4.5 9.1 7.5 18.9 10.7 28.4 4.8 14 9.4 28.1 13.3 42.4 2.5 9 3.6 18.3 5.6 27.4 1.1 5-0.6 10.3-2.3 15.1-1.1 3.1-3.8 4.2-6.9 2.6-5.3-2.8-10.2-5.8-14.4-10.5-27.4-30.9-50-65.2-72.4-99.7-1.1-1.5-3.1-3.1-1.7-5.6z"/>
			<path class="st39" d="m627.5 154.5c-2.7-2.9-4-6.7-5.9-10.1-5.3-9.1-10.1-18.5-15-27.8-8.4-15.7-16.6-31.4-25.1-47.1-4.1-7.5-8.2-15-12.2-22.6-7.4-14.1-15.1-28.1-22.7-42.2-1.5-2.7-3.7-5.1-4.1-8.3h10c4.9 7.1 9.1 14.7 13.4 22.2 25.9 45.4 52.4 90.4 80.4 134.5 0.8 1.3 1.8 2.4 2.9 3.4 2.1 2.1 3.1 4.9 4.5 7.5 2.5 6.6 6 12.7 8.7 19.2 4.5 9.6 8.8 19.4 13.4 29 0.6 1.3 1.5 2.6 0.8 4.2 0 1.8 1.1 3 1.8 4.5 5.7 12.5 11.4 24.9 17.1 37.4 0.1 0.3 0.1 0.7 0.1 1-4 0.1-5.1-3.4-6.6-5.9-10.5-17.4-21.1-34.7-31.7-52-9.1-14.9-18-30-27.3-44.7-0.7-0.7-1.2-1.8-2.5-2.2z"/>
			<path class="st40" d="m1065.5-3.5c0 3.6 2.5 5.9 4.2 8.7 7.2 11.8 14.8 23.3 21.8 35.2 3.1 5.2 6.7 10.2 10 15.2 5.6 8.5 11.2 17 16.9 25.5 10.1 15 20.6 29.7 31.3 44.2 4.4 5.9 8.3 12.3 12.8 18.1 5.7 7.3 10.6 15.2 17.7 21.3 3.2 2.7 5.4 6.3 9.3 8.7 3.3 2.1 6.2 3.6 10.8 2.9 1.8-3.4 5.3-6.4 3.5-11.7-0.7-2.4-0.6-5 0.1-7.4 0.6-2.1 0.2-3.7-0.1-5.7-1.3-7.4-3.8-14.5-5.6-21.8-2.4-9.7-5.1-19.2-7.6-28.9-0.5-1.9-1.5-3.6-2.2-5.5-3.8-11.5-7.6-23-12.1-34.2-4.9-12-9.1-24.2-14.1-36.2-3.5-8.5-6.9-17-10.2-25.6-0.3-0.9-0.4-1.9-0.4-2.9h4c-0.4 1.8 0.5 3.3 1.1 4.8 2.6 6.6 5.3 13.1 8 19.6 4.8 11.3 9.4 22.7 14 34.1 7 17.5 12.9 35.3 19.5 53 3.1 7.9 5.6 16 7.7 24.3 1.8 7.8 4.9 15.2 7.6 22.8 1.2 3.3 2.4 6.5 2.2 10-0.1 2.4 0.9 4.5 1.6 6.7 2.6 8 4.7 16.1 4.4 24.5-0.1 2.3 0.9 4.2 1.5 6.2 1.2 4.2 0.9 6-1.9 9-1.5 0.3-2.7-0.8-4.2-0.9-2.9-0.2-6.1-0.9-8-3.2-3.5-4.1-8.2-6.8-12.4-9.9-3.9-2.9-6.7-6.5-9.4-10.1-11.1-14.6-21.8-29.3-32.3-44.3-11.4-16.3-22.7-32.5-33.3-49.4-7.6-12.1-15.7-23.9-23.3-36-8.4-13.3-16.5-26.9-24.8-40.3-3-4.9-6.2-9.7-9.2-14.6-1.2-2-2.6-3.8-2.8-6.2h3.9z"/>
			<path class="st41" d="m342.5-3.5c-0.1 4 2.1 7.2 3.5 10.7 2.4 5.7 4.3 11.6 5.8 17.7 0.7 2.9 1.8 5.6 3.1 8.3 2.8 5.7 4.8 11.8 6.2 18 1.5 6.8 4 13.4 6.5 20 3.4 9.2 4.7 19 8 28.2-0.3 9.2 4 17.5 5 26.4 0.3 1.1 0.2 2.3-0.3 3.4-0.4 0.8-0.9 1.6-0.6 2.3 1.7 4.1-1.3 7.4-1.5 11.1-2.1 1.3-3.9 0.9-5.9 0.3-1.8-0.6-3.6-1.8-5.7-1.4-3.2-0.3-3.2-3.3-4.4-5.2-1.4-2.4-2.5-5-3.5-7.6-7.9-16.5-16-32.9-23.6-49.5-0.9-1.9-3-3.8-1-6.3 5.7-1.6 8.2-7.1 7.7-14.8-1.2-19.1-6.6-37.2-11.8-55.4-0.6-2-1.9-4-0.4-6.2h12.9z"/>
			<path class="st42" d="m665.5-3.5h4c2 1 2.4 3.1 3.1 4.9 7.8 19.1 15.8 38.2 22.2 57.8 5.9 17.9 13.3 35.2 18.1 53.4 3 11.3 6.4 22.4 8.8 33.8 1.5 7.2 0.6 14.2 0.8 21.3-0.1 1-0.3 2-0.8 2.9-2.8 7.3-6 8.4-12.4 3.9-8.3-5.8-14.5-13.7-20.8-21.4-14.1-17.2-27.2-35.3-39.7-53.8-14.5-21.4-28.8-43.1-42.4-65.2-6.3-10.2-12.9-20.2-19.3-30.4-1.3-2.1-3.6-4.2-1.6-7.2h4c4.1 3.2 6.1 7.9 8.7 12 11.8 18.7 23.7 37.4 36.4 55.6 5.3 7.6 9.8 15.9 15.9 23 9.8 11.5 18 24.3 28.5 35.3 4.1 4.3 8.1 8.8 12.2 13.1 3 3.1 4.4 3.8 9.2 3.6 1-0.7 1.6-1.8 1.6-3 0.3-10.6 0.8-21.1-2.6-31.6-3.6-11.4-6.4-23.1-9.9-34.5-5.2-16.8-10.5-33.7-17.7-49.9-2.7-6.1-4.5-12.6-6.6-18.9-0.4-1.5-1-3.2 0.3-4.7z"/>
			<path class="st8" d="m542.5 206.5c-3.1-1.5-3.9-4.8-5.7-7.2-6.6-9.2-13.4-18.3-19.6-27.8-4.9-7.6-9.9-15-14.8-22.6-10.1-15.6-20.4-31-30.4-46.6-10.2-15.9-20.2-31.9-30-48-4-6.6-8-13.2-12.4-19.6-2.1-3.1-5.1-5.2-7.5-8.2-4.3 2.3-7.7-0.5-11-2.3-6-3.3-11.2-8-15.2-13.6-2.3-3.1-6-4.6-8.5-7.6-1.7-1.9-3.2-3.8-3-6.5h34c16.4 25.7 32.1 51.7 49.3 76.9 8.2 12.1 15.9 24.6 24.5 36.4 6 8 11.6 16.3 16.7 24.8 0.7 1.3 1.8 2.4 3.1 3.1 5 5.6 6.7 12.9 10 19.5 4.1 8.2 7.7 16.6 11.5 25 2.7 6.2 5.5 12.3 8.3 18.4 1 1.9 2.5 3.8 0.7 5.9z"/>
			<path class="st6" d="m585.5-3.5c-0.2 1.7 0.3 3.3 1.3 4.7 10 15.4 19.9 31 29.5 46.6 4.4 7.1 9.3 13.9 13.7 21 5.7 9.1 12.2 17.5 17.5 26.8 1.5 2.7 4 4.8 5.7 7.5 6.6 10.6 14.6 20.2 21.4 30.7 3 4.5 7.4 8 10.2 12.7 4.7 8 12.2 13.4 17.8 20.6 3.5 4.5 8.1 8.2 14.5 9.4 2.2-4 5.5-7.6 3.9-13-0.4-1.8-0.2-3.6 0.5-5.3 1.1-2.8 0.2-5.6-0.4-8.1-1.6-6.2-2.3-12.5-3.7-18.7-1-4.1-2.6-8.1-3.9-12.1-2.2-7.2-4.2-14.4-6.5-21.6-3.1-9.5-7.6-18.5-10.2-28.1-3.6-13.2-9-25.6-13.7-38.3-4.2-11.7-9-23.2-13.6-34.8h2c3.5 2.1 4.1 6.2 6.2 9.3 2.2 3.4 4.2 7 5.8 10.8 2.9 10.1 6.4 20 10.4 29.7 8.9 22.6 18.1 45.2 25.8 68.3s14.9 46.3 19.6 70.2c0.8 4.3 0.7 8.6 1.4 12.9 0.5 3.8-1 5.7-7.1 10.6-5.2-3.1-10.9-5.2-15.6-9.9-13.8-14.1-25.1-30.1-37.1-45.7-16.1-20.9-30.4-42.9-44.8-65-18.4-28.1-35.8-56.7-53.2-85.3-1.1-1.8-2.9-3.4-1.4-5.9h4z"/>
			<path class="st43" d="m713.5-3.5c1.8 7.9 3.6 15.9 6.7 23.5 2.9 6.9 5.5 14 8.2 21 1.5 4 3.5 7.8 5.2 11.7 4.4 10.1 9.5 19.9 13.9 30 6.1 14.1 12.9 28 18.4 42.4 4.8 12.4 10.5 24.4 15.6 36.6 3.8 8.9 7 18 11.1 26.8 5.1 10.8 9 22.2 13.8 33.1 4.6 10.3 8.6 20.9 13.3 31.2 2.3 5.1 3.9 10.5 6.7 15.3 1.2 2 1 4.1 1 6.3-3.5-4-5.5-8.9-8.1-13.3-4.6-7.8-8.6-16.1-13.9-23.6-4.2-3.5-5.6-8.9-8.4-13.3-3.4-5.3-6.2-10.9-9.5-16.2-1.5-2.8-3.7-5.3-4.3-8.6-0.6-7.2-4.6-13.1-7.3-19.5-10.5-23.8-19.5-48.1-29.8-71.9-14.6-33.9-28.8-68-43.6-101.8-1.3-3-4.1-5.9-2.1-9.7h13.1z"/>
			<path class="st3" d="m1920.5 101.5c-2.3-1.7-2.2-4.6-3.4-6.9-5.6-11.2-11.2-22.4-16.5-33.8-6.5-14.1-13.2-28-19.9-41.9-3.3-6.8-6.6-13.6-9.8-20.5-0.2-0.6-0.4-1.2-0.5-1.9h50v105h0.1z"/>
			<path class="st44" d="m333.5 73.5c5.3 11.1 10.9 22 16 33.2 2.8 6.3 5.9 12.4 8.9 18.6 0.5 1 1.3 1.9 1.1 3.2-3.2 0.7-5-1.6-6.5-3.6-2.3-3-5.2-5.6-8.4-7.7-2.3-1.4-3.8-3.6-5.5-5.7-6.9-8.3-13.7-16.6-21.1-24.5-1.2-1.4-2.6-2.6-4.3-3.4-2.3-3-5.3-5.8-4.1-10.3-0.1-0.6-0.2-1.3-0.5-1.9-5.7-11.7-11.3-23.3-17-35-6.2-12.9-12.3-25.8-18.4-38.6-0.1-0.5-0.2-1-0.2-1.5h23c1.5 1.4 2.6 3.1 3.3 4.9 11.1 22.4 22 44.8 32.7 67.4 0.8 1.7 1.8 3.1 1 4.9z"/>
			<path class="st6" d="m581.5-3.5c0.3 3.5 2.8 5.9 4.5 8.7 9.8 16.3 20 32.4 29.8 48.8 5.5 9.1 11.7 17.9 17.5 26.8 4.8 7.4 9.4 15 14.2 22.5 2.4 3.7 4.9 7.4 7.4 11 4.8 6.9 9.8 13.6 14.4 20.6 6.5 9.9 14.1 19 21.3 28.3 6.2 7.9 12.1 15.9 18.2 23.9 0.3 0.6 0.8 1.1 1.3 1.5 4.9 2.8 7.6 7.8 11.5 11.5 1.1 1 2 2.4 3.6 2.6 3.4 0.4 5.9 2.6 8.6 5.2 1.1-3.3 3.8-4.8 6-7.3-1.2-5.2-1.1-10.8-2-16.3-2-12-5.5-23.5-8.9-35.1-2.5-8.4-5.3-16.9-7.7-25.3-5.4-19.1-13.4-37.2-20.2-55.8-5.3-14.8-11.5-29.2-16.3-44.2-0.8-2.5-2.6-4.7-2-7.5 1.8-0.4 2.3 1.1 2.9 2.2 3.8 7.1 7.7 14.2 11.6 21.3 0.8 1.4 1.8 2.9 0.5 4.6-1.3 0.5-1.2 1.5-0.8 2.5 4.2 11.7 8.4 23.4 13.3 34.9 3.5 8.3 7.3 16.5 9.5 25.3 0.4 1.7 1.3 3.3 2 5 3.7 10.5 7.4 21 10.9 31.5 4.1 12.4 7.8 24.9 11.3 37.5 1.3 4.9 3 9.6 4 14.6 1.1 5.3 1.4 10.7 3.6 15.7 1 2.1-1 4.4-1.2 6.7-0.1 0.8-0.9 1.6-0.5 2.3 2.7 5.1-1.5 8.6-2.5 12.9-2.5-0.3-4-2.2-6.4-1.9-1.3 0.1-2-1.1-2.8-1.9-2.6-2.9-5.1-6.3-8-8.5-4.9-3.6-7.2-9.3-12-12.9-2.8-2-4.5-5.6-6.7-8.5-5.2-6.8-10.4-13.6-15.5-20.4-5.5-7.4-11-14.8-16.3-22.3-6.7-9.5-13.3-19.1-19.8-28.8-3.8-5.6-7.2-11.4-10.8-17.1-12.4-19.3-24.7-38.5-36.7-57.9-9.4-15.3-18.1-30.9-28.1-45.8-2.2-3.3-4.9-6.6-5.6-10.9h2.9z"/>
			<path class="st45" d="m1045.5-3.5c0.6 4.1 3.3 7.2 5.3 10.5 8.7 14.4 17 28.9 25.7 43.3 8.1 13.5 16 27.2 24.5 40.5 5.3 8.3 10 17 15.3 25.3 6 9.6 11.6 19.5 17.6 29.1 9.5 15.2 19 30.4 28.7 45.4 11.4 17.5 23 34.8 34.6 52.2 6.4 9.6 12.5 19.3 19.3 28.6 7.7 10.4 14.9 21.3 23 31.4 5.5 6.8 11.2 13.4 16.7 20.2 5.3 6.5 10.3 13.3 16.3 19.3 2.5 2.5 6 3.4 8.5 6 1 1.1 2.8 0.3 4.3 0.2 1.7-2.8 3.4-5.4 5.2-7.9 1.6-2.2 2.3-4.8 2.1-7.5-0.1-1.6-0.3-3.3 0.6-4.9 0.6-1 0.2-2.2 0-3.4-1.9-9.3-4.3-18.4-6.8-27.5-2.1-7.7-4.7-15.3-7.4-22.8-3.5-10.3-6.4-20.9-9.5-31.4-2.2-7.4-5-14.5-7.7-21.7s-5.6-14.3-7.9-21.7-5.6-14.3-8.2-21.6c-5.3-15-12.2-29.3-17.3-44.4-2.6-7.6-5.9-14.9-9-22.4-0.6-1.2-0.9-2.5-0.8-3.8 4.2 2.1 12.5 17.3 12 22-0.3 3.2 0.7 6.1 2 9.1 4.5 10.2 8.6 20.6 12.5 31 3.4 8.9 6.9 17.7 10.3 26.6 1.1 2.8 2.2 5.5 3 8.3 3.4 11 8.1 21.4 12.2 32.1 5.2 13.8 9.9 27.7 14 41.8 1.5 5.3 3.9 10.4 5.3 15.8 1.5 6 3.8 11.9 4.8 18 1.8 10.7 5.3 20.9 7.6 31.4 1.4 6.2 2.4 12.6 0.3 19.1-1 3.1-2.7 4.8-5.2 3.8-3.2-1.4-6.5 0.1-9.6-1.8-0.2-2.1-1.9-3.7-3.9-4.9-6-3.5-11.1-8.3-14.8-14.1-0.6-0.8-1.3-1.5-2.1-2.1-5.3-4.8-9.3-10.7-13.6-16.3s-8.8-11.1-13.3-16.6c-2.2-2.7-4.2-5.6-6.1-8.4-11.6-17.1-24.2-33.6-35.3-51.1-6.7-10.6-13.7-20.9-20.3-31.5-4.4-7.1-9-14.1-13.5-21.2-6.9-10.8-13.5-21.8-20.3-32.6-5.4-8.6-10.9-17.2-16.2-25.9-7.1-11.6-14.1-23.3-21.2-35-6.1-10.1-12.2-20.3-18.3-30.4-5-8.3-10-16.6-14.9-25-5-8.3-10.2-16.5-14.9-25-4.7-8.7-10.3-16.8-14.9-25.6-0.4-0.7-0.7-1.5-0.7-2.3h2v-0.2z"/>
			<path class="st25" d="m508.5 37.5c0.2-1.3-0.6-2.2-1.1-3.2-5.9-10.8-11.9-21.5-17.7-32.4-0.9-1.7-2.2-3.3-2.2-5.4h17c6.2 11.8 12.5 23.6 18.7 35.4 5.4 10.2 10.8 20.3 16.3 30.5 6.5 12 13 24 19.4 36.1 0.7 1.3 1.7 2.5 1.6 4.1 6.2 12.7 10.7 26 15.5 39.2 3.3 9 6.7 18 9.5 27.2 0.7 2.4 1.8 4.7 0.5 7.2-3.5 1-4-2.2-5-4-3.7-6.8-7.4-13.6-11.3-20.4-11-21.1-22.8-41.7-34-62.7-8.3-15.6-17.1-30.8-25.2-46.6-0.7-1.6-1.1-3.4-2-5z"/>
			<path class="st46" d="m120.5 138.5c-2.3-2.4-3.5-5.5-5-8.3-5.5-9.9-10.7-20-16.1-30-7.6-14.2-15.2-28.3-22.9-42.5-6.5-12-12.9-24-19.5-36l-13.5-25.2h17c2.2 1.1 3.4 3 4.4 5.1 2.5 5.4 5.3 10.7 8.4 15.7 10.8 20.8 22 41.4 33.1 61.9 10.5 20 21.8 39.6 31.8 59.8 0.8 1.6 1.8 3.2 1.8 5.1-3.2 4.2-5.5 4.4-9 0.5-2.8-3.1-5.8-6-10.5-6.1z"/>
			<path class="st47" d="m1134.5-3.5c0 2.3 0.5 4.6 1.5 6.7 3 7 4.2 14.4 5.6 21.8 0.9 4.5 2.4 8.8 3.2 13.3 0.7 4.4 0.6 8.8 1.6 13.1 0.6 2.6 1.5 5.4 1.2 8.3-0.5 4.4-3.2 6.8-7.3 5.6-2-0.6-4.2-1-5.5-3-1.5-2.3-4.2-3.1-6.1-5-3.8-3.9-7.6-7.8-10.6-12.4-1.2-1.6-2.6-3-4.1-4.3-3.6-3.5-6.4-7.6-9.5-11.4-7.7-9.6-14.2-20.1-21.2-30.3-0.5-0.7-0.8-1.5-0.8-2.3h52v-0.1z"/>
			<path class="st48" d="m700.5-3.5c-0.5 2.9 1.5 5 2.3 7.4 2.3 6.1 5.2 12.1 7.9 18.1 5.1 11.6 10 23.2 15 34.8 4.3 9.8 8.4 19.6 12.6 29.4s8 19.8 12.3 29.5c4 9 8 18 11.6 27.2 3.8 9.6 7.4 19.3 11.4 28.8 2.9 7 6.1 13.9 9.4 20.7 1.1 2.2 1.7 4.7 1.5 7.1-2.6 0-2.9-2.4-4-3.9-2.2-3.1-3.5-6.8-5.7-9.9-5.9-11.9-13.3-23-19.1-34.9-5.9-10.7-11.8-21.4-17.9-31.9-3-6.2-6.4-12.2-10.1-17.9-2.2-4.1-5.3-7.8-6.4-12.5-0.1-2.2-0.6-4.3-1.5-6.3-7.6-17.5-14.4-35.4-22.2-52.9-4-9-7.5-18.1-11.5-27.1-0.8-1.7-1.9-3.6-0.5-5.6l14.9-0.1z"/>
			<path class="st22" d="m511.5 138.5c-1.8 0.1-2.5-1.1-3.2-2.5-5.3-10-12.4-18.9-18.9-28.2-4.1-5.8-8-11.6-11.9-17.5-2.7-4.1-5.4-8.2-8.1-12.3-4.9-7.4-9.7-14.8-14.7-22.1-12.2-17.8-22.7-36.8-34.8-54.7-1-1.3-1.5-3-1.3-4.7h28c0 0.5 0 1 0.2 1.5 3.6 6.3 6.1 13 9.3 19.6 6.1 12.5 12.1 25.1 17.8 37.8 2.1 4.8 4.5 9.5 6.7 14.2 6 8.1 9.2 17.6 13.5 26.5 5.7 11.8 11 23.7 16.5 35.6 0.9 2.1 2.8 4.2 0.9 6.8z"/>
			<path class="st28" d="m72.5 17.5c-3.8-3.9-5.3-9.2-7.9-13.8-1.2-2.5-2.6-4.9-4.1-7.2h27c18.4 23.3 34.1 48.4 49.4 73.9 12.5 20.9 26.2 41 39.5 61.4 9.5 14.5 18.8 29.1 28.5 43.4 7.3 10.8 15.4 20.9 22.5 31.8 4.6 5.8 6.4 13.1 9.9 19.5 1.2 3.6 3.1 6.8 4.7 10.2 0.8 1.8 1.9 3.5 0.9 5.5-3.1 1.3-4.2-1.4-5.3-3.1-13.3-19.3-27.2-38.3-39.6-58.3-15.1-24.3-31.1-48.1-45.8-72.7-9.6-16-19.7-31.6-29.8-47.3-3.3-4.9-7.2-9.2-11.8-12.8-9.3-7.6-17.3-16.7-23.8-26.8-1.2-1.8-2.3-3.7-4.4-5-3.1 0.5-6.3 2.6-9.9 1.3z"/>
			<path class="st3" d="m163.5 496.5c-0.7-5-3.6-9.1-5.5-13.7-5.2-12.4-11-24.6-16.4-37-4.6-10.4-9-20.8-13.5-31.2-3-6.9-6.3-13.8-9.4-20.7-5.2-11.7-10.3-23.5-15.5-35.1-3.4-7.7-7-15.3-10.5-22.9-2.6-5.5-5.1-11.1-7.7-16.6-0.5-0.8-0.5-1.8-0.1-2.6 3.6 4.1 5.4 9.3 8.2 13.8 6.2 10.3 12.2 20.7 18.1 31.1 4.6 8 8.9 16.1 13.5 24.1 5.2 9 10.4 17.9 15.6 26.9 4.1 6.9 8.2 13.9 12.3 20.8 8.9 15.2 17.6 30.5 26.7 45.5 3.5 5.8 6.7 11.7 10.3 17.4l-26.1 0.2z"/>
			<path class="st42" d="m128.5-3.5h25c3.1 1.8 4.3 5 5.8 7.9 9.8 18.7 20 37.1 30 55.6 4.5 8.2 8.8 16.5 13.5 24.6 0.8 1.4 1.6 2.9 1.2 4.7-4.1 5.9-6.1 6.1-11.4 1.6-14.4-12-27.4-25.4-39-40.1-5.8-9.5-9.7-20-14.6-30-3.1-6.2-6.2-12.5-9.1-18.8-0.8-1.6-2.2-3.3-1.4-5.5z"/>
			<path class="st37" d="m355.5 496.5c-2.5-6-5.1-12.1-7.6-18.1-3.8-9.1-7.9-18-11.6-27.1-2.5-6.1-5.3-12-7.9-18-4.6-10.9-9.5-21.6-14.2-32.4-0.8-1.8-1.8-3.5-2.7-5.3-0.6-0.5-0.6-1.3-0.1-1.9l0.1-0.1c2.9 0.1 4.3 2.5 5.7 4.4 5.2 7 10.3 14 15.1 21.2 2.6 3.9 6.1 6.9 9 10.4 5 5.9 9.5 12.2 14.6 18 3.8 4.4 7 9.2 11.3 13.1 7 6.4 12.6 13.9 18.2 21.5 2.4 3.3 4.8 6.6 7.2 10 1 1.3 1.9 2.7 1.9 4.4l-39-0.1z"/>
			<path class="st41" d="m651.5-3.5c0.5 4.1 2.2 7.8 3.4 11.7 3 9.7 5.7 19.4 6.7 29.5 0.5 4.7 2 9.2 1.9 14.1 0 3.6-1.8 6.1-3.5 8.8-2.5-0.2-4.8-1.2-6.7-2.8-4.5-3.8-9.2-7.5-13.5-11.6-3.9-3.7-7-8.3-10.5-12.4-3.9-4.4-7.5-9.2-11-13.9-4.9-6.6-10-13-14.2-20.1-0.5-1-0.8-2.1-0.7-3.3h48.1z"/>
			<path class="st49" d="m665.5-3.5c0.9 6.2 3.5 11.9 5.5 17.8 2.8 8 6.3 15.8 9.3 23.8 2.5 6.2 4.6 12.6 6.3 19.1 0.7 2.8 2.2 5.5 3 8.3 2.9 10.7 6.5 21.2 9 32 0.1 0.8 0.4 1.6 0.7 2.4 2.8 6.5 3.4 13.6 5.2 20.3 0.2 0.5 0.2 1 0.1 1.5-2.4 4.4-0.4 9-0.8 13.5-0.3 2.9-0.1 3-2.6 6.3-1.6-0.2-3.1-0.6-4.6-1.1-2.4-0.6-5.2-1.3-6.1-4.4-6.1-3.8-9.1-10.6-14.7-15-2.5-2-4.1-4.8-5.9-7.3-3.7-5-7.1-10.4-11.3-14.9-7.2-7.8-13-16.4-18.9-25-9.5-13.8-18.8-27.7-27.8-41.8-7.5-11.8-15.3-23.3-22.1-35.5h4c1.1 3.7 3.8 6.4 5.9 9.6 5.6 8.7 11 17.5 17 26 5.3 7.5 10.1 15.4 15.4 22.8 4.8 6.7 10.1 13 15.1 19.5 3.5 4.5 7.1 9.1 10.4 13.8 1.3 1.8 2.5 3.5 4.5 4.5 1.7 0.9 2.5 2.6 3.5 4.1 4.7 7.2 11.3 12.2 19.3 15.7 2.6-0.7 3.6-2.5 4.1-5.3 0.6-3 0.4-6.2 1.7-9.1 0.8-1.7-0.2-3.2-0.7-4.8-2.1-6.2-2-12.9-3.7-19.2-3.7-14.3-8-28.3-12.7-42.2-3.2-9.8-6.7-19.5-10.5-29.1-0.8-1.9-1.6-4-1.2-6.2l3.6-0.1z"/>
			<path class="st50" d="m648.5 157.5c-1.3-0.7-2.4-1.8-3.1-3.1-8.3-13.6-16.8-27-25.1-40.6-6.6-10.8-13-21.7-19.5-32.6-5.3-8.9-10.8-17.7-15.7-26.8-4.2-7.7-8.8-15-13.1-22.6-4.7-8.4-9.4-17-14.7-25.1-2.2-3.1-3.8-6.5-4.8-10.2h21l6 12c4 5.6 6.8 11.8 9.8 17.9 2.4 6.6 6.2 12.6 9 19 3.6 8.7 8.1 17 11.9 25.7 1 2.2 2.1 4.3 3.2 6.4 6.7 15.1 13.9 29.9 21 44.8 4.3 9.6 8.7 19.2 13.2 28.7 0.9 2 2.5 4.1 0.9 6.5z"/>
			<path class="st51" d="m385.5 357.5l1 2c0.9 2.4 1.5 4.9 3 7l1 2c0.9 2.4 1.5 4.9 3 7 5.7 11.9 11.3 23.7 16.5 35.8 4.2 10 9 19.8 13.3 29.7 3.9 8.9 7.3 17.9 11.4 26.7 2.8 6.1 5.5 12.3 8.2 18.5 1.5 3.5 3.1 6.9 4.7 10.3h-15c-0.7-4-3.4-7.1-5.3-10.4-7.3-12.2-14.1-24.8-21.5-37-2.4-3.9-3.9-8.3-7.2-11.6-4.4-3.8-7.2-8.4-7.3-14.4 4-2.3 4.6-5.6 2.9-9.7-0.7-1.5-1-3.2-0.8-4.9 1.9-9.6-1.9-18.3-4.5-27.1-1.8-6-4.1-11.9-5.9-18-0.6-2.2-1.5-4.4-0.8-6.5 1.6-1 2.4-0.1 3.3 0.6z"/>
			<path class="st37" d="m203.5 89.5c0-1.9-1.2-3.4-2-4.9-4.5-7.9-8.9-15.9-13-24.1-1-2.1-1.4-4.4-1.1-6.7 1.4-6.9-0.1-13.3-2.2-19.9-3.5-10.8-5.8-22.1-8.5-33.2-0.5-1.4-0.2-3 0.8-4.2h33c-0.1 2.2-0.1 4.3 0 6.5 0.5 4.2-1.5 7.6-3 11.1-7.8-1.3-8.6-1.6-12.5-4.3-1.7 0.8-1.8 2.6-2.6 4 1.6 5.5 3.7 10.8 6.3 16 1.9 3.7 1.8 7.9 3.7 11.7 2.8 5.6 4.6 11.6 6.6 17.4 2.4 6.3 4.3 12.7 5.7 19.2 0.8 4.1 2.3 8.2 3.3 12.3 1.6 6.5 2.7 13.1 4.3 19.6 1 3.9 0.2 8.3 0.2 12.4-1.8 0.4-2.3-1.1-2.9-2.2-5.3-9.4-10.4-18.9-15.6-28.4-0.3-0.7-0.5-1.5-0.5-2.3z"/>
			<path class="st26" d="m1301.5 171.5c-1.2-0.5-2.3-1.5-2.9-2.6-3.4-5.4-6.8-10.9-9.8-16.5-3.5-6.5-7.4-12.8-11.1-19.2-4.4-7.5-8.8-15-13.2-22.6-5.8-9.9-11.5-19.9-17.3-29.9-4.3-7.4-8.5-14.8-12.8-22.2-6.6-11.4-12.7-23-19.5-34.3-4.6-7.6-8.8-15.4-13.2-23.1-0.8-1.4-1.6-2.9-1.3-4.7h18c1 0.6 1.8 1.5 2.3 2.5 9.6 19.6 19 39.2 28.5 58.8 9.6 19.8 18.9 39.6 28.4 59.4 7.9 16.3 15.8 32.6 23.2 49.2 0.8 1.7 2.1 3.3 0.7 5.2z"/>
			<path class="st37" d="m128.5-3.5c6.4 13.1 12.9 26.2 19 39.4 2.3 4.9 4.6 9.8 7 14.6 10 16.1 16.6 34 25.1 50.9 1.6 3.3 3.1 6.6 4.8 9.9 0.8 2.3 2.8 4.3 1.5 7.1-2.7 1.2-4-0.8-5.3-2.4-6.6-7.7-12.2-16.2-18-24.6-13-18.7-25.6-37.7-37.7-57-6.8-10.9-13.3-21.9-20.1-32.8-0.9-1.5-2.2-3-1.3-5.1h25z"/>
			<path class="st40" d="m333.5 73.5c-7.3-14.9-14.9-29.8-21.9-44.9-4.4-9.6-9.3-18.9-13.8-28.4-0.6-1.2-1.5-2.2-1.3-3.7h33c1.8 6.6 4.3 13 5.1 19.9 0.2 1.9 1.3 3.7 2.2 5.4 2.4 5 2.7 10.4 3.7 15.7 1.3 7.1 2.1 14.2 3 21.3v1.5c0 0.7 0.2 1.5-0.1 2-2.4 3.2-1.4 7.3-2.5 10.6-2.7 1-5.1 0.5-7.4 0.6z"/>
			<path class="st52" d="m1230.5 129.5v-0.5c-3.5-7.4-7.2-14.8-12-21.5-4.9-9-9.2-18.4-15-27-0.2-2.4-1.6-4.3-2.7-6.3-9-16.1-17.7-32.3-25.8-48.8-0.6-1.2-0.9-2.5-2.4-2.9-0.6-3.1-2.3-5.8-3.9-8.5-3.4-5.7-6.1-11.7-9.1-17.5h20c0.2 3.5 2 6.6 3.4 9.7 4.5 10 8.4 20.2 12.7 30.3 3 7.1 6.4 14 9.4 21.1 3.8 9.1 7.9 18 11.8 27 3.1 7.4 6.2 14.8 9.4 22.2 6.5 15.2 13.9 30 19 45.8 0.3 1 0.4 1.9 0.4 2.9h-1c-0.2-2.4-1.6-4.2-2.7-6.2-3.4-6.4-7-12.8-10.5-19.2-0.3-0.3-0.7-0.4-1-0.6z"/>
			<path class="st4" d="m610.5 496.5c-4.7-10.8-9.3-21.8-14.3-32.5-3.2-6.7-5.9-13.5-9-20.3-5.1-11.2-10-22.5-15-33.8-3.2-7.1-6.6-14-9.6-21.1-5.3-12.4-11.4-24.4-16.4-36.9-1-2.4-2.5-4.7-3.5-7.1-0.5-1.1-1.7-2.2-0.8-3.9 3.6 4.7 5.8 10.1 8.8 15 8.9 14.6 17.2 29.6 25.7 44.4 8.1 13.9 16.1 27.9 24.2 41.9 6 10.6 12.5 20.8 18.5 31.4 3.5 6.2 7.2 12.2 10.7 18.3 0.8 1.4 1.9 2.7 1.8 4.5h-21.1v0.1z"/>
			<path class="st53" d="m248.5 59.5c-2.1-7.3-6-13.8-9.3-20.6-6.5-13.7-13-27.3-19.5-40.9-0.1-0.5-0.2-1-0.2-1.5h9c1.9 1 2.7 2.8 3.7 4.6 10.3 18.8 20.4 37.6 31 56.2 1.5 2.6 2.2 5.5 3.3 8.2 3.1 5.9 6.2 11.9 9.8 17.6 0.2 0.4 0.1 1 0.2 1.4 4.8 14.8 10.5 29.3 11.9 44.9 0.3 2.8 0.8 5.8-3.1 6.7-2.2-0.4-2.7-2.3-3.5-3.9-10.8-22.5-21-45.3-32.2-67.6-0.7-1.5-1.9-3.1-1.1-5.1z"/>
			<path class="st54" d="m103.5-3.5c3.7 7.3 8.5 14 12.6 21.1 8.3 14.3 17.6 28 26.5 42 5.1 8 10.7 15.7 16 23.6 2.9 4.2 5.5 8.6 8.5 12.6 5 6.7 9.2 14 14.9 20.2 1 1.1 2.2 1.9 3.5 2.6 2.8 0.1 3.2 2.6 4 4.4 6.4 14.2 13.2 28.2 19.7 42.3 0.5 2.1 2.1 4 1.4 6.4-3.5 1.1-4.6-1.7-6.2-3.7-9.4-11.5-16.7-24.4-25.3-36.5-19.3-27.1-36.2-55.8-54.4-83.7-10-15.3-18.7-31.4-28.8-46.8-0.9-1.4-1.8-2.9-0.4-4.5h8z"/>
			<path class="st6" d="m0.5 136.5c1.9 1.5 2.4 3.9 3.4 5.9 2.6 5.6 5 11.4 7.7 17.1 3.8 8.1 7.8 16 11.5 24.1 6.8 14.6 13.3 29.3 20.1 44 2.3 4.9 4.6 9.8 6.9 14.8 6.5 14.4 13.4 28.6 19.8 43 1.8 4.1 4.1 8.1 4.9 12.9-1.8-3.1-3.7-6.2-5.4-9.3-6.9-12-13.8-24-20.6-36-5.3-9.3-10.3-18.8-15.5-28.1-5-8.9-10.2-17.6-15.2-26.5-4-7-7.7-14.2-11.6-21.2-1.6-3.4-3.6-6.6-5.9-9.6l-0.1-31.1z"/>
			<path class="st8" d="m1301.5 171.5c-2.4-7.2-6-13.9-9.3-20.7l-22.8-47.7c-6.5-13.5-13.1-27-19.3-40.6-4.9-10.8-10.6-21.3-15.5-32.1-4.1-9-8.7-17.8-13-26.7-1.1-2.4-2.1-4.8-3.1-7.2h6c7.1 15 14.3 29.9 21.4 44.9 4 8.4 7.8 17 11.7 25.5s7.9 17 11.9 25.4c0.5 1.1 0.8 2.5 2 3.2 0 1.2 0.2 2.3 0.7 3.4 2.8 5.8 5.6 11.6 8.3 17.4l20.7 45.3c1.4 3 2.9 5.9 4.4 8.9 0.9 4.1 3.2 7.5 4.8 11.3 4.1 9.5 8.7 18.8 13 28.2 5.3 11.8 10.4 23.7 15.8 35.5 1.3 2.8 2.3 5.8 4.5 8.1 0 1.3 0.3 2.6 0.9 3.8 4.8 10.6 9.6 21.3 14.4 31.9 0.5 1.1 0.7 2.2 0.7 3.4-2.5-2.7-3.6-6.2-5.1-9.4-3-6.4-5.8-12.8-8.8-19.2-3.8-8-7.6-16-11.4-24-6-12.6-12-25.2-17.9-37.9-4.5-9.7-9.1-19.3-13.6-29-0.5-0.8-0.6-1.5-1.4-1.7z"/>
			<path class="st55" d="m95.5-3.5c-0.1 1.2 0.1 2.3 0.8 3.3 6 7.7 10.5 16.3 15.6 24.5 5.9 9.5 11.7 19 17.5 28.6 5.6 9.1 12 17.7 17.5 26.8 4.8 8 9.5 16.1 14.7 23.9 6.8 10.4 13.7 20.8 21 31 4.8 6.7 9 13.7 13.7 20.5 3.3 4.7 7.3 8.9 10.3 13.8 0.8 1.3 2 2.8 4 2.6 2 0.6 2.7 2.4 3.4 4 4 9 8.4 17.9 12.4 26.9 0.7 1.6 1.7 3.3 0.2 5.1-8-11.2-16.4-22.1-23.9-33.6-5.2-8-10.7-15.8-15.9-23.7-3.9-5.9-7.3-12.1-11.3-17.9-7.6-11.1-14.6-22.6-22-33.9-5.1-7.7-10-15.4-14.9-23.2-5.9-9.5-11.7-19-17.4-28.6s-11.8-19-18.3-28c-4.5-6.2-9.7-12-14.2-18.4-0.8-1.1-1.2-2.4-1.1-3.7h7.9z"/>
			<path class="st6" d="m747.5 375.5c0.4-1.5-1.6-2.6-0.6-4.7 1.7 2.9 3.3 5.5 4.8 8.2 8.6 15.4 17.1 30.8 25.8 46.2 8.9 15.8 18 31.4 27 47.1 4.1 7.1 8.1 14.3 12.1 21.5 0.6 0.8 1 1.8 1 2.8h-17c-0.3-4.4-2.9-8-4.5-11.9-4.7-11.5-9.9-22.9-14.7-34.4-2.8-6.8-6.1-13.5-9-20.3-5.7-13.1-11.2-26.3-17.3-39.2-2.4-5.1-3.8-10.8-7.6-15.3z"/>
			<path class="st26" d="m177.5-3.5c-0.1 1-0.1 2 0.1 3 2.9 7.8 4 16.1 6.3 24.1 1.5 5.3 2.6 10.8 4.7 15.9 1.6 3.9 1.3 7.9 0.7 11.7-0.4 3.1-0.7 6.2-0.7 9.3-3-3.7-4.7-8.2-7-12.4-5.8-10.7-11.9-21.3-17.3-32.2-3.3-6.6-7.1-13-10.7-19.4h23.9z"/>
			<path class="st56" d="m685.5-3.5c1.1 5.6 4.3 10.3 6.3 15.5 2.7 7.1 5.8 13.9 8.7 20.9 1.4 3.3 2.5 6.8 4.2 10 4.5 8.3 7.2 17.2 10.8 25.9 1.6 3.8 3.2 7.5 4.8 11.3 1.1 2.7 2.5 5.4 2.2 8.5-4.1-1-3.7-5.3-5.8-7.7-3.1-6.1-7-11.8-9.3-18.3-3.1-6.1-5.6-12.6-10-18 0-1.8-1.1-3.1-1.8-4.5-4-7.5-8.1-15-12.2-22.5-0.2-0.4-0.7-0.7-1-1-3.9-6.5-7.6-13.2-11-20h14.1v-0.1z"/>
			<path class="st57" d="m266.5 65.5c-2.3-3.9-4.7-7.8-6.9-11.8-4.4-8.1-8.6-16.3-13.1-24.3-6.2-10.9-12.2-21.8-18-32.9h16c-0.5 2.2 0.4 4.4 1.2 6.2 4 8.9 7.5 18.1 10.4 27.4 3.1 10.1 7.7 19.7 9.8 30.1 0.4 1.7 0.5 3.5 0.6 5.3z"/>
			<path class="st16" d="m503.5 496.5c0-1.3-0.3-2.6-0.9-3.8-6.5-14.2-12.9-28.4-19.2-42.6-1.5-2.9-2.5-6.1-3.1-9.3 5.5 9.3 11.1 18.5 16.6 27.8s11 18.6 16.5 28h-9.9v-0.1z"/>
			<path class="st58" d="m938.5 465.5c0.6 3.7 3.2 6.3 5 9.4 3.7 6.5 7.6 12.9 11.4 19.3 0.4 0.7 0.7 1.5 0.6 2.3h-6l-16.6-37c3.6 1.5 2.9 5.3 5.6 6z"/>
			<path class="st49" d="m199.5 280.5c1.7 5.7 5.4 10.4 8.1 15.5 0.8 1.5 1.9 2.7 1.9 4.5-1.5-0.2-2.4 1-3.8 1.3 1.6 9.8 5.2 18.9 7.1 28.4 1.3 6.5 2.6 13 3.8 19.6 0.8 4.4 1.3 8.6 0 13.1-1.8 6.3-2.1 7-8.2 9.5 1.4 1.8 2.4 3.8 3 6 0.2 0.9 0.7 1.7 1.5 2.3 2.4 2 2.3 2.2-0.3 4.8-3.3-2.9-4.6-7-6.8-10.6-5.1-8.4-9.9-16.9-14.7-25.5-3.2-5.7-6.3-11.4-9.6-17.1-0.8-1.4-1-3.3-2.9-3.8-7-13-14.5-25.7-21.7-38.6-3.8-6.9-7.8-13.7-11.5-20.6-4.8-9.1-10.3-17.9-15.3-26.9-2-3.6-3.7-7.3-5.5-10.9-0.9-3.8 1.7-2.8 3.5-2.3 2.1 0.6 3.7 2.2 5.6 3.2 6.3 3 9.8 1.1 10.5-6 0.6-6.5-0.7-12.9-1.5-19.3-0.3-2.6-0.7-5.2 1-7.9 3.5 0.6 5.4 3 7.6 5.2 4.1 4 6.5 9.7 12.2 12.1 5.3 4.1 7.2 10.4 10.2 15.8 8 14.4 16.2 28.7 24 43.3 0.7 1.5 1.4 3.2 1.8 4.9z"/>
			<path class="st24" d="m440.5 161.5c3.5 4.5 5.7 9.8 8.8 14.6 0.4 0.5 0.5 1.2 1.2 1.4 5.9 6.9 9.4 15.2 13.8 23 13.5 24.3 27.1 48.4 40.7 72.6 2.6 4.6 5.6 9 6.5 14.4-0.1 3 0.5 5.9 1.8 8.6 1.5 3.3 2.3 6.9 2.2 10.5-0.1 2.8 0.2 5.6 0.8 8.3 1 4.4-0.4 8.8-1.2 13.2-0.8 3.8-6.4 6.1-10.5 5-3.4-0.9-6.3-2.9-10.1-4.4 0.5 3.8 1.1 7.2 1.4 10.6 0.4 5.1 3.1 9.7 2.6 14.9-0.1 1.1 0.3 2.4-0.6 3.3-2.2 2-1.3 4.2-0.2 6.4l-1.8 4c8.8 28.7 18.8 56.7 20.7 86.5-0.8 0.9-1.8 1.6-3 2-2.3-4.5-4.9-8.9-6.7-13.6-2-5.2-4.6-10.2-6.8-15.3-4.7-10.7-9.8-21.2-14.8-31.8-3.5-7.6-7.1-15.2-10.5-22.9-0.3-0.6-0.4-1.2-1.2-1.5-5.4-8.2-8.8-17.5-12.9-26.3-5.8-12.3-11.8-24.5-17.1-37-0.7-1.7-1.6-3.3-1.6-5.2 0.2-2 0.2-4-0.1-6-0.3-4 1-5 5-4.4 2.3 0.3 4.3 1.9 7 2.1 2.6-7.6 4-15.8 2.6-23.5-3.6-18.6-6.4-37.4-13.3-55.2-2.5-6.5-3.3-13.6-5.8-20.1-0.9-1.9-0.7-4 0.4-5.8 4.7-6.4 3.8-13.5 2.4-20.6-0.6-2.4-1.9-5.2 0.3-7.8z"/>
			<path class="st24" d="m433.5 109.5c-1-5.4-4.2-9.8-6.3-14.8-0.9-2.1-2.5-3.9-2.7-6.3 0.8-0.1 1.8-0.1 1.9-1.1 0.2-1.5 0-3-0.6-4.3-2.4-6.1-4.5-12.3-6.8-18.4-0.4-1-0.8-1.8 0.1-3 2.4 0.9 4.5 2.3 6.2 4.3 5.8 6.6 13.1 11.7 21.3 14.8 2.1 0.8 3.5 2.9 4.9 4.9 9.9 14.7 18.8 30.1 28 45.2 5.5 9 11.2 17.8 16.9 26.6 9 14 17.9 27.9 27 41.8 6.5 9.9 13.1 19.6 19.7 29.4 6.8 10.1 13.6 20.1 20.5 30.1 1.2 1.9 2.9 3.6 4.9 4.8 2.1-0.3 2.4 1.4 3 2.7 6.3 14 12.5 28 18.7 41.9 0.5 1.1 1 2.2 0.3 3.3 0.9 4.1 3.2 7.5 4.8 11.3 5.6 13.1 11.7 26.1 17.3 39.2 1.5 3.4 3.9 6.5 3.9 10.5-6-9.2-11.8-18.5-18-27.5-6.4-9.2-12.6-18.4-18.7-27.8-11.5-17.9-23.3-35.8-34.5-53.9-5.8-9.5-11.8-19-17.8-28.4-6.1-9.5-11.9-19.3-17.8-28.9-5.8-9.4-11.5-18.8-17.3-28.1-1.4-2.2-2.9-4.4-4.3-6.6-1.9-3-4.5-4.6-7.4-6.6-0.6 3.5-0.3 7.1 1 10.4 3.4 8.7 6.5 17.5 10.1 26.1 3.9 9 6.9 18.4 10.5 27.5 4.2 10.6 7.8 21.5 11.7 32.3 4.7 13 8.7 26.4 12.9 39.6 0.6 1.8 2 4.2-1.5 5-2.6 0-3.1-2.3-3.8-4-11.7-26.3-23.9-52.3-36-78.5-9.1-19.8-18.2-39.6-27.8-59.1-8.1-16.4-15.3-33.3-23.4-49.7-0.8-1.3-1.1-3-0.9-4.7z"/>
			<path class="st19" d="m433.5 109.5c6.8 14.3 13.8 28.5 20.3 42.9 3.5 7.8 7.4 15.4 11.1 23.1 5.8 12.2 11.3 24.5 16.9 36.8 2.1 4.6 4.5 9.2 6.6 13.8 5.1 11.4 10.7 22.6 15.9 34 6 13.1 11.8 26.4 17.8 39.6 0.9 2 1.5 4.4 3.4 5.9 1.4 5.3 4.3 10.1 6 15.3-4-4.2-6-9.6-8.9-14.3-3.9-6.2-7.4-12.7-11.1-19-1.4-0.8-1.6-2.4-2.3-3.7-6.1-11.8-12.8-23.3-19.4-34.9-3.8-6.7-7.6-13.4-11.3-20.2-5.7-10.5-11.7-20.9-17.5-31.3-3.3-6-6.7-12-10-18.1-0.2-0.6-0.4-1.2-0.5-1.9 0.5-1.2 1.2-2.2 0.7-3.7-3.1-10-6-20-9.1-30-1.6-5.5-3.3-10.9-4.9-16.4-1.2-4.2-2.9-8.3-4.1-12.6-0.5-1.8-1.4-3.6 0.4-5.3z"/>
			<path class="st6" d="m1283.5 225.5c1.3 0.9 2 2.4 2 4-2-0.6-2.1-2.3-2-4z"/>
			<path class="st59" d="m788.5 207.5c3.5 4.5 5.7 9.8 8.8 14.5 2.9 4.5 4.9 9.6 8 14 0.3 0.4 0.1 1 0.2 1.4-0.7 3.2 1.1 5.8 2.2 8.4 3 7.3 6.7 14.3 9.2 21.7 2 5.7 3 11.7 5.6 17.2 3 6.6 4 13.8 6.6 20.5 3.9 10.1 7.3 20.3 10.2 30.7 3.3 11.6 7.5 23 10.7 34.6 3.4 12.4 7 24.8 10.1 37.3 1.9 7.6 2.8 15.4 4.2 23.1 0 0.2 0.1 0.4 0 0.5-2.5 3.9-1.2 8.2-0.8 12-5.6 6.4-12.1 6.5-18.8 0.7-4.5-3.9-9.3-7.5-13.1-12.1-7.7-9.5-16.3-18.1-23.5-28-5.4-7.3-10.5-14.7-16.2-21.8-7.2-9-14.1-18-20.8-27.4-3.4-4.7-7.1-9.1-11.1-13.3-2.7-3.1-5.2-6.4-7.4-9.9-8.7-12.7-17.6-25.4-26-38.3-8.9-13.8-17.9-27.5-26.8-41.4-7.1-11.2-14.6-22.2-21.5-33.6-0.4-0.9-1.1-1.6-2-2-5-10.7-10-21.3-14.9-32-0.1-0.3-0.1-0.7-0.1-1 2.4-0.5 3.1 1.6 4.3 2.8 4.5 5 7.6 10.9 11.1 16.6 23.4 36.6 46.3 73.6 72.4 108.3 15.4 20.5 29.6 41.8 45.2 62.1 11.3 14.7 22.4 29.8 36.9 41.8 3.8 3.1 8 7 12.8 4.8 4.4-2 3.7-7.7 3.9-12.1 0.6-9.8-2.2-19.2-4.3-28.5-4-18-9.2-35.8-15.6-53.1-7-18.9-13.5-37.9-20.3-56.9-6.8-18.8-13.8-37.4-20.4-56.2-0.3-1.5-2.2-4 1.2-5.4z"/>
			<path class="st35" d="m627.5 154.5c0.7-1.4 1.6-1.1 2.2-0.2 1.1 1.7 1.7 3.6 2.8 5.2 9 12.2 15.7 25.8 23.9 38.5 6.4 9.9 12.3 20.2 18.5 30.3 5.5 9 11 17.9 16.5 26.9 1 1.7 2.4 3.2 4.1 4.2 2.7 3.5 4.1 7.8 5.8 11.8 2.1 5 4.5 9.9 6.7 14.8 4 8.8 8.1 17.6 12.1 26.5 0.3 0.7 0.4 1.7 1.4 1.9-0.3 1.6 0.5 2.9 1.1 4.3 5.1 11.2 10.2 22.4 15.4 33.6 0.6 1 0.6 2.2 0.1 3.2-5.1-9.2-10-18.1-15-27-7.8-13.9-15.6-27.8-23.4-41.7-4.2-7.5-8.1-15-12.2-22.5-2-3.8-4.5-7.3-6.1-11.3-0.3-0.8-1-1.4-1.8-1.6-0.3-2.6-1.8-4.6-3-6.7-5.5-10.3-11.1-20.4-16.7-30.6-6.1-11.1-12.1-22.2-18.2-33.3-4.7-8.5-9.4-16.9-14-25.4-0.2-0.2-0.2-0.5-0.2-0.9z"/>
			<path class="st60" d="m590.5 311.5c-4.3-9-8.1-18.2-12.3-27.3-3.2-6.9-5.8-14.2-9.8-20.7-1-2.7-1.9-5.6-3.1-8.2-5.7-12.5-11.5-24.9-17.2-37.5-1.8-3.9-3.2-7.8-5.8-11.3 0.3-1.8-0.6-3.2-1.3-4.7-2.8-5.9-5.7-11.9-8.5-17.8-0.1-0.5-0.2-1-0.2-1.5 3.2-1.4 4.1 1.4 5.4 3 7.2 9.4 15.1 18.2 23.5 26.4 3.2 3.1 6.7 6.1 10.8 8 5.8 2.7 8.6 0.7 9-5.7 1-15.1-3.1-29.3-6.9-43.6-1.3-4.8-2.4-9.7-4-14.4-0.5-1.6-1.1-3.2 0.3-4.7 4.3 5.2 6.8 11.4 10 17.3 1.5 2.7 2.7 5.6 4.9 7.8 4.9 5.3 7.4 12.1 10.9 18.3 16.6 30.1 33.4 60.1 49.9 90.3 0.9 1.6 2.8 3.1 1.3 5.4-0.2 3.6 0.5 7.2 2 10.5 2 5 3.6 10.1 4.8 15.4 2 8.6 4.6 17 6.3 25.7 0.9 4.5 1.4 9 2.1 13.6s0.5 9.2 0.8 13.8c0.3 4.2-1 7.4-4.6 9.8-5.2 1.2-9.5-0.9-13.2-4.1-5.2-4.6-10.5-9.1-15.4-14.1-6.4-6.7-11.9-14.1-17.8-21.2s-11.3-14.5-16.5-22.1c-1-1.5-2-3-2.8-4.6-0.3-1.3-1.4-1.9-2.6-1.8z"/>
			<path class="st49" d="m647.5 290.5c-1.7-3.5-3.4-7.1-5.3-10.5-6.4-11.5-12.8-23-19.3-34.5-6-10.8-12.1-21.5-18.2-32.3-2-3.6-3.7-7.3-5.8-10.9-4.6-7.8-8.7-15.9-13-23.9-0.2-0.6-0.4-1.2-0.5-1.9 0.2-2.5-0.2-5-1.1-7.3-7.3-20.3-14.2-40.7-22.3-60.7-0.7-2-1.2-4-1.6-6.1 0.9 0.4 1.6 1.1 2 2 3.3 6.4 6.5 12.9 10.1 19.2 6.4 11.2 11.7 23.1 18.9 33.8 0 1.6 0.7 3.1 2 4 1.7 2.1 2.6 4.7 4 7-0.1 1.6 0.9 2.8 1.6 4.1 7.4 13.5 14.9 27 22.3 40.5 3.8 7.1 7.5 14.3 11.2 21.4-0.2 4.6 1.8 8.7 3.5 12.7 4.8 11.6 8.9 23.5 13.3 35.3 2.1 5.6 4 11.4 5.8 17.1 0.3 1.3 0.4 2.6 0.4 3.9-2.3-3.9-4.6-7.7-6.8-11.6-0.3-0.4-0.5-1.1-1.2-1.3z"/>
			<path class="st49" d="m803.5 127.5c-1.9-4.5-3.7-9-5.8-13.5-4.8-10.3-9.8-20.4-14.7-30.6-0.2-0.6-0.4-1.2-0.5-1.9 3.1 0.3 4.4 2.8 5.9 4.8 5.3 6.9 9.9 14.2 14.8 21.4 12.8 18.9 25.6 37.7 39.6 55.7 5.3 6.9 10.7 13.7 16.4 20.3 1.7 2 3.5 4 5 6.1 0.9 1.2 2.1 2.1 3.4 2.6 2.8 3.6 4.6 7.8 6.3 11.9 2 4.8 4.5 9.4 6.7 14.1 3.6 7.8 7.1 15.6 10.7 23.3 4.1 8.7 8.3 17.3 12.3 25.9 6 12.8 12.2 25.6 17.8 38.6 2.9 6.6 6.6 12.9 9 19.7 0.1 0.5 0.2 1 0.2 1.5-0.8 0.1-1.7-0.2-2.3-0.8-5.7-8.6-12.9-16.1-19-24.5-6.1-8.3-12.4-16.9-18.8-25.3-5.1-6.8-10-13.8-14.8-20.9-9.2-13.5-18.3-27.2-27.4-40.8-1.3-1.9-2.8-3.6-4.3-5.3 0 0-0.3 0.1-0.4 0.2s-0.2 0.3-0.2 0.5c-2.4-1.8-2.4-4.9-3.6-7.3-5.2-10.2-10-20.5-15-30.8-0.2-0.6-0.3-1.2-0.4-1.9-1.5-0.8-2.6-2.1-3.2-3.7-4.8-11.7-11.4-22.6-16.6-34.1-0.6-1.6-1.8-3.2-1.1-5.2z"/>
			<path class="st26" d="m442.5 303.5l18.6 40.2c3.2 6.9 6.4 13.7 9.7 20.5 1.2 2.3 2.1 4.8 2.7 7.3-2.3 0.7-1.8-2.7-3.8-2.5-0.7 1.7 0 3.5-0.5 5.3-1.4 5-6.2 9.8-12.7 5.3-1.8-1.3-3.5-3.1-6-3-1.6-0.5-2.2-1.9-2.9-3.2-8.9-19.5-17.8-39-26.8-58.4-9.4-20.5-18.9-41-28.4-61.5-1.8-3.8-4.5-7.4-4-12 6.3-1.1 7.1-2 7.7-8.6 0.1-0.8 0.1-1.7 0.2-2.5 0.2-1.7 0.6-3.3 2.4-4s3.3 0.2 4.4 1.5c1.9 2.3 4.2 4.2 6.7 5.8 4.2 4.8 6.2 10.8 8.7 16.5 7.6 15.9 15.2 31.8 22.4 47.9 1 1.6 2.1 3.3 1.6 5.4z"/>
			<path class="st51" d="m388.5 241.5c5.1 11.2 10.2 22.5 15.3 33.7 2.4 5.2 5.1 10.3 7.4 15.6 4.4 10.1 9.3 20 13.9 30 5.9 12.8 11.9 25.7 17.7 38.6 2.6 5.7 5.1 11.4 7.6 17.1 5.2 12.2 11.3 24.1 16.2 36.4 1.1 2.8 2.6 5.4 3.9 8 0.5 1.1 1.3 2 0.2 3.6-2.5-4.2-5-8.2-7.4-12.3-6.9-11.8-14-23.5-20.7-35.3-4.3-7.5-8.4-15.2-13.2-22.4-4.8-9.3-10.1-18.3-15.5-27.3-4.7-7.9-9-16-13.5-24s-8.9-15.6-13.4-23.5c-0.3-0.5-1-0.8-1.5-1.2-0.4-0.3-0.7-0.8-0.9-1.3s-0.3-1-0.4-1.6c-2.5-11.7-4.1-23.5-8.5-34.8-1.4-3.5-2.7-7.6-0.1-11.7 4.6-0.5 7 3.1 10.1 5.4 1.3 2.3 3.6 4 2.8 7z"/>
			<path class="st25" d="m163.5 217.5c-4.1 0.3-5.7-3.1-7.7-5.5-3.6-4.4-7.1-8.9-12.3-12.5 0 2.9 0.2 5.7 0.5 8.6 0.9 6.3 2 12.7 1.4 19.1-0.1 3.3-1.9 6.4-4.7 8.2-3.2 0.6-6.3-0.8-9.3-2.5-1.6-0.9-2.9-2.2-4.5-3.1-1.6-0.8-2.5-0.2-2.5 1.7-1.9-2.6-3.6-5.4-5.1-8.3-7.3-13.1-14.1-26.4-21.7-39.3-4.3-7.2-8-14.7-12.1-22.1-6.2-11.2-12.5-22.4-18.7-33.6-3.6-6.5-7.1-13-10.7-19.5s-7.1-13-10.7-19.4c-0.6-0.8-0.9-1.8-0.9-2.8 0.1-0.5 0.6-0.9 1.1-0.8 2.2 3 5.1 5.4 7.7 8.2 2 2.1 4 4.4 5.9 6.6 3.7 4.4 8.4 7.9 13.7 10.1 5.1 2 8.3-0.3 8.6-5.7 0.2-3.1-0.2-6.2 0.2-9.7 2.4 1 3.8 2.3 4.6 3.9 3.3 7.1 9.5 12.2 13.2 18.9 3.9 7 10.6 11.7 15.2 18.2 1.3 2 3.5 3.2 5.8 3.4 2.5-0.1 3.3 2.1 4.1 3.7 12.4 23.5 25.8 46.5 38.1 70.1 0.7 1.2 1.6 2.5 0.8 4.1z"/>
			<path class="st27" d="m597.5 168.5c-2.5-1.7-3.2-4.4-4-7 2.6 1.3 4.2 4.1 4 7z"/>
			<path class="st9" d="m738.9 356.2c2 1.1 2.3 2.4 2.7 4.3-2-1.1-2.3-2.4-2.7-4.3z"/>
			<path class="st61" d="m863.5 337.5c0.2-5.2-2.6-9.4-4.5-13.9-4.1-9.8-8.7-19.4-12.6-29.3-2.3-5.8-5.2-11.3-7.5-17.1-4.6-11.4-8.9-22.9-13.4-34.3-5.6-14.3-11.4-28.5-17.1-42.8-4.2-10.6-9.5-20.8-13.1-31.8-1.1-3.2-2.8-6.3-4.1-9.5-0.9-2.1-1.6-4.3 0.3-6.3 1.9 0.6 2.4 2.2 3 3.7 11 23.9 22.8 47.4 33.8 71.2 9.9 21.6 20 43.2 29.8 64.8 0.6 1.3 1.4 2.7 1.3 4.2 0.4 1.9 1 3.8 1.9 5.6 4.7 10 9.4 19.9 14 30 6 13.1 11.8 26.4 17.8 39.5 4.3 9.4 8.8 18.8 13.1 28.2 5.4 11.8 10.5 23.7 15.8 35.5 1.1 2.5 2.4 4.9 3.3 7.6-2.5-1.2-3.2-3.9-4.4-5.9-9.6-16.1-19-32.3-28.4-48.5-8.7-14.9-17.3-29.9-25.9-44.8-1.1-1.9-2.1-4-3.1-6.1z"/>
			<path class="st19" d="m859.5 296.5c-2.6-2.9-3.7-6.5-5.4-9.9-3.8-8-7.5-16.1-11.2-24.2-6.6-14.2-13.1-28.4-19.7-42.6-3.5-7.6-6.7-15.4-10.6-22.8-6.5-12.2-11.6-25.1-18-37.3-1.2-2.3-2.1-4.8-3.1-7.2v-2c1.5-0.6 1.1-1.9 0.9-3-1.1-5.9-1.1-5.9 3.5-9.1 1.2-1.4 0-3.3 1.2-5.1 3.7 0.1 3.9-4 6.4-5.9 5.6 11.2 11.3 22.3 16.8 33.6 1.5 3.1 2.8 6.3 4.2 9.4-2.1 0-3 1.1-3 3.1 0.1 3.3-0.5 6.6 1 9.4-0.4 3.1-3.5 2-4.6 3.7 0 4 1.8 7.5 3.3 11 5 11.8 9.9 23.5 14.8 35.3 4.6 11 9 22.1 13.8 33.1 1.1 2.5 1.9 5.2 2.9 7.8 2.5 6.6 4.9 13.1 7.4 19.7 0.4 1.3 0.9 2.3-0.6 3z"/>
			<path class="st9" d="m925.9 445.4c2.3 0.8 3 1.8 2.3 3.8-1.7-0.7-1.9-2-2.3-3.8z"/>
			<path class="st26" d="m163.5 217.5l-21.9-40.8c-5.9-10.8-11.8-21.7-17.7-32.5-0.9-1.7-2-3.3-3.3-4.8v-1c-0.1-1.2 0.5-2.3 1.6-2.7 3 3.6 8.3 4.5 10.7 9.3 1.3 2.4 2.9 2 6.8-0.6 3.4-0.1 3.7 2.9 4.8 4.9 9.9 18.3 19.8 36.6 29.9 54.8 11.5 21.5 23.3 42.8 34.9 64.2 1.3 2.4 4 4.7 2.4 8.1-0.2 1.2-1.3 2-2.5 2-2.9-0.1-5.6 1.5-8.6 1.1-0.3 0-0.7 0.6-1 0.9-3.8-3.8-5.3-8.9-8-13.4-4.5-7.5-8.3-15.3-12.7-22.8-5.2-8.8-9.4-18.3-15.4-26.7z"/>
			<path class="st39" d="m173.5 204.5c-0.8-0.2-1.5-0.8-1.8-1.6-2.1-4.5-4.6-8.7-7-13-7.8-14.4-15.5-28.9-23.2-43.4-0.4-0.9-1.1-1.6-2-2-3-6-5.9-12.2-9.1-18.1-8.2-15.2-16.5-30.3-24.7-45.4-0.1-0.5-0.2-1-0.2-1.5 6.5-5.1 9.4-5.1 15.3 0 6.2 5.4 11.3 12.1 18.8 16.3 2.8 1.6 4.2 5.1 6.2 7.8 8.4 11.8 15.5 24.5 23.4 36.6 11.4 17.4 22.4 35 33.7 52.5 12.8 19.8 25 40.1 38.8 59.3 5.1 7 9.5 14.5 15.5 20.8 1.9 2.3 2.6 5.2 4.2 7.7 7.3 15.7 14.8 31.3 21.4 47.2 0.5 0.9 0.7 1.9 0.7 2.9-0.1 1.8 1.5 3.2 1 5-2.5 0.5-3.6-1.4-4.8-2.8-8.6-10.1-16.5-20.9-23.6-32.2-6.5-10.5-14.8-19.7-21.5-30-10.3-15.9-21.8-31-32-47-6.2-9.7-11.5-19.9-18.4-29.1-1.3-1.8-2.5-3.9-5.2-5.2 1.1 6.4 1.5 12.3-5.5 15.2z"/>
			<path class="st61" d="m173.5 204.5c1.8-1.6 2.2-4.4 4.5-5.1 1.8-4.5-1.3-8.6 0.1-13.2 2.3 1.3 4.2 3.1 5.7 5.2 5.4 7.6 10.4 15.5 15 23.7 1.4 2.4 3 4.7 4.6 7 6.8 9.8 12.8 20.2 19.9 29.9 2.7 3.7 6 7 8.3 11 2.1 3.7 4.6 7.2 6.7 10.9 1.6 2.7 3.6 5.1 5.7 7.4 5.5 6.2 9.5 13.4 14 20.2 1.7 2.6 3.5 5.1 5.5 7.6 3 3.7 5.3 7.9 8.2 11.6 4.1 5.1 7.6 10.8 12.9 14.8 3.5 4.4 4.6 10 7.3 14.9 2.1 3.9 3.5 8.1 5.2 12.1 4.1 9.3 8.2 18.5 12.4 27.8 0.5 1.1 0.7 2.5 2 3.2v2c-5.7-1.7-10.9-4.7-15.2-8.8-6-5.3-11.6-10.9-16.9-16.9-6.5-7.4-12.6-15.1-18.7-22.8-5-6.3-9.7-12.7-14.5-19.2-3.9-5.3-7.6-10.6-11.9-15.6-0.8-0.9-1.6-1.7-2.9-1.6-4.1-5.1-6.5-11.3-9.9-16.8-3-4.9-5.4-10.1-8.1-15.2-0.4-0.9-1.1-1.6-2-2-0.1-2.2-1.5-4-2.5-5.8-6.1-11.4-12.1-22.9-18.6-34.1-5.3-9.2-10-18.8-15.4-28-0.5-1.4-1.5-2.6-1.4-4.2z"/>
			<path class="st62" d="m283.5 330.5c-2.3-1.8-2.6-4.6-3.7-7.1-1.7-4.1-3.7-8-5.5-12.1-4.3-9.7-8.9-19.3-13.4-28.9-0.2-0.6-0.4-1.2-0.5-1.9 3.7-1.4 5.1 1.8 6.6 3.9 6.8 9.3 14 18.2 20.5 27.6 8.1 11.8 18.7 21.3 29 30.9 4.5 4.2 10.3 7.3 17.3 4.7 3.6-1.3 6.8 0.5 9.3 3.3 2 2.2 4.2 3.9 7.4 2.2 2.3 0.4 3.1 2.4 4 4.1 11.7 20.8 23.6 41.4 35.3 62.1 0.7 1.3 1.7 2.5 1.5 4.1 1.6 5 4.5 9.4 7 14-2.8 0.9-3.1 5.5-7.2 4.6-4.8-2-7.9-6.4-11.5-10.2-0.6-0.7-0.9-1.8-1.8-2.3-8.3-4.3-13-12-18-19.4-2.4-3.5-5-5.9-9.5-5.9-2.4 0-4.6-1.3-5.7-3.5-1-1.9-2.6-2.8-4.2-4-6.6-4.9-12.6-10.8-17.6-17.4-4-5.2-8.4-10.1-12.3-15.4-5.1-7.1-10.8-13.7-16.4-20.4-2.4-2.9-4.7-6-6.7-9.1-0.8-1.4-2.2-2.8-3.9-3.9z"/>
			<path class="st12" d="m385.5 277.5v1c0.2 3.1-0.2 6.2 0.8 9.3 0.6 2.3 0.6 4.6 0 6.9-0.4 1.7-0.8 3 0.1 4.6 0.8 1.6-0.2 3.2-1.3 4.8-0.9 1-2.9-0.2-4.2 1.9-1.8 5.9-2 12.2-0.5 18.2 0.3 1.3 0.6 2.9 0 3.9-1.6 2.9-0.4 5.4 0.4 8 1.6 4.8 2.3 9.8 4.6 14.4 0.4 0.7 0.1 1.5-0.6 1.9-0.1 0.1-0.2 0.1-0.3 0.1-2.3 0.2-2.7-1.7-3.3-3.1-11.3-25-23.1-49.7-34.2-74.8-3.1-7-6.3-13.9-9.5-20.8-1.3-4.8-3.9-9.1-5.9-13.6-1-2.1-2.7-4.3-0.9-6.9 1.2-0.4 2.6 0.6 3.7-0.2 1-1.4 0.6-2.8 0.3-4-3.2-14.6-5.9-29.4-9.9-43.8-1.5-5.6-1.4-11.6-4.8-16.6-1.1-1.6-0.9-3.8 0.6-5.1 2.4 3.1 4.4 6.4 6 10 1 2.2 2.4 4.2 4 6 3.8 2.6 4.8 7 6.9 10.8 14.2 25.7 29.5 50.7 42.9 76.8 0.9 3.8 2.1 7.5 5.1 10.3z"/>
			<path class="st39" d="m338.5 253.5c5.4 11.1 10.5 22.3 15.3 33.6 1.9 4.5 4.1 9 6.2 13.4 6.9 14.9 13.9 29.8 20.8 44.7 1.2 2.5 1.5 5.3 3.7 7.3-0.1 1.8 1.5 3.2 1 5l-2.8-0.6c0.5 2.9 1.3 5.8 2.2 8.6 3.3 10.9 7.7 21.4 10 32.6 0.4 1.8 1 3.8 0.5 5.3-2.2 5.8 0.4 10.9 2 16.1-1 2.8-3.8 2.8-5.9 3.9-3.2-3.2-4.8-7.4-7-11.2-7.8-13.5-15.2-27.3-23.1-40.8-3.6-6-6.3-12.6-10.9-18-1.9-2.1-4.5-4-2.8-7.5 3.4-0.9 4.9-3.1 4.5-6.6 0-0.8 0-1.7-0.1-2.5-4.6-17-3.3-35.1-10.6-51.6-3.4-7.7-5.6-16-8.6-24-0.5-1.4-0.9-2.9-1.2-4.3-0.5-2.3-1.5-4.8 1.2-6.3 2.7-1.2 4.1 1.2 5.6 2.9z"/>
			<path class="st39" d="m389.5 366.5c-2.8-1.6-3.1-4.2-3-7 1.9 1.8 3 4.4 3 7z"/>
			<path class="st39" d="m393.5 375.5c-2.8-1.6-3.1-4.2-3-7 1.9 1.8 3 4.4 3 7z"/>
			<path class="st63" d="m379.5 267.5c-1.2-2-2.4-3.9-3.4-5.9-5.8-11-12-21.9-18.3-32.6-5.1-8.6-9.7-17.5-14.6-26.2-4.1-7.3-8.3-14.5-12.4-21.8-0.2-0.5-0.2-1-0.2-1.5 0.9-6.2-1.9-11.9-2.4-17.9s-2.7-11.7-3.6-17.7c0-0.7-0.1-1.3-0.3-1.9-6-15.4-9-31.7-14.7-47.1-1.8-4.9-4-9.7-5.6-14.7-1.9-6-3.2-12.2-5.3-18 1.5-1 1.6 0 2 0.7 1.9 2.9 4 5.6 5.8 8.6 0.8 1.3 1.5 2.1 3.1 2 1 3.6 2.7 7 5 10 4.4 5.7 7.2 12.3 10.2 18.8 6.5 14.2 13.2 28.3 19.9 42.4 13.6 28.5 26.8 57.2 40.3 85.7 0.8 1.6 2 3.2 0.7 5.1-3.3-1.6-5.6-5-9.6-6-1.1 4.7 0.2 8.9 1.7 13 0.9 2.1 1.6 4.2 2.2 6.4 0.8 3.9 2.1 7.8 3.3 11.6 0.3 0.9 0.5 2 0.4 3-0.3 3.1 0.3 6.3 1.6 9.1 0.6 1.3 0.3 2.6 0.4 3.9-4.4-1.5-4.2-6-6.2-9z"/>
			<path class="st64" d="m320.5 163.5c-0.5 4 1.1 7.1 4 9.6-0.6 5 1.1 9.4 2.2 14 2 8.2 4 16.4 5.7 24.7 1.2 5.6 2 11.2 3.5 16.7 0.9 3.1 0.8 4-0.8 7.5l-4.6-2.5c-2.2 0.2-2.8-1.7-3.3-3-5.2-12.3-11.8-24-17-36.3-7.5-17.2-15.3-34.2-23.7-50.9-1-2.1-2.4-4-2.6-6.4 0-0.5 0.2-1 0.6-1.4 2.8 0 3.2-1.9 3-4.1-1-9.1-2.9-18-5.9-26.6-2.4-6.6-4.1-13.4-5.1-20.3 2 3.3 4.2 6.6 6 10 5.9 11.2 12.2 22.1 18.3 33.2 6.5 12 13.4 23.7 19.7 35.8z"/>
			<path class="st12" d="m385.5 235.5c0.3-1.3-0.6-2.2-1.1-3.2-6-12.7-12.1-25.3-17.9-38-4.8-10.5-9.8-20.9-14.7-31.3-5.7-12.2-11.5-24.5-17.3-36.6-4.8-9.9-9.3-20-14-30-2.1-4.3-4.6-8.3-5.9-12.9 0.4-1.1 0.9-0.6 1.4-0.1 4 4.3 8.9 7.9 11.7 13.4 0.6 1 1.4 1.9 2.3 2.6 4.1 4.1 7.5 8.7 11.4 13 4.9 5.4 11.1 9.6 16.1 15.1 0.7 0.5 1.4 0.9 2.2 1.1 2.7 4.2 3.8 9.1 7 13 2.4 6.4 5.4 12.6 8.4 18.8 5.3 10.8 10.7 21.4 15.6 32.4 3.2 7 6.7 13.9 10 20.8 3.7 4.7 6 10.1 8.5 15.5 0.8 1.7 2 3.5 0.5 5.5-2.8-1.1-5.1-3-6.7-5.5-0.8-1.1-2-2-3.4-2.4-2.6 1.1-1.9 3.3-1.9 5.2 0.2 3.6-0.9 7.2-3 10.2-2.4 1.5-4.1-0.5-6-0.4-0.7-2.4-3.1-3.7-3.2-6.2z"/>
			<path class="st25" d="m409.5 234.5c-1-5.4-4.2-9.8-6.3-14.8-0.9-2.1-2.5-3.9-2.7-6.3 2.9 3 7.3 2.7 10.7 4.9 2.2-0.4 4.2-1.8 5.3-3.8-0.2-3.2 0.4-6.4 1.6-9.3 1.5-3.9-0.1-7.8-1-11.6-1.7-6.8-3-13.7-4.1-20.6-1.3-8.3-3.9-16.1-6.4-24.1-4.6-15-9.4-29.9-13.9-44.8-0.8-2.6-2.2-4.7-3.1-7.2-3.4-9.4-6-19-10-28.1-2.6-6.2-5.5-12.3-7.1-18.8-1.9-7.6-5-14.8-5.9-22.6 2 0.7 2.3 2.7 3 4.3 6.2 12.7 13.3 24.9 19.9 37.4 4.5 8.5 9.4 16.9 14.1 25.4 1.1 2.6 1.5 5.5 1.4 8.3-0.3 8.3 1.5 16.3 4.1 24 6.8 20.6 13.6 41.1 19.8 61.9 4.7 16 8.2 32.3 10.6 48.8 0.8 5.5-1.1 10.5-2.1 15.7-0.6 3.2-3.5 3.8-6.3 3.6-5.3-0.3-9.4-3.1-13.3-6.3-2.6-5.5-4.7-11.1-8.3-16z"/>
			<path class="st54" d="m284.5 135.5v1c-1.7 6.6-3.4 8.5-11.8 12.9-0.2 0.3-0.4 0.6-0.4 0.9 2.1 11.2-0.5 22.9 4.1 33.9 1.6 4.1 2 8.5 1.1 12.8-0.5 3.1 0.6 5.9 1.3 8.8 1.6 6.9 3.4 13.9 2.3 21.1-3 1.9-3.2-1.2-4-2.5-3-4.7-5.4-9.8-8.4-14.6-4.1-8.3-9.1-16.2-13.3-24.4-0.8-1.5-2.5-2.9-1-4.9 0.6-6.6-2.4-12.5-3.4-18.7-0.4-3.3-1.4-6.4-3.1-9.3-0.5-0.9-0.7-1.9-0.5-2.9 0.1-2-0.2-3.9-1-5.8-3.3-8-4.6-16.6-6.8-24.9-0.6-2.1-1.6-3.9-2.2-6-2.5-9.4-5.2-18.8-7.8-28.2-0.2-1.3-0.2-2.7-0.2-4-0.1-1.5 0.4-2.7 1.8-3.2 1.3-0.5 2.7-0.2 3.7 0.8s1.9 2.3 3.3 2.9c2.2-0.3 2.1-2.2 2.5-3.6l3.6-0.6v-17.7c1.9-1.5 2.9-0.2 4.1 0.1 3.9 7.8 7.9 15.5 11.7 23.3 7.6 16 15 32.1 22.5 48.2 0.8 1.6 1.3 3.1 1.9 4.6z"/>
			<path class="st65" d="m254.5 180.5c1.8 3.6 3.5 7.3 5.5 10.9 2.9 5.3 5.9 10.6 8.8 15.8 0.4 0.7 0.7 1.5 0.7 2.3 1.6 3.3 0.5 6.6-0.5 9.7-1.1 3.4-4.3 3.8-7.5 3.3-5.8-1-11-4-14.9-8.5-10.1-11.1-20.1-22.2-29-34.2-3.4-4.5-6.4-9.3-9.1-14.3-1.3-0.7-1.5-2.1-2-3.2-5.9-12.6-11.7-25.3-17.6-37.9-1-2-1.5-4.3-3.4-5.9 0.6-2.7-2-4.5-2-7 3-0.5 4 2 5.3 3.8 8.1 11 16.8 21.6 26 31.6 3.9 4.1 8.3 7.7 13.3 10.4 3.4 1.9 6.3 2.1 8-2.3 0.4-1.1 1.2-2 2.3-2.4 3.3 4.5 5.3 9.7 8.1 14.5 2.8 4.4 5 9.1 8 13.4z"/>
			<path class="st66" d="m238.5 152.5c-1.6 2.6-2.2 5.9-4.9 8.1-4.2-1.7-8.9-2.5-11.9-6.4-0.3-0.4-0.7-0.7-1.1-1-5.9-3.3-9.4-9-13.9-13.7s-8-10-12.4-14.8c-2.5-2.8-4.7-5.9-6.7-9.1-1-1.7-2.4-3.1-4.1-4.2-2.1-2.2-3-5-4.2-7.6-5-10.6-10.2-21.2-15-32-3.1-7.2-7.3-13.9-9.8-21.4 4.8 5.4 9.8 10.5 14.2 16.3 3.1 4.1 6.8 7.8 10.8 11 4.8 3.7 9.3 7.7 13.7 11.9 1.4 1.6 3.2 2.9 5.3 3.6 2.1-0.7 2.9-3.1 5-3.9 1.5 1.5 2.7 3.2 3.6 5.2 4.9 9.1 9.8 18.2 14.7 27.3 0.1 0.3 0.5 0.4 0.8 0.6 3.6 7.1 7 14.3 10.9 21.2 1.6 3.1 2.5 6.5 5 8.9z"/>
			<path class="st8" d="m417.5 250.5c2.4 0.2 4.3 1.6 6.3 2.8 3.2 2 7.1 2.7 10.8 2.1 3.2-2.4 1.5-5.9 2.3-8.9 0.7-2.7 1.5-5.3 1.2-8.5-0.6-5.1-2.4-9.9-2.6-15-0.2-2.9-1.3-5.7-1.9-8.6-1.9-8.4-3.5-16.9-6-25.2-4.2-13.6-8.6-27.1-12.9-40.6-2.6-7.9-5.7-15.7-7.8-23.8-1.7-6.4-3.6-13-3.3-19.8 0.2-3.5 0-7 0-10.5 1.9 2.4 3.6 5 4.9 7.8 6.4 12 13 23.9 19.8 35.7 1.7 2.8 2.6 6 4.3 8.8 2.8 4.8 5.3 9.8 8 14.7-0.1 2.5 0.2 4.9 0.9 7.3 1.6 4.6 1.2 9.5 1.1 14.3-0.1 3.7-2.4 6.4-5.1 9.2 3.8 8.4 4.8 17.8 8.1 26.5 1.8 4.4 3.3 8.9 4.5 13.5 0.6 2.5 1 5.1 1.3 7.7 0.4 3.5 1.6 6.7 2.5 10 0.9 3.1 1.5 6.3 1.9 9.6 0.4 3.6 1.1 7.1 2.2 10.5 0.9 2.5 0.9 5.2 0 7.7-0.3 1-0.4 2-0.4 3 0.1 4.1 0 8.3-1.8 12.1-0.7 1.4 0.6 2.5 0.2 3.7-1.6 1.7-2.9 1-4.3-0.3-2.6-2.3-5.6-2.7-9.1-2.3 0.4 3.4 2.4 6.6 0 9.6-6.1-13.3-12.2-26.5-18.4-39.7-2.1-4.6-4.4-9-6.7-13.4z"/>
			<path class="st67" d="m570.5 151.5c0.2 4.5 2.3 8.5 3.5 12.7 2.5 9.6 5.1 19.2 7.3 28.9 1.8 8 1.3 16.2 1.2 24.3 0 3.4-2 4.9-5.4 5.1-2.3 0.2-4.6-0.5-6.5-1.7-3.4-2.1-6.5-4.5-9.4-7.2-9.4-9.3-18.4-19-26-29.9-0.6-0.9-1.6-1.3-2.6-1.2l-16.5-36c-1.3-2.8-2.2-5.8-4.5-8 0-1.2-0.2-2.3-0.7-3.3-2.8-5.8-5.5-11.6-8.2-17.4-7.2-15.6-14.2-31.4-21.9-46.8-0.1-0.5-0.2-1-0.2-1.5 4 4.3 8.1 8.6 11.9 13.1 1 1.3 2.1 2.6 3.3 3.6 3.6 2.4 6.5 5.6 9.5 8.7 1.6 1.4 3.5 2.5 5.5 3.2 3 1.3 5.1 0.5 7.6-2.4 1-13.8-2.1-27-5.4-40.2-1-3.8-2.2-7.5-3.5-11.2-0.8-2.1-1.2-4.5-1-6.8 1.6 1.6 2.9 3.5 3.8 5.6l23.1 43.2c5.9 10.9 11.8 21.7 17.8 32.5 5.2 9.5 10.5 19 15.7 28.6 0.7 1.3 1.7 2.5 1.6 4.1z"/>
			<path class="st65" d="m707.5 62.5c4 5.6 7.3 11.7 10 18 6.6 16 12.9 32.1 19 48.3 10.7 28.5 21.8 56.9 30.3 86.2 3.7 12.6 7.3 25.3 10 38.1 1.7 8 3.7 16.6 0.1 25-1.6 3.7-4 5-7.8 4.6-4.2-0.5-8-2.6-10.8-5.8-16.9-18.4-32.6-37.8-47-58.2-10.8-15.2-21.8-30.3-31.9-45.9-12.4-19.1-24.9-38.2-37-57.6-17.3-27.8-34.1-56-51.3-84-1-1.6-1.6-3.3-2.7-4.8-3.6-5.7-6.7-11.7-9-18 3 1.5 4.4 4.4 6 7.1 6.5 11.1 13.1 22 20 32.9 7.7 12.4 15.2 24.9 22.5 37.5 4.4 7.6 9.7 14.9 14.4 22.4 6.3 10 12.6 20 19.1 29.9 4.7 7.1 9.1 14.5 13.9 21.5 5 7.3 10.1 14.6 15.3 21.8 3.6 5 7.3 10.1 10.8 15.3 5.6 8.2 11.9 15.8 17.6 23.8 4.8 6.7 10.6 12.6 14.9 19.6 0.2 0.3 0.4 0.5 0.6 0.8 5.5 5.5 11.5 10.4 16.5 16.4 0.4 0.5 1 0.9 1.6 1.2 3.1 1 5.8 2.8 7.9 5.2 1.6-1.2 3.3-2 3.1-4.2-0.5-2.4 0.6-4.9 2.8-6.1 0.9-10.6-0.3-21.2-3.7-31.2-0.8-2-1.1-4.1-1-6.3 0.4-3.4-1.3-6.5-2.3-9.5-3.5-10.4-6.4-20.9-10-31.3-4.7-13.9-10.3-27.6-15.1-41.5-5-14.4-10.5-28.5-16.1-42.7-2.8-7-5.6-14-8.7-20.9-1.2-2.4-2.2-4.9-2-7.6z"/>
			<path class="st64" d="m648.5 157.5c-0.4-2.2-1.2-4.4-2.2-6.4-4.2-9-8.5-18-12.7-27.1-0.1-0.5-0.2-1-0.2-1.5 3.4-0.3 4.4 2.5 5.9 4.6 6.6 9.6 12.5 19.6 18.8 29.5 24.4 38.4 48.9 76.6 74.4 114.2 15.9 23.5 31.8 47.2 50.3 69 7.6 9 15.1 18.1 24.1 25.8 1.5 1.3 3.1 2.5 4.8 3.5 5.2 3.2 8 2.1 9.2-4 0.8-4.1 1-8.2 0.5-12.4-3-26.2-11.8-50.8-19.8-75.6-5.4-17-11.3-33.8-17.6-50.4-8.8-23.4-18-46.6-27.4-69.7-0.8-2.1-2.2-4.3-0.3-6.5 3 3.3 4.2 7.6 6.5 11.3 4.2 6.6 7.7 13.6 11.4 20.5 0.5 1 1.3 1.9 1.1 3.2 4.5 8.7 8.3 17.8 11.5 27.1 5.1 15.5 12.1 30.3 17.3 45.8 9.6 28.4 20.6 56.2 28.4 85.2 4 14.8 6.8 29.8 7 45.3 0.1 2-0.1 4-0.5 6-1.7 7.6-6.5 10.1-13.7 7-2.6-1.2-4.9-2.8-6.9-4.9-14.5-14.3-28.1-29.4-39.9-45.9-10.2-14.8-20.5-29.9-31.2-44.4-15.5-20.9-29.5-42.8-44-64.3-13.5-20-26.5-40.4-39.5-60.8-3.6-5.7-7-11.7-11.3-17-1.4-2.3-1.9-5.2-4-7.1z"/>
			<path class="st44" d="m652.5 164.5c2-0.1 3.1 1.3 3.9 2.7 4.9 8.8 10.8 16.9 16.2 25.3 5.2 8.2 10.4 16.3 15.8 24.4 7.6 11.7 15.3 23.3 23 35 5.3 8.1 11 15.9 16.2 24.1s10.3 16 16.1 23.5c9 11.6 16.4 24.2 25.5 35.7 5.1 6.5 9 13.8 14.3 20 2 2.4 3.6 5.2 5.8 7.3 4.9 4.8 8.8 10.2 12.8 15.7 2.2 3.1 5.5 5.2 8.3 7.8 3.2 3 6 6.5 9 9.7 0.8 0.9 1.6 1.7 2.5 2.4 4.7 3.4 5.3 3.5 13.2 3.1 2.8-2.4 3.2-6 3.3-9.3 0.3-9-0.5-18.1-2.4-26.9-1.1-5.3-2-10.5-3.2-15.8-1.5-6.2-3.5-12.2-5.1-18.4-2.2-8.8-5.5-17.1-8.3-25.7-5.7-17.4-12.2-34.5-18.3-51.8-3.1-8.8-6.7-17.4-10.1-26.1-2.5-6.2-4.5-12.6-6.6-19s-5-12.1-7.5-18.2c-0.6-1.5-1.6-2.9-1.3-4.7 1.9 0.5 2.2 2.4 2.9 3.7 1.7 3.6 3.8 7.1 6.1 10.3 0.6 3 3.1 5.1 4 8-1.5 0.7-1 1.8-0.6 2.9 2.6 6.7 5.1 13.5 7.6 20.2 3.4 9.2 7.6 18.2 10.1 27.6 2 7.1 4.4 14 7.3 20.7 2.7 6.2 4.9 12.5 6.7 18.9 2.4 8.9 6.6 17.1 9.4 25.8 2 6.2 4.2 12.4 5.6 18.8 0.6 2.5 2 4.8 2.8 7.3 1.8 5.6 3.2 11.3 4.2 17.1 0.6 3.4 1.6 6.7 3 9.8 1 2.3 1.6 4.6 1.8 7.1 0.3 3.4 0.9 6.8 1.8 10.1 1.9 8.3 2.6 16.6-0.6 24.8-0.7 1.8-0.6 1.8-2.7 3.5-7.8 0.1-13-4.4-17.8-9.6-3.2-3.5-7-6.3-10.2-9.9-6-6.8-11.1-14.4-17.1-21.1-9.8-11.1-17.1-24.1-26.5-35.5-5.5-6.6-9.8-14-14.6-21-4-5.8-8.8-11-13-16.7-9.5-12.7-18.3-25.7-27.1-38.8-6.9-10.4-13.8-20.8-20.6-31.3-10.1-15.7-20.2-31.6-30.3-47.3-1.7-2.8-3.8-5.3-6.2-7.5-3.4-5.8-6.4-12.2-9.1-18.7z"/>
			<path class="st68" d="m256.5 273.5c-2.8-1.2-4-4-5.5-6.2-4.8-7-10.3-13.6-14.9-20.8-5-7.9-10.7-15.3-15.5-23.4-7.1-12.2-15.3-23.8-22.8-35.7-5.1-8-10-16.2-15.1-24.3-3.8-5.9-8-11.7-11.7-17.6-5.4-8.6-10.5-17.4-16-26-4.9-7.6-10.2-14.9-15.3-22.3-0.6-0.8-1.4-1.4-2.3-1.8-5.3-2.6-9.1-6.8-13.1-11.1-3-3.2-6-7.2-11.6-7.7-2 1.1-4.3 2.7-7.1 2.9-2-3.3-4.2-6.6-6-10-4.4-8.3-8.6-16.6-13-24.9-4.2-7.8-8.5-15.6-12.7-23.4-0.6-1.1-1.5-2.2-1.3-3.7 1.9-1.4 4.1-0.9 6.3-1l3.1-2.7c0.4 0.2 0.8 0.5 1.2 0.8 4.4 3.9 6.8 9.3 10.3 13.8 5 6.5 10.7 12.5 17.1 17.8 4.9 3.9 9.2 8.5 12.7 13.7 5.9 9.1 11.3 18.5 17.3 27.5 9.2 13.7 17.2 28 25.9 41.9 4.3 6.8 8.7 13.5 13.1 20.3 10.7 16.6 21.2 33.2 32 49.8 5 7.7 9.9 15.6 15.5 22.8 4.1 5.2 7.5 10.8 11.4 16.1 1 1.7 2.4 3.1 4 4.2 1.5 0.4 2.1 1.6 2.7 2.7 4.3 8.1 7.5 16.7 11.4 25 0.6 1.1 0.9 2.3-0.1 3.3z"/>
			<path class="st69" d="m756.5 150.5c0 4.8 2.5 8.8 4.1 13 3.8 9.8 8.1 19.4 11.8 29.2 3.2 8.4 6.4 16.8 9.8 25.2 2.4 6.1 4.4 12.3 6.7 18.4 3.9 10.3 8 20.4 10.9 31 2.6 9.3 6.1 18.3 9 27.5 3.6 11.4 6.2 23 10.4 34.2-0.3 5.6 2.6 10.8 2.4 16.5-0.1 3 0.8 6.1 1.5 9.2 0.6 1.9 0.5 3.9-0.1 5.8-0.2 0.5-0.5 1-0.5 1.4 0.7 3.9-1.5 6.9-2.9 10.2-2.7 1-5.7 0.5-7.9-1.4-5.5-4.1-11.5-7.7-15.4-13.7-1-1.3-2.2-2.5-3.5-3.6-5.8-5.1-9.6-11.7-14.7-17.4-3.8-4.3-6.7-9.5-11-13.4-2-1.8-3.1-4.3-4.5-6.5-8.5-12.9-17.6-25.3-26.5-38-11.2-16-21.7-32.5-32.7-48.6-7.3-10.7-14-21.9-21-32.8-8.5-13.1-16.9-26.2-25.3-39.3-6.6-10.2-12.6-20.8-19.6-30.7-1-1.7-2.4-3.1-4.1-4.2-1.2-0.3-1.3-1.5-1.6-2.3-6-12.5-11.9-25-17.7-37.6-0.7-1.7-1.2-3.4-1.6-5.1 1.7-0.6 2.5 0.7 3.5 1.7 1.1 1.7 2.2 3.4 3.2 5.2 1.5 3.3 3.3 6.3 5.5 9.2 0.3 0.4 0.5 0.7 0.7 1.1 0.9 2.2 2.2 4.4 3.7 6.3 0.8 1.1 1.5 2.2 2.1 3.3 0.8 1.8 1.8 3.4 3.1 4.9 1.5 2 2.8 4 4 6.1 1.4 2.8 3 5.4 4.9 7.9 1 1.7 2.2 3.4 3.1 5.1 0.8 1.8 1.9 3.5 3.1 5.1 4 7 8.9 13.5 12.8 20.6 0.8 1.9 1.8 3.6 3.1 5.1 2 2.9 4.1 5.8 5.9 9 0.7 1.8 1.8 3.4 3 4.9 0.8 1 1.5 2.1 2.1 3.3 0.7 1.6 1.6 3 2.6 4.4 0.3 0.4 0.5 0.7 0.7 1.1 1.2 2.3 2.5 4.6 4.1 6.7 0.3 0.3 0.5 0.7 0.7 1.1 0.7 1.1 1.5 2.2 2.3 3.1 0.3 0.3 0.5 0.7 0.8 1.1 1.3 2.6 2.9 5 4.7 7.2 1.5 2 2.8 4 4 6.2 0.8 1.8 1.8 3.5 3.1 4.9 2 2.9 4.1 5.8 5.8 8.9 0.8 1.8 1.8 3.5 3 5.1 0.3 0.4 0.6 0.8 0.8 1.2 15 21.5 29.9 43.2 46.1 63.9 5.8 7.4 11.3 15.3 17.8 22.1 5.9 6.1 12.2 11.7 17.8 18.1 4.6 5.3 8.1 4.1 11.1-2.3 2.4-5 1.9-10.1 1.4-15.2-0.5-5-1.5-10.2-2.5-15.2-3.6-17.1-8.3-33.9-14.1-50.3-5.1-14.9-10.5-29.7-15.8-44.6-0.8-2.3-1.6-4.8-3.2-6.7-5-9.6-8.1-20-11.7-30.2-5.1-14.5-11.9-28.2-16.8-42.8-0.6-1.8-2-3.6-0.3-5.6 0.5 0.4 1.3 0.7 1.5 1.2 5.2 9.9 10.7 19.7 16.3 29.4 0 0.4 0.1 0.9 0 1.4z"/>
			<path class="st53" d="m738.5 118.5c0 1 0.1 2 0.4 2.9 7.5 19.7 16.4 38.8 22.8 59 1.7 5.6 3.9 11 6.8 16.1 7.5 19.8 14.2 39.9 21 60 4.5 13.4 8.1 27 10.8 40.8 1 4.8 1.3 9.8 2.3 14.7 0.6 3.5 0.5 7-0.4 10.4-0.8 4-2.2 7.7-6.4 8.7-3.8 0.9-7-1.6-9.7-4-18.9-17.6-33.6-38.4-49-58.9-10.3-13.6-19.3-28.1-29.6-41.7-1.2-1.6-1.7-3.5-3-5-2.4-2.7-4.4-5.8-6-9-1.2-1.5-1.7-3.5-3-5-1.7-1.8-3-3.8-4-6-1.6-2.7-3.3-5.3-5-8-0.9-1.4-2.1-2.6-3-4-1.6-2.7-3.3-5.4-5-8-1.2-1.6-1.7-3.5-3-5-1.3-0.6-1.3-2-2-3-1.2-1.5-1.7-3.5-3-5-2.4-2.7-4.4-5.8-6-9-1.2-1.5-1.7-3.5-3-5-4.6-6.8-9.6-13.4-13-21-1.2-1.5-1.7-3.5-3-5-1.1-1.6-3-2.7-3-5-1.6-2.7-3.3-5.3-5-8-1.7-1.8-3-3.8-4-6-1.2-1.5-1.7-3.5-3-5-1.3-0.6-1.3-2-2-3-1.6-2.2-2.3-4.9-4-7-2.1-3.3-4-6.7-6-10-1.1-1.6-3-2.7-3-5-2.1-2.6-4.1-5.2-6-8-1.4-0.8-1.6-2.4-2.3-3.6-3-6.3-6-12.7-9.1-19-0.5-1-0.7-2.2-0.7-3.4 4.1 0.6 5.2 4.3 6.8 7.1 8.6 15 17.7 29.7 26.8 44.4 14.9 24.1 29.7 48.2 45.2 71.8 13.7 20.9 27.1 41.9 41.8 62.1 10.8 14.8 21.6 29.6 33 43.9 6 7.5 12.8 14.5 19 21.8 2.8 3.2 6.8 4.7 10.5 6.7 2.1 1.2 4 0.1 4.9-2 1.2-2.8 2.7-5.7 2.4-8.6-0.5-5.1-0.2-10.3-1.3-15.4-8.1-35.6-20.1-70-32.4-104.3-7.8-21.4-16.2-42.7-24.9-63.7-1.2-2.8-2.9-5.8-0.7-9 0.3 0.1 0.7 0.2 0.8 0.4 3.1 6.1 7.2 11.4 9.2 17.8z"/>
			<path class="st65" d="m728.5 100.5c0 3.3 0.8 6.5 2.2 9.5 2.2 4.9 4.1 10 6.1 15 2.7 7 5.7 14 8.5 21 1.8 4.4 3.5 8.8 5.1 13.3 4.5 12.3 9.1 24.6 13.4 36.9 2.3 6.6 4.1 13.5 6.7 20 5.7 14.5 9.4 29.6 13.4 44.5 2.3 8.4 5.7 16.9 4.7 26-0.1 1 0.1 2 0.5 2.9 1 2.2 0.8 4.7-0.5 6.7-1.2 1.8-1 3.8-1.1 5.5-1.6 2.1-3.2 3.8-5.4 4.4-2.5-1.6-4.7-3.3-7.3-4.4-2.6-1-4.9-2.8-6.6-5.1-3-4.6-7-8.4-10.7-12.3-7.5-7.9-13.5-17.1-20.6-25.3-5.1-5.9-9.4-12.6-13.8-19.2-5.2-7.8-11.3-15-16.5-22.7-6.8-9.9-12.9-20.2-19.8-30-8.6-12.3-16.3-25.1-24.4-37.6-7.2-11.2-14.5-22.3-20.9-34-3.5-6.3-8.1-12-11.7-18.2-6.5-11.1-13.1-22-19.8-32.9-3.5-5.7-6.5-11.8-10.5-17.2-0.4-0.7-1.1-1.3-1.8-1.6-3.6-6.1-7.4-12-9-19 3.7 2.9 5.6 7.2 8 11.1 10 15.8 19.5 32 29.2 48 7.8 12.9 16.2 25.6 23.8 38.6 3.6 6.3 8 12 11.9 18.1 6.4 10 12.5 20.1 19.1 29.9 8.3 12.4 16.6 24.9 25.5 36.9 5.1 6.9 9.3 14.4 14.9 20.8 7.1 8.2 12.9 17.5 20.1 25.7 6.2 7 12.8 13.6 18.7 20.9 3.3 4.1 8.2 6 14.3 4.8 2.6-4.9 5-10.2 2.7-16.4-0.2-0.6-0.3-1.3-0.2-2 1-8.5-2.8-16.1-4.5-24.1-1-5.1-2.7-10.1-3.6-15.2-0.6-3.4-2.4-6.4-3.3-9.7-3.2-11.1-6.8-22.1-10.5-33.1-3.3-9.8-7.1-19.4-11-28.9-1.8-4.6-3.5-9.2-5.1-13.8-3.1-9.5-7.4-18.6-10.8-28-2.9-8.4-6.3-16.5-9.8-24.6-0.7-1.6-0.3-3.3-0.4-4.9 2.5 2.1 2.5 5.8 5 8 0.9 4.2 4.4 7.4 5.8 11.7z"/>
			<path class="st44" d="m256.5 273.5c-0.8-4-3.2-7.4-4.7-11.1-2.7-6.8-6.1-13.3-9.3-19.9 0.1-3.6-2.4-6.1-3.6-9.1-0.9-2.3-2.8-4.2-2.4-6.9 2.1-1.3 3.1 0.3 4 1.6 7.2 11.1 16.5 20.4 24.8 30.5 4.8 5.9 10.8 10.7 16.1 16.2 3.9 4 9.7 4.7 14.5 7.1 3-3 3.4-6.5 4.3-9.9 0.4-1.5 0.1-3.4 2.2-4.1 4.3 1.5 4.6 6 7 9 12.2 21.8 24.4 43.6 36.8 65.3 0.7 1.3 1.6 2.6 1.4 4.2 0.1 2.7 3.2 4.2 3 7-0.3 3.6-3 1.3-4.8 2.3l-6.1-7c-3.7-0.5-6.8-0.8-9.2 1.9-2.6-0.8-5-1.4-7.2-2.3-4.4-1.8-8.4-4.6-11.6-8.2-3.8-4.2-7.9-8.1-12-12-6.3-5.9-11.2-12.9-16.2-19.9-5.8-8.2-11.8-16.2-17.9-24.2-1.2-1.6-2.4-3.7-5-3.6-2.5-1.6-2.2-4.9-4.1-6.9z"/>
			<path class="st69" d="m302.5 268.5c-1.3 0.5-1 1.6-1 2.5 0 3.7-1.6 7-3 10.3-0.9 2.1-3.1 3.2-4.3 1.9-2.4-2.7-5.9-2.7-8.7-4.2-4.1-1.9-7.5-4.9-10-8.7-1-1.6-2.2-2.9-3.7-4-4.9-3.1-8.2-7.5-11.4-12.2-0.7-1-1.4-1.8-2.3-2.6-5.4-4.9-9.7-10.7-13.9-16.7-1.7-2.4-3.9-4.4-5.1-7.2-0.5-0.9-1.5-1.4-2.5-1.2-3.2-3.3-3.7-7.9-5.9-11.7-1.2-2.5-2.6-4.9-4.1-7.3 0.1-1.1-0.2-2.3-0.7-3.3-2.8-5.7-5.5-11.5-8.2-17.2-2.4-5.2-4.8-10.3-7.2-15.5-0.8-2-2.4-3.7-2-6 1 0.3 1.5 1.2 2.1 2 6.3 9.5 13.1 18.5 20.5 27.1 0.8 1 1.5 2.2 2.3 3.2 1.9 2.5 4.1 4.7 6.5 6.6 3.8 3.1 6.3 7.2 9.6 10.7 3.5 3.8 8.1 5 12.6 6.3 2.5 0.7 5 0.2 6.4-3-0.7-2.9 0.9-5.8 1-8.9 2 0.7 2.2 2.7 3 4.2 2.7 4.6 5.3 9.2 8 13.8 3.5 2.1 4.6 6 6.3 9.2 4.7 8.7 9.7 17.2 14.5 25.9 1 1.9 2.8 3.7 1.2 6z"/>
			<path class="st70" d="m609.5 71.5c2.9 1.8 5.1 4.7 6 8l-3-2c-1.5-1.6-2.6-3.7-3-6z"/>
			<path class="st26" d="m379.5 267.5l6 9v1c-2.2 0-3.2-1.4-4-3.1-1-2.1-2-4.4-2-6.9z"/>
			<path class="st68" d="m347.5 346.5c-3.4-4.2-5.7-9.2-8.3-13.8-5.9-10.3-11.5-20.7-17.5-30.9-4.6-7.9-8.8-16.2-13.1-24.3-0.4-6.5-0.3-6.6 6.7-7.1 0.8-1.5 0.1-2.9-0.3-4.3-1.3-4-1.4-8.2-0.3-12.3 0.9-3.6 0.7-7.4-0.6-10.8-2.8-8.2-5.2-16.5-8.4-24.5-0.6-1.4-0.9-2.9-1.5-4.2-3.5-8.2 0.2-14.6 5.2-20.6 0.5-0.6 1.5-0.7 2.1-0.2l0.1 0.1c1.9 4.8 4 9.6 6.5 14.1 3.1 5.9 5.8 12.1 8.5 18.2 1.2 2.7 2.1 5.4 4.1 7.7 0.7 4 2.7 7.4 4.5 10.9 1.5 2.9 3 5.8 3.6 9.1l-4.9-2.8-1.6 2.2c1.2 6.2 3.8 12.3 6 18.6 2.6 7.5 5.5 15 7.5 22.7 0.6 2 1.3 4 2.2 6 1.7 4.7 2.3 9.7 1.7 14.6-0.4 4.6 1 8.9 2.4 13 2 6 1.6 12 1.6 18.2-2.2 0.8-4.2 0.3-6.2 0.4z"/>
			<path class="st71" d="m311.5 193.5c-0.8 0-1.8 0-1.9 1.1-0.3 1.8-1.6 3.3-1.2 5-1 1.6-3 0.2-4 2-0.9 1.6 0 2.8-0.1 4.1-0.4 9.6 5.5 17.4 7.4 26.4 0.7 3 1.6 6 2.9 8.8 2.3 4.8 2.6 10.3 0.8 15.3-0.9 2.8-0.2 5.4 0.4 8 0.6 3 2.5 5.8 1.2 9-2.5 0-4.4-2.9-7.4-1.2-0.4 1.6 0.2 3.8-1.2 5.4-2.6-2.6-3-6.6-6-9-1.4-5.5-5.3-9.7-7.5-14.8-1.5-3.4-3.8-6.4-5.7-9.7-3-5.4-5.9-11-8.8-16.4 0-9.1-1.9-17.8-4.3-26.5-0.2-0.8-0.9-1.5-0.6-2.3 2.8-7.8-0.9-14.8-2.6-22-1.1-4.8-2.3-9.4-0.7-14.4 1-2.9-0.7-5.8-1.4-8.6-0.6-2.4-1.3-4.8 0.6-6.7 1.4-0.7 2.1 0.6 3.3 0.4 2.4-1.7 4-4.6 6.8-5.6 1.2-1.5 0.6-2.9 0.9-4.2 0.2-1.1 1.1-1.1 1.9-1.1 5.7 11.8 11.5 23.7 17.2 35.5 3.6 7.2 6.8 14.4 10 21.5z"/>
			<path class="st70" d="m707.5 226.5c4.4 2.5 6.3 7.2 8.9 11 10.4 15.2 21.3 30 32.2 44.8 6.1 8.2 12.9 15.8 18.7 24.2 4.5 6.5 11.2 11.4 16.7 17.2 3.2 3.4 7 5.4 11.3 7.1 2-1 3.3-2.9 5-4.4 0.5-2 0.7-4.1 1.1-6.1 1.1-4.8 0.1-9.7-1.3-14.4-0.4-0.9-0.6-1.9-0.6-2.9 0.8-5.1-1.3-9.7-2.1-14.5-0.9-5.7-2.7-11.1-4.1-16.6-2.6-10.4-6.3-20.6-10-30.7-1.9-5.4-3.4-10.9-5.3-16.3-2.3-6.5-4.9-12.8-7.1-19.3-1-2.9-2.6-5.7-2.5-8.9 2.4 2 2.8 5.2 3.8 7.8 2.9 8.3 5.8 16.6 9.1 24.8 1.1 2.7 1.8 5.6 2.7 8.4 2.7 8.7 5.8 17.3 8.9 25.9 2.6 7.2 4.2 14.7 6.3 22.1 1.3 4.5 1.4 9.3 3.2 13.8-1.2 7.1 2.7 13.6 2.3 20.8-0.4 4.5-1.5 9-3.5 13.1-0.7 1.7-2.2 3-4 3.3-5.8-1.1-9.4-5.1-12.5-9.5-1.8-2.5-4-4.8-6.6-6.6-2.2-1.6-4.1-3.4-5.8-5.5-4-5-8.6-9.6-12.1-15-3.3-5.1-7.8-9.3-11.3-14.3-5.6-7.9-11.5-15.6-17.2-23.4-3.4-4.6-7-9.1-10-14-4.2-6.7-8.8-13.1-13.5-19.4-0.4-0.9-0.7-1.7-0.7-2.5z"/>
			<path class="st70" d="m618.5 84.5c2.8 2.7 4.9 6.2 6 10-3-2.6-5.1-6.1-6-10z"/>
			<path class="st70" d="m678.5 181.5c2.5 2 4.3 4.8 5 8-2.5-2-4.3-4.8-5-8z"/>
			<path class="st70" d="m637.5 115.5c2.5 2 4.3 4.8 5 8-2.5-2-4.3-4.8-5-8z"/>
			<path class="st70" d="m686.5 193.5c2.5 2 4.3 4.8 5 8-2.5-2-4.3-4.8-5-8z"/>
			<path class="st70" d="m624.5 94.5c2.5 1.6 3.3 4.3 4 7-2.5-1.6-3.2-4.3-4-7z"/>
			<path class="st70" d="m675.5 176.5c2.1 1 2.7 2.9 3 5-2-1-2.7-2.9-3-5z"/>
			<path class="st70" d="m661.5 154.5c2.1 1 2.7 2.9 3 5-2-1-2.7-2.9-3-5z"/>
			<path class="st70" d="m695.5 207.5c2.1 1 2.7 2.9 3 5-2-1-2.7-2.9-3-5z"/>
			<path class="st70" d="m645.5 128.5c2.1 1 2.7 2.9 3 5-2-1-2.7-2.9-3-5z"/>
			<path class="st70" d="m704.5 221.5c2.1 1 2.7 2.9 3 5-2-1-2.7-2.9-3-5z"/>
			<path class="st70" d="m630.5 104.5c2.1 1 2.7 2.9 3 5-2-1-2.7-2.9-3-5z"/>
			<path class="st70" d="m670.5 168.5c2.1 1 2.7 2.9 3 5-2-1-2.7-2.9-3-5z"/>
			<path class="st70" d="m683.5 189.5c1.6 0.9 3 1.9 3 4-1.6-0.8-3-1.9-3-4z"/>
		</g>

</svg>
